ISO-10303-21;
HEADER;
/* Generated by software containing ST-Developer
 * from STEP Tools, Inc. (www.steptools.com) 
 */

FILE_DESCRIPTION(
/* description */ (''),
/* implementation_level */ '2;1');

FILE_NAME(
/* name */ '10 fin heat sink.step',
/* time_stamp */ '2026-08-15T23:40:31+05:30',
/* author */ (''),
/* organization */ (''),
/* preprocessor_version */ 'ST-DEVELOPER v20.1',
/* originating_system */ 'Autodesk Translation Framework v15.8.0.0',
/* authorisation */ '');

FILE_SCHEMA (('AUTOMOTIVE_DESIGN { 1 0 10303 214 3 1 1 }'));
ENDSEC;

DATA;
#10=MECHANICAL_DESIGN_GEOMETRIC_PRESENTATION_REPRESENTATION('',(#13),#1579);
#11=SHAPE_REPRESENTATION_RELATIONSHIP('SRR','None',#1586,#12);
#12=ADVANCED_BREP_SHAPE_REPRESENTATION('',(#14),#1578);
#13=STYLED_ITEM('',(#1595),#14);
#14=MANIFOLD_SOLID_BREP('Body1',#995);
#15=FACE_BOUND('',#105,.T.);
#16=FACE_OUTER_BOUND('',#65,.T.);
#17=FACE_OUTER_BOUND('',#66,.T.);
#18=FACE_OUTER_BOUND('',#67,.T.);
#19=FACE_OUTER_BOUND('',#68,.T.);
#20=FACE_OUTER_BOUND('',#69,.T.);
#21=FACE_OUTER_BOUND('',#70,.T.);
#22=FACE_OUTER_BOUND('',#71,.T.);
#23=FACE_OUTER_BOUND('',#72,.T.);
#24=FACE_OUTER_BOUND('',#73,.T.);
#25=FACE_OUTER_BOUND('',#74,.T.);
#26=FACE_OUTER_BOUND('',#75,.T.);
#27=FACE_OUTER_BOUND('',#76,.T.);
#28=FACE_OUTER_BOUND('',#77,.T.);
#29=FACE_OUTER_BOUND('',#78,.T.);
#30=FACE_OUTER_BOUND('',#79,.T.);
#31=FACE_OUTER_BOUND('',#80,.T.);
#32=FACE_OUTER_BOUND('',#81,.T.);
#33=FACE_OUTER_BOUND('',#82,.T.);
#34=FACE_OUTER_BOUND('',#83,.T.);
#35=FACE_OUTER_BOUND('',#84,.T.);
#36=FACE_OUTER_BOUND('',#85,.T.);
#37=FACE_OUTER_BOUND('',#86,.T.);
#38=FACE_OUTER_BOUND('',#87,.T.);
#39=FACE_OUTER_BOUND('',#88,.T.);
#40=FACE_OUTER_BOUND('',#89,.T.);
#41=FACE_OUTER_BOUND('',#90,.T.);
#42=FACE_OUTER_BOUND('',#91,.T.);
#43=FACE_OUTER_BOUND('',#92,.T.);
#44=FACE_OUTER_BOUND('',#93,.T.);
#45=FACE_OUTER_BOUND('',#94,.T.);
#46=FACE_OUTER_BOUND('',#95,.T.);
#47=FACE_OUTER_BOUND('',#96,.T.);
#48=FACE_OUTER_BOUND('',#97,.T.);
#49=FACE_OUTER_BOUND('',#98,.T.);
#50=FACE_OUTER_BOUND('',#99,.T.);
#51=FACE_OUTER_BOUND('',#100,.T.);
#52=FACE_OUTER_BOUND('',#101,.T.);
#53=FACE_OUTER_BOUND('',#102,.T.);
#54=FACE_OUTER_BOUND('',#103,.T.);
#55=FACE_OUTER_BOUND('',#104,.T.);
#56=FACE_OUTER_BOUND('',#106,.T.);
#57=FACE_OUTER_BOUND('',#107,.T.);
#58=FACE_OUTER_BOUND('',#108,.T.);
#59=FACE_OUTER_BOUND('',#109,.T.);
#60=FACE_OUTER_BOUND('',#110,.T.);
#61=FACE_OUTER_BOUND('',#111,.T.);
#62=FACE_OUTER_BOUND('',#112,.T.);
#63=FACE_OUTER_BOUND('',#113,.T.);
#64=FACE_OUTER_BOUND('',#114,.T.);
#65=EDGE_LOOP('',(#621,#622,#623,#624));
#66=EDGE_LOOP('',(#625,#626,#627,#628));
#67=EDGE_LOOP('',(#629,#630,#631,#632));
#68=EDGE_LOOP('',(#633,#634,#635,#636));
#69=EDGE_LOOP('',(#637,#638,#639,#640));
#70=EDGE_LOOP('',(#641,#642,#643,#644));
#71=EDGE_LOOP('',(#645,#646,#647,#648));
#72=EDGE_LOOP('',(#649,#650,#651,#652));
#73=EDGE_LOOP('',(#653,#654,#655,#656));
#74=EDGE_LOOP('',(#657,#658,#659,#660));
#75=EDGE_LOOP('',(#661,#662,#663,#664));
#76=EDGE_LOOP('',(#665,#666,#667,#668));
#77=EDGE_LOOP('',(#669,#670,#671,#672));
#78=EDGE_LOOP('',(#673,#674,#675,#676));
#79=EDGE_LOOP('',(#677,#678,#679,#680));
#80=EDGE_LOOP('',(#681,#682,#683,#684));
#81=EDGE_LOOP('',(#685,#686,#687,#688));
#82=EDGE_LOOP('',(#689,#690,#691,#692));
#83=EDGE_LOOP('',(#693,#694,#695,#696));
#84=EDGE_LOOP('',(#697,#698,#699,#700));
#85=EDGE_LOOP('',(#701,#702,#703,#704));
#86=EDGE_LOOP('',(#705,#706,#707,#708));
#87=EDGE_LOOP('',(#709,#710,#711,#712));
#88=EDGE_LOOP('',(#713,#714,#715,#716));
#89=EDGE_LOOP('',(#717,#718,#719,#720));
#90=EDGE_LOOP('',(#721,#722,#723,#724));
#91=EDGE_LOOP('',(#725,#726,#727,#728));
#92=EDGE_LOOP('',(#729,#730,#731,#732));
#93=EDGE_LOOP('',(#733,#734,#735,#736));
#94=EDGE_LOOP('',(#737,#738,#739,#740));
#95=EDGE_LOOP('',(#741,#742,#743,#744));
#96=EDGE_LOOP('',(#745,#746,#747,#748));
#97=EDGE_LOOP('',(#749,#750,#751,#752));
#98=EDGE_LOOP('',(#753,#754,#755,#756));
#99=EDGE_LOOP('',(#757,#758,#759,#760));
#100=EDGE_LOOP('',(#761,#762,#763,#764));
#101=EDGE_LOOP('',(#765,#766,#767,#768));
#102=EDGE_LOOP('',(#769,#770,#771,#772));
#103=EDGE_LOOP('',(#773,#774,#775,#776));
#104=EDGE_LOOP('',(#777,#778,#779,#780));
#105=EDGE_LOOP('',(#781,#782,#783,#784));
#106=EDGE_LOOP('',(#785,#786,#787,#788));
#107=EDGE_LOOP('',(#789,#790,#791,#792,#793,#794,#795,#796,#797,#798,#799,
#800,#801,#802,#803,#804,#805,#806,#807,#808,#809,#810,#811,#812,#813,#814,
#815,#816,#817,#818,#819,#820,#821,#822,#823,#824,#825,#826,#827,#828,#829,
#830));
#108=EDGE_LOOP('',(#831,#832,#833,#834));
#109=EDGE_LOOP('',(#835,#836,#837,#838,#839,#840,#841,#842,#843,#844,#845,
#846,#847,#848,#849,#850,#851,#852,#853,#854,#855,#856,#857,#858,#859,#860,
#861,#862,#863,#864,#865,#866,#867,#868,#869,#870,#871,#872,#873,#874,#875,
#876));
#110=EDGE_LOOP('',(#877,#878,#879,#880));
#111=EDGE_LOOP('',(#881,#882,#883,#884));
#112=EDGE_LOOP('',(#885,#886,#887,#888));
#113=EDGE_LOOP('',(#889,#890,#891,#892));
#114=EDGE_LOOP('',(#893,#894,#895,#896));
#115=LINE('',#1300,#253);
#116=LINE('',#1302,#254);
#117=LINE('',#1304,#255);
#118=LINE('',#1305,#256);
#119=LINE('',#1308,#257);
#120=LINE('',#1310,#258);
#121=LINE('',#1311,#259);
#122=LINE('',#1314,#260);
#123=LINE('',#1316,#261);
#124=LINE('',#1317,#262);
#125=LINE('',#1320,#263);
#126=LINE('',#1322,#264);
#127=LINE('',#1323,#265);
#128=LINE('',#1326,#266);
#129=LINE('',#1328,#267);
#130=LINE('',#1329,#268);
#131=LINE('',#1333,#269);
#132=LINE('',#1335,#270);
#133=LINE('',#1337,#271);
#134=LINE('',#1338,#272);
#135=LINE('',#1342,#273);
#136=LINE('',#1344,#274);
#137=LINE('',#1346,#275);
#138=LINE('',#1347,#276);
#139=LINE('',#1349,#277);
#140=LINE('',#1350,#278);
#141=LINE('',#1353,#279);
#142=LINE('',#1355,#280);
#143=LINE('',#1356,#281);
#144=LINE('',#1359,#282);
#145=LINE('',#1361,#283);
#146=LINE('',#1362,#284);
#147=LINE('',#1366,#285);
#148=LINE('',#1368,#286);
#149=LINE('',#1370,#287);
#150=LINE('',#1371,#288);
#151=LINE('',#1375,#289);
#152=LINE('',#1377,#290);
#153=LINE('',#1379,#291);
#154=LINE('',#1380,#292);
#155=LINE('',#1382,#293);
#156=LINE('',#1383,#294);
#157=LINE('',#1386,#295);
#158=LINE('',#1388,#296);
#159=LINE('',#1389,#297);
#160=LINE('',#1392,#298);
#161=LINE('',#1394,#299);
#162=LINE('',#1395,#300);
#163=LINE('',#1398,#301);
#164=LINE('',#1400,#302);
#165=LINE('',#1401,#303);
#166=LINE('',#1405,#304);
#167=LINE('',#1407,#305);
#168=LINE('',#1409,#306);
#169=LINE('',#1410,#307);
#170=LINE('',#1412,#308);
#171=LINE('',#1413,#309);
#172=LINE('',#1416,#310);
#173=LINE('',#1418,#311);
#174=LINE('',#1419,#312);
#175=LINE('',#1422,#313);
#176=LINE('',#1424,#314);
#177=LINE('',#1425,#315);
#178=LINE('',#1429,#316);
#179=LINE('',#1431,#317);
#180=LINE('',#1433,#318);
#181=LINE('',#1434,#319);
#182=LINE('',#1436,#320);
#183=LINE('',#1437,#321);
#184=LINE('',#1440,#322);
#185=LINE('',#1442,#323);
#186=LINE('',#1443,#324);
#187=LINE('',#1447,#325);
#188=LINE('',#1449,#326);
#189=LINE('',#1451,#327);
#190=LINE('',#1452,#328);
#191=LINE('',#1455,#329);
#192=LINE('',#1457,#330);
#193=LINE('',#1458,#331);
#194=LINE('',#1460,#332);
#195=LINE('',#1461,#333);
#196=LINE('',#1464,#334);
#197=LINE('',#1466,#335);
#198=LINE('',#1467,#336);
#199=LINE('',#1471,#337);
#200=LINE('',#1473,#338);
#201=LINE('',#1475,#339);
#202=LINE('',#1476,#340);
#203=LINE('',#1479,#341);
#204=LINE('',#1481,#342);
#205=LINE('',#1482,#343);
#206=LINE('',#1484,#344);
#207=LINE('',#1485,#345);
#208=LINE('',#1488,#346);
#209=LINE('',#1490,#347);
#210=LINE('',#1491,#348);
#211=LINE('',#1494,#349);
#212=LINE('',#1496,#350);
#213=LINE('',#1497,#351);
#214=LINE('',#1500,#352);
#215=LINE('',#1502,#353);
#216=LINE('',#1503,#354);
#217=LINE('',#1506,#355);
#218=LINE('',#1508,#356);
#219=LINE('',#1509,#357);
#220=LINE('',#1512,#358);
#221=LINE('',#1514,#359);
#222=LINE('',#1515,#360);
#223=LINE('',#1517,#361);
#224=LINE('',#1518,#362);
#225=LINE('',#1521,#363);
#226=LINE('',#1523,#364);
#227=LINE('',#1524,#365);
#228=LINE('',#1527,#366);
#229=LINE('',#1529,#367);
#230=LINE('',#1530,#368);
#231=LINE('',#1532,#369);
#232=LINE('',#1533,#370);
#233=LINE('',#1537,#371);
#234=LINE('',#1539,#372);
#235=LINE('',#1541,#373);
#236=LINE('',#1542,#374);
#237=LINE('',#1545,#375);
#238=LINE('',#1547,#376);
#239=LINE('',#1549,#377);
#240=LINE('',#1550,#378);
#241=LINE('',#1552,#379);
#242=LINE('',#1553,#380);
#243=LINE('',#1555,#381);
#244=LINE('',#1557,#382);
#245=LINE('',#1562,#383);
#246=LINE('',#1563,#384);
#247=LINE('',#1564,#385);
#248=LINE('',#1567,#386);
#249=LINE('',#1568,#387);
#250=LINE('',#1571,#388);
#251=LINE('',#1572,#389);
#252=LINE('',#1574,#390);
#253=VECTOR('',#1062,10.);
#254=VECTOR('',#1063,10.);
#255=VECTOR('',#1064,10.);
#256=VECTOR('',#1065,10.);
#257=VECTOR('',#1068,10.);
#258=VECTOR('',#1069,10.);
#259=VECTOR('',#1070,10.);
#260=VECTOR('',#1073,10.);
#261=VECTOR('',#1074,10.);
#262=VECTOR('',#1075,10.);
#263=VECTOR('',#1078,10.);
#264=VECTOR('',#1079,10.);
#265=VECTOR('',#1080,10.);
#266=VECTOR('',#1083,10.);
#267=VECTOR('',#1084,10.);
#268=VECTOR('',#1085,10.);
#269=VECTOR('',#1088,10.);
#270=VECTOR('',#1089,10.);
#271=VECTOR('',#1090,10.);
#272=VECTOR('',#1091,10.);
#273=VECTOR('',#1094,10.);
#274=VECTOR('',#1095,10.);
#275=VECTOR('',#1096,10.);
#276=VECTOR('',#1097,10.);
#277=VECTOR('',#1100,10.);
#278=VECTOR('',#1101,10.);
#279=VECTOR('',#1104,10.);
#280=VECTOR('',#1105,10.);
#281=VECTOR('',#1106,10.);
#282=VECTOR('',#1109,10.);
#283=VECTOR('',#1110,10.);
#284=VECTOR('',#1111,10.);
#285=VECTOR('',#1114,10.);
#286=VECTOR('',#1115,10.);
#287=VECTOR('',#1116,10.);
#288=VECTOR('',#1117,10.);
#289=VECTOR('',#1120,10.);
#290=VECTOR('',#1121,10.);
#291=VECTOR('',#1122,10.);
#292=VECTOR('',#1123,10.);
#293=VECTOR('',#1126,10.);
#294=VECTOR('',#1127,10.);
#295=VECTOR('',#1130,10.);
#296=VECTOR('',#1131,10.);
#297=VECTOR('',#1132,10.);
#298=VECTOR('',#1135,10.);
#299=VECTOR('',#1136,10.);
#300=VECTOR('',#1137,10.);
#301=VECTOR('',#1140,10.);
#302=VECTOR('',#1141,10.);
#303=VECTOR('',#1142,10.);
#304=VECTOR('',#1145,10.);
#305=VECTOR('',#1146,10.);
#306=VECTOR('',#1147,10.);
#307=VECTOR('',#1148,10.);
#308=VECTOR('',#1151,10.);
#309=VECTOR('',#1152,10.);
#310=VECTOR('',#1155,10.);
#311=VECTOR('',#1156,10.);
#312=VECTOR('',#1157,10.);
#313=VECTOR('',#1160,10.);
#314=VECTOR('',#1161,10.);
#315=VECTOR('',#1162,10.);
#316=VECTOR('',#1165,10.);
#317=VECTOR('',#1166,10.);
#318=VECTOR('',#1167,10.);
#319=VECTOR('',#1168,10.);
#320=VECTOR('',#1171,10.);
#321=VECTOR('',#1172,10.);
#322=VECTOR('',#1175,10.);
#323=VECTOR('',#1176,10.);
#324=VECTOR('',#1177,10.);
#325=VECTOR('',#1180,10.);
#326=VECTOR('',#1181,10.);
#327=VECTOR('',#1182,10.);
#328=VECTOR('',#1183,10.);
#329=VECTOR('',#1186,10.);
#330=VECTOR('',#1187,10.);
#331=VECTOR('',#1188,10.);
#332=VECTOR('',#1191,10.);
#333=VECTOR('',#1192,10.);
#334=VECTOR('',#1195,10.);
#335=VECTOR('',#1196,10.);
#336=VECTOR('',#1197,10.);
#337=VECTOR('',#1200,10.);
#338=VECTOR('',#1201,10.);
#339=VECTOR('',#1202,10.);
#340=VECTOR('',#1203,10.);
#341=VECTOR('',#1206,10.);
#342=VECTOR('',#1207,10.);
#343=VECTOR('',#1208,10.);
#344=VECTOR('',#1211,10.);
#345=VECTOR('',#1212,10.);
#346=VECTOR('',#1215,10.);
#347=VECTOR('',#1216,10.);
#348=VECTOR('',#1217,10.);
#349=VECTOR('',#1220,10.);
#350=VECTOR('',#1221,10.);
#351=VECTOR('',#1222,10.);
#352=VECTOR('',#1225,10.);
#353=VECTOR('',#1226,10.);
#354=VECTOR('',#1227,10.);
#355=VECTOR('',#1230,10.);
#356=VECTOR('',#1231,10.);
#357=VECTOR('',#1232,10.);
#358=VECTOR('',#1235,10.);
#359=VECTOR('',#1236,10.);
#360=VECTOR('',#1237,10.);
#361=VECTOR('',#1240,10.);
#362=VECTOR('',#1241,10.);
#363=VECTOR('',#1244,10.);
#364=VECTOR('',#1245,10.);
#365=VECTOR('',#1246,10.);
#366=VECTOR('',#1249,10.);
#367=VECTOR('',#1250,10.);
#368=VECTOR('',#1251,10.);
#369=VECTOR('',#1254,10.);
#370=VECTOR('',#1255,10.);
#371=VECTOR('',#1258,10.);
#372=VECTOR('',#1259,10.);
#373=VECTOR('',#1260,10.);
#374=VECTOR('',#1261,10.);
#375=VECTOR('',#1262,10.);
#376=VECTOR('',#1263,10.);
#377=VECTOR('',#1264,10.);
#378=VECTOR('',#1265,10.);
#379=VECTOR('',#1268,10.);
#380=VECTOR('',#1269,10.);
#381=VECTOR('',#1272,10.);
#382=VECTOR('',#1275,10.);
#383=VECTOR('',#1280,10.);
#384=VECTOR('',#1281,10.);
#385=VECTOR('',#1282,10.);
#386=VECTOR('',#1285,10.);
#387=VECTOR('',#1286,10.);
#388=VECTOR('',#1289,10.);
#389=VECTOR('',#1290,10.);
#390=VECTOR('',#1293,10.);
#391=VERTEX_POINT('',#1298);
#392=VERTEX_POINT('',#1299);
#393=VERTEX_POINT('',#1301);
#394=VERTEX_POINT('',#1303);
#395=VERTEX_POINT('',#1307);
#396=VERTEX_POINT('',#1309);
#397=VERTEX_POINT('',#1313);
#398=VERTEX_POINT('',#1315);
#399=VERTEX_POINT('',#1319);
#400=VERTEX_POINT('',#1321);
#401=VERTEX_POINT('',#1325);
#402=VERTEX_POINT('',#1327);
#403=VERTEX_POINT('',#1331);
#404=VERTEX_POINT('',#1332);
#405=VERTEX_POINT('',#1334);
#406=VERTEX_POINT('',#1336);
#407=VERTEX_POINT('',#1340);
#408=VERTEX_POINT('',#1341);
#409=VERTEX_POINT('',#1343);
#410=VERTEX_POINT('',#1345);
#411=VERTEX_POINT('',#1352);
#412=VERTEX_POINT('',#1354);
#413=VERTEX_POINT('',#1358);
#414=VERTEX_POINT('',#1360);
#415=VERTEX_POINT('',#1364);
#416=VERTEX_POINT('',#1365);
#417=VERTEX_POINT('',#1367);
#418=VERTEX_POINT('',#1369);
#419=VERTEX_POINT('',#1373);
#420=VERTEX_POINT('',#1374);
#421=VERTEX_POINT('',#1376);
#422=VERTEX_POINT('',#1378);
#423=VERTEX_POINT('',#1385);
#424=VERTEX_POINT('',#1387);
#425=VERTEX_POINT('',#1391);
#426=VERTEX_POINT('',#1393);
#427=VERTEX_POINT('',#1397);
#428=VERTEX_POINT('',#1399);
#429=VERTEX_POINT('',#1403);
#430=VERTEX_POINT('',#1404);
#431=VERTEX_POINT('',#1406);
#432=VERTEX_POINT('',#1408);
#433=VERTEX_POINT('',#1415);
#434=VERTEX_POINT('',#1417);
#435=VERTEX_POINT('',#1421);
#436=VERTEX_POINT('',#1423);
#437=VERTEX_POINT('',#1427);
#438=VERTEX_POINT('',#1428);
#439=VERTEX_POINT('',#1430);
#440=VERTEX_POINT('',#1432);
#441=VERTEX_POINT('',#1439);
#442=VERTEX_POINT('',#1441);
#443=VERTEX_POINT('',#1445);
#444=VERTEX_POINT('',#1446);
#445=VERTEX_POINT('',#1448);
#446=VERTEX_POINT('',#1450);
#447=VERTEX_POINT('',#1454);
#448=VERTEX_POINT('',#1456);
#449=VERTEX_POINT('',#1463);
#450=VERTEX_POINT('',#1465);
#451=VERTEX_POINT('',#1469);
#452=VERTEX_POINT('',#1470);
#453=VERTEX_POINT('',#1472);
#454=VERTEX_POINT('',#1474);
#455=VERTEX_POINT('',#1478);
#456=VERTEX_POINT('',#1480);
#457=VERTEX_POINT('',#1487);
#458=VERTEX_POINT('',#1489);
#459=VERTEX_POINT('',#1493);
#460=VERTEX_POINT('',#1495);
#461=VERTEX_POINT('',#1499);
#462=VERTEX_POINT('',#1501);
#463=VERTEX_POINT('',#1505);
#464=VERTEX_POINT('',#1507);
#465=VERTEX_POINT('',#1511);
#466=VERTEX_POINT('',#1513);
#467=VERTEX_POINT('',#1520);
#468=VERTEX_POINT('',#1522);
#469=VERTEX_POINT('',#1526);
#470=VERTEX_POINT('',#1528);
#471=VERTEX_POINT('',#1535);
#472=VERTEX_POINT('',#1536);
#473=VERTEX_POINT('',#1538);
#474=VERTEX_POINT('',#1540);
#475=VERTEX_POINT('',#1543);
#476=VERTEX_POINT('',#1544);
#477=VERTEX_POINT('',#1546);
#478=VERTEX_POINT('',#1548);
#479=VERTEX_POINT('',#1560);
#480=VERTEX_POINT('',#1561);
#481=VERTEX_POINT('',#1566);
#482=VERTEX_POINT('',#1570);
#483=EDGE_CURVE('',#391,#392,#115,.T.);
#484=EDGE_CURVE('',#392,#393,#116,.T.);
#485=EDGE_CURVE('',#394,#393,#117,.T.);
#486=EDGE_CURVE('',#391,#394,#118,.T.);
#487=EDGE_CURVE('',#395,#391,#119,.T.);
#488=EDGE_CURVE('',#396,#394,#120,.T.);
#489=EDGE_CURVE('',#395,#396,#121,.T.);
#490=EDGE_CURVE('',#392,#397,#122,.T.);
#491=EDGE_CURVE('',#398,#397,#123,.T.);
#492=EDGE_CURVE('',#393,#398,#124,.T.);
#493=EDGE_CURVE('',#396,#399,#125,.T.);
#494=EDGE_CURVE('',#399,#400,#126,.T.);
#495=EDGE_CURVE('',#400,#395,#127,.T.);
#496=EDGE_CURVE('',#397,#401,#128,.T.);
#497=EDGE_CURVE('',#401,#402,#129,.T.);
#498=EDGE_CURVE('',#402,#398,#130,.T.);
#499=EDGE_CURVE('',#403,#404,#131,.T.);
#500=EDGE_CURVE('',#404,#405,#132,.T.);
#501=EDGE_CURVE('',#406,#405,#133,.T.);
#502=EDGE_CURVE('',#403,#406,#134,.T.);
#503=EDGE_CURVE('',#407,#408,#135,.T.);
#504=EDGE_CURVE('',#409,#408,#136,.T.);
#505=EDGE_CURVE('',#410,#409,#137,.T.);
#506=EDGE_CURVE('',#407,#410,#138,.T.);
#507=EDGE_CURVE('',#404,#407,#139,.T.);
#508=EDGE_CURVE('',#405,#410,#140,.T.);
#509=EDGE_CURVE('',#406,#411,#141,.T.);
#510=EDGE_CURVE('',#411,#412,#142,.T.);
#511=EDGE_CURVE('',#412,#403,#143,.T.);
#512=EDGE_CURVE('',#408,#413,#144,.T.);
#513=EDGE_CURVE('',#413,#414,#145,.T.);
#514=EDGE_CURVE('',#414,#409,#146,.T.);
#515=EDGE_CURVE('',#415,#416,#147,.T.);
#516=EDGE_CURVE('',#416,#417,#148,.T.);
#517=EDGE_CURVE('',#418,#417,#149,.T.);
#518=EDGE_CURVE('',#415,#418,#150,.T.);
#519=EDGE_CURVE('',#419,#420,#151,.T.);
#520=EDGE_CURVE('',#421,#420,#152,.T.);
#521=EDGE_CURVE('',#422,#421,#153,.T.);
#522=EDGE_CURVE('',#419,#422,#154,.T.);
#523=EDGE_CURVE('',#416,#419,#155,.T.);
#524=EDGE_CURVE('',#417,#422,#156,.T.);
#525=EDGE_CURVE('',#418,#423,#157,.T.);
#526=EDGE_CURVE('',#423,#424,#158,.T.);
#527=EDGE_CURVE('',#424,#415,#159,.T.);
#528=EDGE_CURVE('',#420,#425,#160,.T.);
#529=EDGE_CURVE('',#425,#426,#161,.T.);
#530=EDGE_CURVE('',#426,#421,#162,.T.);
#531=EDGE_CURVE('',#425,#427,#163,.T.);
#532=EDGE_CURVE('',#427,#428,#164,.T.);
#533=EDGE_CURVE('',#426,#428,#165,.T.);
#534=EDGE_CURVE('',#429,#430,#166,.T.);
#535=EDGE_CURVE('',#431,#430,#167,.T.);
#536=EDGE_CURVE('',#432,#431,#168,.T.);
#537=EDGE_CURVE('',#429,#432,#169,.T.);
#538=EDGE_CURVE('',#427,#429,#170,.T.);
#539=EDGE_CURVE('',#428,#432,#171,.T.);
#540=EDGE_CURVE('',#430,#433,#172,.T.);
#541=EDGE_CURVE('',#433,#434,#173,.T.);
#542=EDGE_CURVE('',#434,#431,#174,.T.);
#543=EDGE_CURVE('',#413,#435,#175,.T.);
#544=EDGE_CURVE('',#435,#436,#176,.T.);
#545=EDGE_CURVE('',#414,#436,#177,.T.);
#546=EDGE_CURVE('',#437,#438,#178,.T.);
#547=EDGE_CURVE('',#439,#438,#179,.T.);
#548=EDGE_CURVE('',#440,#439,#180,.T.);
#549=EDGE_CURVE('',#437,#440,#181,.T.);
#550=EDGE_CURVE('',#435,#437,#182,.T.);
#551=EDGE_CURVE('',#436,#440,#183,.T.);
#552=EDGE_CURVE('',#438,#441,#184,.T.);
#553=EDGE_CURVE('',#441,#442,#185,.T.);
#554=EDGE_CURVE('',#442,#439,#186,.T.);
#555=EDGE_CURVE('',#443,#444,#187,.T.);
#556=EDGE_CURVE('',#444,#445,#188,.T.);
#557=EDGE_CURVE('',#446,#445,#189,.T.);
#558=EDGE_CURVE('',#443,#446,#190,.T.);
#559=EDGE_CURVE('',#447,#400,#191,.T.);
#560=EDGE_CURVE('',#448,#399,#192,.T.);
#561=EDGE_CURVE('',#447,#448,#193,.T.);
#562=EDGE_CURVE('',#444,#447,#194,.T.);
#563=EDGE_CURVE('',#445,#448,#195,.T.);
#564=EDGE_CURVE('',#446,#449,#196,.T.);
#565=EDGE_CURVE('',#449,#450,#197,.T.);
#566=EDGE_CURVE('',#450,#443,#198,.T.);
#567=EDGE_CURVE('',#451,#452,#199,.T.);
#568=EDGE_CURVE('',#452,#453,#200,.T.);
#569=EDGE_CURVE('',#454,#453,#201,.T.);
#570=EDGE_CURVE('',#451,#454,#202,.T.);
#571=EDGE_CURVE('',#455,#412,#203,.T.);
#572=EDGE_CURVE('',#456,#411,#204,.T.);
#573=EDGE_CURVE('',#455,#456,#205,.T.);
#574=EDGE_CURVE('',#452,#455,#206,.T.);
#575=EDGE_CURVE('',#453,#456,#207,.T.);
#576=EDGE_CURVE('',#454,#457,#208,.T.);
#577=EDGE_CURVE('',#457,#458,#209,.T.);
#578=EDGE_CURVE('',#458,#451,#210,.T.);
#579=EDGE_CURVE('',#459,#424,#211,.T.);
#580=EDGE_CURVE('',#460,#423,#212,.T.);
#581=EDGE_CURVE('',#459,#460,#213,.T.);
#582=EDGE_CURVE('',#461,#459,#214,.T.);
#583=EDGE_CURVE('',#462,#460,#215,.T.);
#584=EDGE_CURVE('',#461,#462,#216,.T.);
#585=EDGE_CURVE('',#433,#463,#217,.T.);
#586=EDGE_CURVE('',#463,#464,#218,.T.);
#587=EDGE_CURVE('',#434,#464,#219,.T.);
#588=EDGE_CURVE('',#465,#458,#220,.T.);
#589=EDGE_CURVE('',#466,#457,#221,.T.);
#590=EDGE_CURVE('',#465,#466,#222,.T.);
#591=EDGE_CURVE('',#463,#465,#223,.T.);
#592=EDGE_CURVE('',#464,#466,#224,.T.);
#593=EDGE_CURVE('',#441,#467,#225,.T.);
#594=EDGE_CURVE('',#467,#468,#226,.T.);
#595=EDGE_CURVE('',#442,#468,#227,.T.);
#596=EDGE_CURVE('',#469,#450,#228,.T.);
#597=EDGE_CURVE('',#470,#449,#229,.T.);
#598=EDGE_CURVE('',#469,#470,#230,.T.);
#599=EDGE_CURVE('',#467,#469,#231,.T.);
#600=EDGE_CURVE('',#468,#470,#232,.T.);
#601=EDGE_CURVE('',#471,#472,#233,.T.);
#602=EDGE_CURVE('',#473,#471,#234,.T.);
#603=EDGE_CURVE('',#474,#473,#235,.T.);
#604=EDGE_CURVE('',#472,#474,#236,.T.);
#605=EDGE_CURVE('',#475,#476,#237,.T.);
#606=EDGE_CURVE('',#476,#477,#238,.T.);
#607=EDGE_CURVE('',#477,#478,#239,.T.);
#608=EDGE_CURVE('',#478,#475,#240,.T.);
#609=EDGE_CURVE('',#471,#402,#241,.T.);
#610=EDGE_CURVE('',#473,#401,#242,.T.);
#611=EDGE_CURVE('',#474,#461,#243,.T.);
#612=EDGE_CURVE('',#472,#462,#244,.T.);
#613=EDGE_CURVE('',#479,#480,#245,.T.);
#614=EDGE_CURVE('',#479,#476,#246,.T.);
#615=EDGE_CURVE('',#480,#475,#247,.T.);
#616=EDGE_CURVE('',#480,#481,#248,.T.);
#617=EDGE_CURVE('',#481,#478,#249,.T.);
#618=EDGE_CURVE('',#481,#482,#250,.T.);
#619=EDGE_CURVE('',#482,#477,#251,.T.);
#620=EDGE_CURVE('',#482,#479,#252,.T.);
#621=ORIENTED_EDGE('',*,*,#483,.T.);
#622=ORIENTED_EDGE('',*,*,#484,.T.);
#623=ORIENTED_EDGE('',*,*,#485,.F.);
#624=ORIENTED_EDGE('',*,*,#486,.F.);
#625=ORIENTED_EDGE('',*,*,#487,.T.);
#626=ORIENTED_EDGE('',*,*,#486,.T.);
#627=ORIENTED_EDGE('',*,*,#488,.F.);
#628=ORIENTED_EDGE('',*,*,#489,.F.);
#629=ORIENTED_EDGE('',*,*,#490,.T.);
#630=ORIENTED_EDGE('',*,*,#491,.F.);
#631=ORIENTED_EDGE('',*,*,#492,.F.);
#632=ORIENTED_EDGE('',*,*,#484,.F.);
#633=ORIENTED_EDGE('',*,*,#489,.T.);
#634=ORIENTED_EDGE('',*,*,#493,.T.);
#635=ORIENTED_EDGE('',*,*,#494,.T.);
#636=ORIENTED_EDGE('',*,*,#495,.T.);
#637=ORIENTED_EDGE('',*,*,#491,.T.);
#638=ORIENTED_EDGE('',*,*,#496,.T.);
#639=ORIENTED_EDGE('',*,*,#497,.T.);
#640=ORIENTED_EDGE('',*,*,#498,.T.);
#641=ORIENTED_EDGE('',*,*,#499,.T.);
#642=ORIENTED_EDGE('',*,*,#500,.T.);
#643=ORIENTED_EDGE('',*,*,#501,.F.);
#644=ORIENTED_EDGE('',*,*,#502,.F.);
#645=ORIENTED_EDGE('',*,*,#503,.T.);
#646=ORIENTED_EDGE('',*,*,#504,.F.);
#647=ORIENTED_EDGE('',*,*,#505,.F.);
#648=ORIENTED_EDGE('',*,*,#506,.F.);
#649=ORIENTED_EDGE('',*,*,#507,.T.);
#650=ORIENTED_EDGE('',*,*,#506,.T.);
#651=ORIENTED_EDGE('',*,*,#508,.F.);
#652=ORIENTED_EDGE('',*,*,#500,.F.);
#653=ORIENTED_EDGE('',*,*,#502,.T.);
#654=ORIENTED_EDGE('',*,*,#509,.T.);
#655=ORIENTED_EDGE('',*,*,#510,.T.);
#656=ORIENTED_EDGE('',*,*,#511,.T.);
#657=ORIENTED_EDGE('',*,*,#504,.T.);
#658=ORIENTED_EDGE('',*,*,#512,.T.);
#659=ORIENTED_EDGE('',*,*,#513,.T.);
#660=ORIENTED_EDGE('',*,*,#514,.T.);
#661=ORIENTED_EDGE('',*,*,#515,.T.);
#662=ORIENTED_EDGE('',*,*,#516,.T.);
#663=ORIENTED_EDGE('',*,*,#517,.F.);
#664=ORIENTED_EDGE('',*,*,#518,.F.);
#665=ORIENTED_EDGE('',*,*,#519,.T.);
#666=ORIENTED_EDGE('',*,*,#520,.F.);
#667=ORIENTED_EDGE('',*,*,#521,.F.);
#668=ORIENTED_EDGE('',*,*,#522,.F.);
#669=ORIENTED_EDGE('',*,*,#523,.T.);
#670=ORIENTED_EDGE('',*,*,#522,.T.);
#671=ORIENTED_EDGE('',*,*,#524,.F.);
#672=ORIENTED_EDGE('',*,*,#516,.F.);
#673=ORIENTED_EDGE('',*,*,#518,.T.);
#674=ORIENTED_EDGE('',*,*,#525,.T.);
#675=ORIENTED_EDGE('',*,*,#526,.T.);
#676=ORIENTED_EDGE('',*,*,#527,.T.);
#677=ORIENTED_EDGE('',*,*,#520,.T.);
#678=ORIENTED_EDGE('',*,*,#528,.T.);
#679=ORIENTED_EDGE('',*,*,#529,.T.);
#680=ORIENTED_EDGE('',*,*,#530,.T.);
#681=ORIENTED_EDGE('',*,*,#531,.T.);
#682=ORIENTED_EDGE('',*,*,#532,.T.);
#683=ORIENTED_EDGE('',*,*,#533,.F.);
#684=ORIENTED_EDGE('',*,*,#529,.F.);
#685=ORIENTED_EDGE('',*,*,#534,.T.);
#686=ORIENTED_EDGE('',*,*,#535,.F.);
#687=ORIENTED_EDGE('',*,*,#536,.F.);
#688=ORIENTED_EDGE('',*,*,#537,.F.);
#689=ORIENTED_EDGE('',*,*,#538,.T.);
#690=ORIENTED_EDGE('',*,*,#537,.T.);
#691=ORIENTED_EDGE('',*,*,#539,.F.);
#692=ORIENTED_EDGE('',*,*,#532,.F.);
#693=ORIENTED_EDGE('',*,*,#535,.T.);
#694=ORIENTED_EDGE('',*,*,#540,.T.);
#695=ORIENTED_EDGE('',*,*,#541,.T.);
#696=ORIENTED_EDGE('',*,*,#542,.T.);
#697=ORIENTED_EDGE('',*,*,#543,.T.);
#698=ORIENTED_EDGE('',*,*,#544,.T.);
#699=ORIENTED_EDGE('',*,*,#545,.F.);
#700=ORIENTED_EDGE('',*,*,#513,.F.);
#701=ORIENTED_EDGE('',*,*,#546,.T.);
#702=ORIENTED_EDGE('',*,*,#547,.F.);
#703=ORIENTED_EDGE('',*,*,#548,.F.);
#704=ORIENTED_EDGE('',*,*,#549,.F.);
#705=ORIENTED_EDGE('',*,*,#550,.T.);
#706=ORIENTED_EDGE('',*,*,#549,.T.);
#707=ORIENTED_EDGE('',*,*,#551,.F.);
#708=ORIENTED_EDGE('',*,*,#544,.F.);
#709=ORIENTED_EDGE('',*,*,#547,.T.);
#710=ORIENTED_EDGE('',*,*,#552,.T.);
#711=ORIENTED_EDGE('',*,*,#553,.T.);
#712=ORIENTED_EDGE('',*,*,#554,.T.);
#713=ORIENTED_EDGE('',*,*,#555,.T.);
#714=ORIENTED_EDGE('',*,*,#556,.T.);
#715=ORIENTED_EDGE('',*,*,#557,.F.);
#716=ORIENTED_EDGE('',*,*,#558,.F.);
#717=ORIENTED_EDGE('',*,*,#559,.T.);
#718=ORIENTED_EDGE('',*,*,#494,.F.);
#719=ORIENTED_EDGE('',*,*,#560,.F.);
#720=ORIENTED_EDGE('',*,*,#561,.F.);
#721=ORIENTED_EDGE('',*,*,#562,.T.);
#722=ORIENTED_EDGE('',*,*,#561,.T.);
#723=ORIENTED_EDGE('',*,*,#563,.F.);
#724=ORIENTED_EDGE('',*,*,#556,.F.);
#725=ORIENTED_EDGE('',*,*,#558,.T.);
#726=ORIENTED_EDGE('',*,*,#564,.T.);
#727=ORIENTED_EDGE('',*,*,#565,.T.);
#728=ORIENTED_EDGE('',*,*,#566,.T.);
#729=ORIENTED_EDGE('',*,*,#567,.T.);
#730=ORIENTED_EDGE('',*,*,#568,.T.);
#731=ORIENTED_EDGE('',*,*,#569,.F.);
#732=ORIENTED_EDGE('',*,*,#570,.F.);
#733=ORIENTED_EDGE('',*,*,#571,.T.);
#734=ORIENTED_EDGE('',*,*,#510,.F.);
#735=ORIENTED_EDGE('',*,*,#572,.F.);
#736=ORIENTED_EDGE('',*,*,#573,.F.);
#737=ORIENTED_EDGE('',*,*,#574,.T.);
#738=ORIENTED_EDGE('',*,*,#573,.T.);
#739=ORIENTED_EDGE('',*,*,#575,.F.);
#740=ORIENTED_EDGE('',*,*,#568,.F.);
#741=ORIENTED_EDGE('',*,*,#570,.T.);
#742=ORIENTED_EDGE('',*,*,#576,.T.);
#743=ORIENTED_EDGE('',*,*,#577,.T.);
#744=ORIENTED_EDGE('',*,*,#578,.T.);
#745=ORIENTED_EDGE('',*,*,#579,.T.);
#746=ORIENTED_EDGE('',*,*,#526,.F.);
#747=ORIENTED_EDGE('',*,*,#580,.F.);
#748=ORIENTED_EDGE('',*,*,#581,.F.);
#749=ORIENTED_EDGE('',*,*,#582,.T.);
#750=ORIENTED_EDGE('',*,*,#581,.T.);
#751=ORIENTED_EDGE('',*,*,#583,.F.);
#752=ORIENTED_EDGE('',*,*,#584,.F.);
#753=ORIENTED_EDGE('',*,*,#585,.T.);
#754=ORIENTED_EDGE('',*,*,#586,.T.);
#755=ORIENTED_EDGE('',*,*,#587,.F.);
#756=ORIENTED_EDGE('',*,*,#541,.F.);
#757=ORIENTED_EDGE('',*,*,#588,.T.);
#758=ORIENTED_EDGE('',*,*,#577,.F.);
#759=ORIENTED_EDGE('',*,*,#589,.F.);
#760=ORIENTED_EDGE('',*,*,#590,.F.);
#761=ORIENTED_EDGE('',*,*,#591,.T.);
#762=ORIENTED_EDGE('',*,*,#590,.T.);
#763=ORIENTED_EDGE('',*,*,#592,.F.);
#764=ORIENTED_EDGE('',*,*,#586,.F.);
#765=ORIENTED_EDGE('',*,*,#593,.T.);
#766=ORIENTED_EDGE('',*,*,#594,.T.);
#767=ORIENTED_EDGE('',*,*,#595,.F.);
#768=ORIENTED_EDGE('',*,*,#553,.F.);
#769=ORIENTED_EDGE('',*,*,#596,.T.);
#770=ORIENTED_EDGE('',*,*,#565,.F.);
#771=ORIENTED_EDGE('',*,*,#597,.F.);
#772=ORIENTED_EDGE('',*,*,#598,.F.);
#773=ORIENTED_EDGE('',*,*,#599,.T.);
#774=ORIENTED_EDGE('',*,*,#598,.T.);
#775=ORIENTED_EDGE('',*,*,#600,.F.);
#776=ORIENTED_EDGE('',*,*,#594,.F.);
#777=ORIENTED_EDGE('',*,*,#601,.F.);
#778=ORIENTED_EDGE('',*,*,#602,.F.);
#779=ORIENTED_EDGE('',*,*,#603,.F.);
#780=ORIENTED_EDGE('',*,*,#604,.F.);
#781=ORIENTED_EDGE('',*,*,#605,.T.);
#782=ORIENTED_EDGE('',*,*,#606,.T.);
#783=ORIENTED_EDGE('',*,*,#607,.T.);
#784=ORIENTED_EDGE('',*,*,#608,.T.);
#785=ORIENTED_EDGE('',*,*,#602,.T.);
#786=ORIENTED_EDGE('',*,*,#609,.T.);
#787=ORIENTED_EDGE('',*,*,#497,.F.);
#788=ORIENTED_EDGE('',*,*,#610,.F.);
#789=ORIENTED_EDGE('',*,*,#603,.T.);
#790=ORIENTED_EDGE('',*,*,#610,.T.);
#791=ORIENTED_EDGE('',*,*,#496,.F.);
#792=ORIENTED_EDGE('',*,*,#490,.F.);
#793=ORIENTED_EDGE('',*,*,#483,.F.);
#794=ORIENTED_EDGE('',*,*,#487,.F.);
#795=ORIENTED_EDGE('',*,*,#495,.F.);
#796=ORIENTED_EDGE('',*,*,#559,.F.);
#797=ORIENTED_EDGE('',*,*,#562,.F.);
#798=ORIENTED_EDGE('',*,*,#555,.F.);
#799=ORIENTED_EDGE('',*,*,#566,.F.);
#800=ORIENTED_EDGE('',*,*,#596,.F.);
#801=ORIENTED_EDGE('',*,*,#599,.F.);
#802=ORIENTED_EDGE('',*,*,#593,.F.);
#803=ORIENTED_EDGE('',*,*,#552,.F.);
#804=ORIENTED_EDGE('',*,*,#546,.F.);
#805=ORIENTED_EDGE('',*,*,#550,.F.);
#806=ORIENTED_EDGE('',*,*,#543,.F.);
#807=ORIENTED_EDGE('',*,*,#512,.F.);
#808=ORIENTED_EDGE('',*,*,#503,.F.);
#809=ORIENTED_EDGE('',*,*,#507,.F.);
#810=ORIENTED_EDGE('',*,*,#499,.F.);
#811=ORIENTED_EDGE('',*,*,#511,.F.);
#812=ORIENTED_EDGE('',*,*,#571,.F.);
#813=ORIENTED_EDGE('',*,*,#574,.F.);
#814=ORIENTED_EDGE('',*,*,#567,.F.);
#815=ORIENTED_EDGE('',*,*,#578,.F.);
#816=ORIENTED_EDGE('',*,*,#588,.F.);
#817=ORIENTED_EDGE('',*,*,#591,.F.);
#818=ORIENTED_EDGE('',*,*,#585,.F.);
#819=ORIENTED_EDGE('',*,*,#540,.F.);
#820=ORIENTED_EDGE('',*,*,#534,.F.);
#821=ORIENTED_EDGE('',*,*,#538,.F.);
#822=ORIENTED_EDGE('',*,*,#531,.F.);
#823=ORIENTED_EDGE('',*,*,#528,.F.);
#824=ORIENTED_EDGE('',*,*,#519,.F.);
#825=ORIENTED_EDGE('',*,*,#523,.F.);
#826=ORIENTED_EDGE('',*,*,#515,.F.);
#827=ORIENTED_EDGE('',*,*,#527,.F.);
#828=ORIENTED_EDGE('',*,*,#579,.F.);
#829=ORIENTED_EDGE('',*,*,#582,.F.);
#830=ORIENTED_EDGE('',*,*,#611,.F.);
#831=ORIENTED_EDGE('',*,*,#604,.T.);
#832=ORIENTED_EDGE('',*,*,#611,.T.);
#833=ORIENTED_EDGE('',*,*,#584,.T.);
#834=ORIENTED_EDGE('',*,*,#612,.F.);
#835=ORIENTED_EDGE('',*,*,#601,.T.);
#836=ORIENTED_EDGE('',*,*,#612,.T.);
#837=ORIENTED_EDGE('',*,*,#583,.T.);
#838=ORIENTED_EDGE('',*,*,#580,.T.);
#839=ORIENTED_EDGE('',*,*,#525,.F.);
#840=ORIENTED_EDGE('',*,*,#517,.T.);
#841=ORIENTED_EDGE('',*,*,#524,.T.);
#842=ORIENTED_EDGE('',*,*,#521,.T.);
#843=ORIENTED_EDGE('',*,*,#530,.F.);
#844=ORIENTED_EDGE('',*,*,#533,.T.);
#845=ORIENTED_EDGE('',*,*,#539,.T.);
#846=ORIENTED_EDGE('',*,*,#536,.T.);
#847=ORIENTED_EDGE('',*,*,#542,.F.);
#848=ORIENTED_EDGE('',*,*,#587,.T.);
#849=ORIENTED_EDGE('',*,*,#592,.T.);
#850=ORIENTED_EDGE('',*,*,#589,.T.);
#851=ORIENTED_EDGE('',*,*,#576,.F.);
#852=ORIENTED_EDGE('',*,*,#569,.T.);
#853=ORIENTED_EDGE('',*,*,#575,.T.);
#854=ORIENTED_EDGE('',*,*,#572,.T.);
#855=ORIENTED_EDGE('',*,*,#509,.F.);
#856=ORIENTED_EDGE('',*,*,#501,.T.);
#857=ORIENTED_EDGE('',*,*,#508,.T.);
#858=ORIENTED_EDGE('',*,*,#505,.T.);
#859=ORIENTED_EDGE('',*,*,#514,.F.);
#860=ORIENTED_EDGE('',*,*,#545,.T.);
#861=ORIENTED_EDGE('',*,*,#551,.T.);
#862=ORIENTED_EDGE('',*,*,#548,.T.);
#863=ORIENTED_EDGE('',*,*,#554,.F.);
#864=ORIENTED_EDGE('',*,*,#595,.T.);
#865=ORIENTED_EDGE('',*,*,#600,.T.);
#866=ORIENTED_EDGE('',*,*,#597,.T.);
#867=ORIENTED_EDGE('',*,*,#564,.F.);
#868=ORIENTED_EDGE('',*,*,#557,.T.);
#869=ORIENTED_EDGE('',*,*,#563,.T.);
#870=ORIENTED_EDGE('',*,*,#560,.T.);
#871=ORIENTED_EDGE('',*,*,#493,.F.);
#872=ORIENTED_EDGE('',*,*,#488,.T.);
#873=ORIENTED_EDGE('',*,*,#485,.T.);
#874=ORIENTED_EDGE('',*,*,#492,.T.);
#875=ORIENTED_EDGE('',*,*,#498,.F.);
#876=ORIENTED_EDGE('',*,*,#609,.F.);
#877=ORIENTED_EDGE('',*,*,#613,.F.);
#878=ORIENTED_EDGE('',*,*,#614,.T.);
#879=ORIENTED_EDGE('',*,*,#605,.F.);
#880=ORIENTED_EDGE('',*,*,#615,.F.);
#881=ORIENTED_EDGE('',*,*,#616,.F.);
#882=ORIENTED_EDGE('',*,*,#615,.T.);
#883=ORIENTED_EDGE('',*,*,#608,.F.);
#884=ORIENTED_EDGE('',*,*,#617,.F.);
#885=ORIENTED_EDGE('',*,*,#618,.F.);
#886=ORIENTED_EDGE('',*,*,#617,.T.);
#887=ORIENTED_EDGE('',*,*,#607,.F.);
#888=ORIENTED_EDGE('',*,*,#619,.F.);
#889=ORIENTED_EDGE('',*,*,#620,.F.);
#890=ORIENTED_EDGE('',*,*,#619,.T.);
#891=ORIENTED_EDGE('',*,*,#606,.F.);
#892=ORIENTED_EDGE('',*,*,#614,.F.);
#893=ORIENTED_EDGE('',*,*,#620,.T.);
#894=ORIENTED_EDGE('',*,*,#613,.T.);
#895=ORIENTED_EDGE('',*,*,#616,.T.);
#896=ORIENTED_EDGE('',*,*,#618,.T.);
#897=PLANE('',#1009);
#898=PLANE('',#1010);
#899=PLANE('',#1011);
#900=PLANE('',#1012);
#901=PLANE('',#1013);
#902=PLANE('',#1014);
#903=PLANE('',#1015);
#904=PLANE('',#1016);
#905=PLANE('',#1017);
#906=PLANE('',#1018);
#907=PLANE('',#1019);
#908=PLANE('',#1020);
#909=PLANE('',#1021);
#910=PLANE('',#1022);
#911=PLANE('',#1023);
#912=PLANE('',#1024);
#913=PLANE('',#1025);
#914=PLANE('',#1026);
#915=PLANE('',#1027);
#916=PLANE('',#1028);
#917=PLANE('',#1029);
#918=PLANE('',#1030);
#919=PLANE('',#1031);
#920=PLANE('',#1032);
#921=PLANE('',#1033);
#922=PLANE('',#1034);
#923=PLANE('',#1035);
#924=PLANE('',#1036);
#925=PLANE('',#1037);
#926=PLANE('',#1038);
#927=PLANE('',#1039);
#928=PLANE('',#1040);
#929=PLANE('',#1041);
#930=PLANE('',#1042);
#931=PLANE('',#1043);
#932=PLANE('',#1044);
#933=PLANE('',#1045);
#934=PLANE('',#1046);
#935=PLANE('',#1047);
#936=PLANE('',#1048);
#937=PLANE('',#1049);
#938=PLANE('',#1050);
#939=PLANE('',#1051);
#940=PLANE('',#1052);
#941=PLANE('',#1053);
#942=PLANE('',#1054);
#943=PLANE('',#1055);
#944=PLANE('',#1056);
#945=PLANE('',#1057);
#946=ADVANCED_FACE('',(#16),#897,.T.);
#947=ADVANCED_FACE('',(#17),#898,.T.);
#948=ADVANCED_FACE('',(#18),#899,.T.);
#949=ADVANCED_FACE('',(#19),#900,.T.);
#950=ADVANCED_FACE('',(#20),#901,.T.);
#951=ADVANCED_FACE('',(#21),#902,.T.);
#952=ADVANCED_FACE('',(#22),#903,.T.);
#953=ADVANCED_FACE('',(#23),#904,.T.);
#954=ADVANCED_FACE('',(#24),#905,.T.);
#955=ADVANCED_FACE('',(#25),#906,.T.);
#956=ADVANCED_FACE('',(#26),#907,.T.);
#957=ADVANCED_FACE('',(#27),#908,.T.);
#958=ADVANCED_FACE('',(#28),#909,.T.);
#959=ADVANCED_FACE('',(#29),#910,.T.);
#960=ADVANCED_FACE('',(#30),#911,.T.);
#961=ADVANCED_FACE('',(#31),#912,.T.);
#962=ADVANCED_FACE('',(#32),#913,.T.);
#963=ADVANCED_FACE('',(#33),#914,.T.);
#964=ADVANCED_FACE('',(#34),#915,.T.);
#965=ADVANCED_FACE('',(#35),#916,.T.);
#966=ADVANCED_FACE('',(#36),#917,.T.);
#967=ADVANCED_FACE('',(#37),#918,.T.);
#968=ADVANCED_FACE('',(#38),#919,.T.);
#969=ADVANCED_FACE('',(#39),#920,.T.);
#970=ADVANCED_FACE('',(#40),#921,.T.);
#971=ADVANCED_FACE('',(#41),#922,.T.);
#972=ADVANCED_FACE('',(#42),#923,.T.);
#973=ADVANCED_FACE('',(#43),#924,.T.);
#974=ADVANCED_FACE('',(#44),#925,.T.);
#975=ADVANCED_FACE('',(#45),#926,.T.);
#976=ADVANCED_FACE('',(#46),#927,.T.);
#977=ADVANCED_FACE('',(#47),#928,.T.);
#978=ADVANCED_FACE('',(#48),#929,.T.);
#979=ADVANCED_FACE('',(#49),#930,.T.);
#980=ADVANCED_FACE('',(#50),#931,.T.);
#981=ADVANCED_FACE('',(#51),#932,.T.);
#982=ADVANCED_FACE('',(#52),#933,.T.);
#983=ADVANCED_FACE('',(#53),#934,.T.);
#984=ADVANCED_FACE('',(#54),#935,.T.);
#985=ADVANCED_FACE('',(#55,#15),#936,.F.);
#986=ADVANCED_FACE('',(#56),#937,.T.);
#987=ADVANCED_FACE('',(#57),#938,.T.);
#988=ADVANCED_FACE('',(#58),#939,.T.);
#989=ADVANCED_FACE('',(#59),#940,.T.);
#990=ADVANCED_FACE('',(#60),#941,.T.);
#991=ADVANCED_FACE('',(#61),#942,.T.);
#992=ADVANCED_FACE('',(#62),#943,.T.);
#993=ADVANCED_FACE('',(#63),#944,.T.);
#994=ADVANCED_FACE('',(#64),#945,.F.);
#995=CLOSED_SHELL('',(#946,#947,#948,#949,#950,#951,#952,#953,#954,#955,
#956,#957,#958,#959,#960,#961,#962,#963,#964,#965,#966,#967,#968,#969,#970,
#971,#972,#973,#974,#975,#976,#977,#978,#979,#980,#981,#982,#983,#984,#985,
#986,#987,#988,#989,#990,#991,#992,#993,#994));
#996=DERIVED_UNIT_ELEMENT(#998,1.);
#997=DERIVED_UNIT_ELEMENT(#1581,-3.);
#998=(
MASS_UNIT()
NAMED_UNIT(*)
SI_UNIT(.KILO.,.GRAM.)
);
#999=DERIVED_UNIT((#996,#997));
#1000=MEASURE_REPRESENTATION_ITEM('density measure',
POSITIVE_RATIO_MEASURE(7850.),#999);
#1001=PROPERTY_DEFINITION_REPRESENTATION(#1006,#1003);
#1002=PROPERTY_DEFINITION_REPRESENTATION(#1007,#1004);
#1003=REPRESENTATION('material name',(#1005),#1578);
#1004=REPRESENTATION('density',(#1000),#1578);
#1005=DESCRIPTIVE_REPRESENTATION_ITEM('Steel','Steel');
#1006=PROPERTY_DEFINITION('material property','material name',#1588);
#1007=PROPERTY_DEFINITION('material property','density of part',#1588);
#1008=AXIS2_PLACEMENT_3D('',#1296,#1058,#1059);
#1009=AXIS2_PLACEMENT_3D('',#1297,#1060,#1061);
#1010=AXIS2_PLACEMENT_3D('',#1306,#1066,#1067);
#1011=AXIS2_PLACEMENT_3D('',#1312,#1071,#1072);
#1012=AXIS2_PLACEMENT_3D('',#1318,#1076,#1077);
#1013=AXIS2_PLACEMENT_3D('',#1324,#1081,#1082);
#1014=AXIS2_PLACEMENT_3D('',#1330,#1086,#1087);
#1015=AXIS2_PLACEMENT_3D('',#1339,#1092,#1093);
#1016=AXIS2_PLACEMENT_3D('',#1348,#1098,#1099);
#1017=AXIS2_PLACEMENT_3D('',#1351,#1102,#1103);
#1018=AXIS2_PLACEMENT_3D('',#1357,#1107,#1108);
#1019=AXIS2_PLACEMENT_3D('',#1363,#1112,#1113);
#1020=AXIS2_PLACEMENT_3D('',#1372,#1118,#1119);
#1021=AXIS2_PLACEMENT_3D('',#1381,#1124,#1125);
#1022=AXIS2_PLACEMENT_3D('',#1384,#1128,#1129);
#1023=AXIS2_PLACEMENT_3D('',#1390,#1133,#1134);
#1024=AXIS2_PLACEMENT_3D('',#1396,#1138,#1139);
#1025=AXIS2_PLACEMENT_3D('',#1402,#1143,#1144);
#1026=AXIS2_PLACEMENT_3D('',#1411,#1149,#1150);
#1027=AXIS2_PLACEMENT_3D('',#1414,#1153,#1154);
#1028=AXIS2_PLACEMENT_3D('',#1420,#1158,#1159);
#1029=AXIS2_PLACEMENT_3D('',#1426,#1163,#1164);
#1030=AXIS2_PLACEMENT_3D('',#1435,#1169,#1170);
#1031=AXIS2_PLACEMENT_3D('',#1438,#1173,#1174);
#1032=AXIS2_PLACEMENT_3D('',#1444,#1178,#1179);
#1033=AXIS2_PLACEMENT_3D('',#1453,#1184,#1185);
#1034=AXIS2_PLACEMENT_3D('',#1459,#1189,#1190);
#1035=AXIS2_PLACEMENT_3D('',#1462,#1193,#1194);
#1036=AXIS2_PLACEMENT_3D('',#1468,#1198,#1199);
#1037=AXIS2_PLACEMENT_3D('',#1477,#1204,#1205);
#1038=AXIS2_PLACEMENT_3D('',#1483,#1209,#1210);
#1039=AXIS2_PLACEMENT_3D('',#1486,#1213,#1214);
#1040=AXIS2_PLACEMENT_3D('',#1492,#1218,#1219);
#1041=AXIS2_PLACEMENT_3D('',#1498,#1223,#1224);
#1042=AXIS2_PLACEMENT_3D('',#1504,#1228,#1229);
#1043=AXIS2_PLACEMENT_3D('',#1510,#1233,#1234);
#1044=AXIS2_PLACEMENT_3D('',#1516,#1238,#1239);
#1045=AXIS2_PLACEMENT_3D('',#1519,#1242,#1243);
#1046=AXIS2_PLACEMENT_3D('',#1525,#1247,#1248);
#1047=AXIS2_PLACEMENT_3D('',#1531,#1252,#1253);
#1048=AXIS2_PLACEMENT_3D('',#1534,#1256,#1257);
#1049=AXIS2_PLACEMENT_3D('',#1551,#1266,#1267);
#1050=AXIS2_PLACEMENT_3D('',#1554,#1270,#1271);
#1051=AXIS2_PLACEMENT_3D('',#1556,#1273,#1274);
#1052=AXIS2_PLACEMENT_3D('',#1558,#1276,#1277);
#1053=AXIS2_PLACEMENT_3D('',#1559,#1278,#1279);
#1054=AXIS2_PLACEMENT_3D('',#1565,#1283,#1284);
#1055=AXIS2_PLACEMENT_3D('',#1569,#1287,#1288);
#1056=AXIS2_PLACEMENT_3D('',#1573,#1291,#1292);
#1057=AXIS2_PLACEMENT_3D('',#1575,#1294,#1295);
#1058=DIRECTION('axis',(0.,0.,1.));
#1059=DIRECTION('refdir',(1.,0.,0.));
#1060=DIRECTION('center_axis',(0.,1.,0.));
#1061=DIRECTION('ref_axis',(1.,0.,0.));
#1062=DIRECTION('',(1.,0.,0.));
#1063=DIRECTION('',(0.,0.,-1.));
#1064=DIRECTION('',(1.,0.,0.));
#1065=DIRECTION('',(0.,0.,-1.));
#1066=DIRECTION('center_axis',(-1.,0.,0.));
#1067=DIRECTION('ref_axis',(0.,1.,0.));
#1068=DIRECTION('',(0.,1.,0.));
#1069=DIRECTION('',(0.,1.,0.));
#1070=DIRECTION('',(0.,0.,-1.));
#1071=DIRECTION('center_axis',(1.,0.,0.));
#1072=DIRECTION('ref_axis',(0.,-1.,0.));
#1073=DIRECTION('',(0.,-1.,0.));
#1074=DIRECTION('',(0.,0.,1.));
#1075=DIRECTION('',(0.,-1.,0.));
#1076=DIRECTION('center_axis',(0.,1.,0.));
#1077=DIRECTION('ref_axis',(0.,0.,1.));
#1078=DIRECTION('',(-1.,0.,5.55111512312578E-17));
#1079=DIRECTION('',(0.,0.,1.));
#1080=DIRECTION('',(1.,0.,-1.11022302462516E-16));
#1081=DIRECTION('center_axis',(0.,1.,0.));
#1082=DIRECTION('ref_axis',(0.,0.,1.));
#1083=DIRECTION('',(1.,0.,-1.11022302462516E-16));
#1084=DIRECTION('',(0.,0.,-1.));
#1085=DIRECTION('',(-1.,0.,5.55111512312578E-17));
#1086=DIRECTION('center_axis',(-1.,0.,0.));
#1087=DIRECTION('ref_axis',(0.,1.,0.));
#1088=DIRECTION('',(0.,1.,0.));
#1089=DIRECTION('',(0.,0.,-1.));
#1090=DIRECTION('',(0.,1.,0.));
#1091=DIRECTION('',(0.,0.,-1.));
#1092=DIRECTION('center_axis',(1.,0.,0.));
#1093=DIRECTION('ref_axis',(0.,-1.,0.));
#1094=DIRECTION('',(0.,-1.,0.));
#1095=DIRECTION('',(0.,0.,1.));
#1096=DIRECTION('',(0.,-1.,0.));
#1097=DIRECTION('',(0.,0.,-1.));
#1098=DIRECTION('center_axis',(0.,1.,0.));
#1099=DIRECTION('ref_axis',(1.,0.,0.));
#1100=DIRECTION('',(1.,0.,0.));
#1101=DIRECTION('',(1.,0.,0.));
#1102=DIRECTION('center_axis',(0.,1.,0.));
#1103=DIRECTION('ref_axis',(0.,0.,1.));
#1104=DIRECTION('',(-1.,0.,5.55111512312578E-17));
#1105=DIRECTION('',(0.,0.,1.));
#1106=DIRECTION('',(1.,0.,-1.11022302462516E-16));
#1107=DIRECTION('center_axis',(0.,1.,0.));
#1108=DIRECTION('ref_axis',(0.,0.,1.));
#1109=DIRECTION('',(1.,0.,-1.11022302462516E-16));
#1110=DIRECTION('',(0.,0.,-1.));
#1111=DIRECTION('',(-1.,0.,5.55111512312578E-17));
#1112=DIRECTION('center_axis',(-1.,0.,0.));
#1113=DIRECTION('ref_axis',(0.,1.,0.));
#1114=DIRECTION('',(0.,1.,0.));
#1115=DIRECTION('',(0.,0.,-1.));
#1116=DIRECTION('',(0.,1.,0.));
#1117=DIRECTION('',(0.,0.,-1.));
#1118=DIRECTION('center_axis',(1.,0.,0.));
#1119=DIRECTION('ref_axis',(0.,-1.,0.));
#1120=DIRECTION('',(0.,-1.,0.));
#1121=DIRECTION('',(0.,0.,1.));
#1122=DIRECTION('',(0.,-1.,0.));
#1123=DIRECTION('',(0.,0.,-1.));
#1124=DIRECTION('center_axis',(0.,1.,0.));
#1125=DIRECTION('ref_axis',(1.,0.,0.));
#1126=DIRECTION('',(1.,0.,0.));
#1127=DIRECTION('',(1.,0.,0.));
#1128=DIRECTION('center_axis',(0.,1.,0.));
#1129=DIRECTION('ref_axis',(0.,0.,1.));
#1130=DIRECTION('',(-1.,0.,5.55111512312578E-17));
#1131=DIRECTION('',(0.,0.,1.));
#1132=DIRECTION('',(1.,0.,-1.11022302462516E-16));
#1133=DIRECTION('center_axis',(0.,1.,0.));
#1134=DIRECTION('ref_axis',(0.,0.,1.));
#1135=DIRECTION('',(1.,0.,-1.11022302462516E-16));
#1136=DIRECTION('',(0.,0.,-1.));
#1137=DIRECTION('',(-1.,0.,5.55111512312578E-17));
#1138=DIRECTION('center_axis',(-1.,0.,0.));
#1139=DIRECTION('ref_axis',(0.,1.,0.));
#1140=DIRECTION('',(0.,1.,0.));
#1141=DIRECTION('',(0.,0.,-1.));
#1142=DIRECTION('',(0.,1.,0.));
#1143=DIRECTION('center_axis',(1.,0.,0.));
#1144=DIRECTION('ref_axis',(0.,-1.,0.));
#1145=DIRECTION('',(0.,-1.,0.));
#1146=DIRECTION('',(0.,0.,1.));
#1147=DIRECTION('',(0.,-1.,0.));
#1148=DIRECTION('',(0.,0.,-1.));
#1149=DIRECTION('center_axis',(0.,1.,0.));
#1150=DIRECTION('ref_axis',(1.,0.,0.));
#1151=DIRECTION('',(1.,0.,0.));
#1152=DIRECTION('',(1.,0.,0.));
#1153=DIRECTION('center_axis',(0.,1.,0.));
#1154=DIRECTION('ref_axis',(0.,0.,1.));
#1155=DIRECTION('',(1.,0.,-1.11022302462516E-16));
#1156=DIRECTION('',(0.,0.,-1.));
#1157=DIRECTION('',(-1.,0.,5.55111512312578E-17));
#1158=DIRECTION('center_axis',(-1.,0.,0.));
#1159=DIRECTION('ref_axis',(0.,1.,0.));
#1160=DIRECTION('',(0.,1.,0.));
#1161=DIRECTION('',(0.,0.,-1.));
#1162=DIRECTION('',(0.,1.,0.));
#1163=DIRECTION('center_axis',(1.,0.,0.));
#1164=DIRECTION('ref_axis',(0.,-1.,0.));
#1165=DIRECTION('',(0.,-1.,0.));
#1166=DIRECTION('',(0.,0.,1.));
#1167=DIRECTION('',(0.,-1.,0.));
#1168=DIRECTION('',(0.,0.,-1.));
#1169=DIRECTION('center_axis',(0.,1.,0.));
#1170=DIRECTION('ref_axis',(1.,0.,0.));
#1171=DIRECTION('',(1.,0.,0.));
#1172=DIRECTION('',(1.,0.,0.));
#1173=DIRECTION('center_axis',(0.,1.,0.));
#1174=DIRECTION('ref_axis',(0.,0.,1.));
#1175=DIRECTION('',(1.,0.,-1.11022302462516E-16));
#1176=DIRECTION('',(0.,0.,-1.));
#1177=DIRECTION('',(-1.,0.,5.55111512312578E-17));
#1178=DIRECTION('center_axis',(-1.,0.,0.));
#1179=DIRECTION('ref_axis',(0.,1.,0.));
#1180=DIRECTION('',(0.,1.,0.));
#1181=DIRECTION('',(0.,0.,-1.));
#1182=DIRECTION('',(0.,1.,0.));
#1183=DIRECTION('',(0.,0.,-1.));
#1184=DIRECTION('center_axis',(1.,0.,0.));
#1185=DIRECTION('ref_axis',(0.,-1.,0.));
#1186=DIRECTION('',(0.,-1.,0.));
#1187=DIRECTION('',(0.,-1.,0.));
#1188=DIRECTION('',(0.,0.,-1.));
#1189=DIRECTION('center_axis',(0.,1.,0.));
#1190=DIRECTION('ref_axis',(1.,0.,0.));
#1191=DIRECTION('',(1.,0.,0.));
#1192=DIRECTION('',(1.,0.,0.));
#1193=DIRECTION('center_axis',(0.,1.,0.));
#1194=DIRECTION('ref_axis',(0.,0.,1.));
#1195=DIRECTION('',(-1.,0.,5.55111512312578E-17));
#1196=DIRECTION('',(0.,0.,1.));
#1197=DIRECTION('',(1.,0.,-1.11022302462516E-16));
#1198=DIRECTION('center_axis',(-1.,0.,0.));
#1199=DIRECTION('ref_axis',(0.,1.,0.));
#1200=DIRECTION('',(0.,1.,0.));
#1201=DIRECTION('',(0.,0.,-1.));
#1202=DIRECTION('',(0.,1.,0.));
#1203=DIRECTION('',(0.,0.,-1.));
#1204=DIRECTION('center_axis',(1.,0.,0.));
#1205=DIRECTION('ref_axis',(0.,-1.,0.));
#1206=DIRECTION('',(0.,-1.,0.));
#1207=DIRECTION('',(0.,-1.,0.));
#1208=DIRECTION('',(0.,0.,-1.));
#1209=DIRECTION('center_axis',(0.,1.,0.));
#1210=DIRECTION('ref_axis',(1.,0.,0.));
#1211=DIRECTION('',(1.,0.,0.));
#1212=DIRECTION('',(1.,0.,0.));
#1213=DIRECTION('center_axis',(0.,1.,0.));
#1214=DIRECTION('ref_axis',(0.,0.,1.));
#1215=DIRECTION('',(-1.,0.,5.55111512312578E-17));
#1216=DIRECTION('',(0.,0.,1.));
#1217=DIRECTION('',(1.,0.,-1.11022302462516E-16));
#1218=DIRECTION('center_axis',(1.,0.,0.));
#1219=DIRECTION('ref_axis',(0.,-1.,0.));
#1220=DIRECTION('',(0.,-1.,0.));
#1221=DIRECTION('',(0.,-1.,0.));
#1222=DIRECTION('',(0.,0.,-1.));
#1223=DIRECTION('center_axis',(0.,1.,0.));
#1224=DIRECTION('ref_axis',(1.,0.,0.));
#1225=DIRECTION('',(1.,0.,0.));
#1226=DIRECTION('',(1.,0.,0.));
#1227=DIRECTION('',(0.,0.,-1.));
#1228=DIRECTION('center_axis',(-1.,0.,0.));
#1229=DIRECTION('ref_axis',(0.,1.,0.));
#1230=DIRECTION('',(0.,1.,0.));
#1231=DIRECTION('',(0.,0.,-1.));
#1232=DIRECTION('',(0.,1.,0.));
#1233=DIRECTION('center_axis',(1.,0.,0.));
#1234=DIRECTION('ref_axis',(0.,-1.,0.));
#1235=DIRECTION('',(0.,-1.,0.));
#1236=DIRECTION('',(0.,-1.,0.));
#1237=DIRECTION('',(0.,0.,-1.));
#1238=DIRECTION('center_axis',(0.,1.,0.));
#1239=DIRECTION('ref_axis',(1.,0.,0.));
#1240=DIRECTION('',(1.,0.,0.));
#1241=DIRECTION('',(1.,0.,0.));
#1242=DIRECTION('center_axis',(-1.,0.,0.));
#1243=DIRECTION('ref_axis',(0.,1.,0.));
#1244=DIRECTION('',(0.,1.,0.));
#1245=DIRECTION('',(0.,0.,-1.));
#1246=DIRECTION('',(0.,1.,0.));
#1247=DIRECTION('center_axis',(1.,0.,0.));
#1248=DIRECTION('ref_axis',(0.,-1.,0.));
#1249=DIRECTION('',(0.,-1.,0.));
#1250=DIRECTION('',(0.,-1.,0.));
#1251=DIRECTION('',(0.,0.,-1.));
#1252=DIRECTION('center_axis',(0.,1.,0.));
#1253=DIRECTION('ref_axis',(1.,0.,0.));
#1254=DIRECTION('',(1.,0.,0.));
#1255=DIRECTION('',(1.,0.,0.));
#1256=DIRECTION('center_axis',(0.,1.,0.));
#1257=DIRECTION('ref_axis',(-1.,0.,0.));
#1258=DIRECTION('',(-1.,0.,5.55111512312578E-17));
#1259=DIRECTION('',(0.,0.,-1.));
#1260=DIRECTION('',(1.,0.,-1.11022302462516E-16));
#1261=DIRECTION('',(8.32667268468867E-17,0.,1.));
#1262=DIRECTION('',(0.,0.,1.));
#1263=DIRECTION('',(1.,0.,0.));
#1264=DIRECTION('',(0.,0.,-1.));
#1265=DIRECTION('',(-1.,0.,0.));
#1266=DIRECTION('center_axis',(1.,0.,0.));
#1267=DIRECTION('ref_axis',(0.,0.,-1.));
#1268=DIRECTION('',(0.,1.,0.));
#1269=DIRECTION('',(0.,1.,0.));
#1270=DIRECTION('center_axis',(1.11022302462516E-16,0.,1.));
#1271=DIRECTION('ref_axis',(1.,0.,-1.11022302462516E-16));
#1272=DIRECTION('',(0.,1.,0.));
#1273=DIRECTION('center_axis',(-1.,0.,8.32667268468867E-17));
#1274=DIRECTION('ref_axis',(8.32667268468867E-17,0.,1.));
#1275=DIRECTION('',(0.,1.,0.));
#1276=DIRECTION('center_axis',(-5.55111512312578E-17,0.,-1.));
#1277=DIRECTION('ref_axis',(-1.,0.,5.55111512312578E-17));
#1278=DIRECTION('center_axis',(-1.,0.,0.));
#1279=DIRECTION('ref_axis',(0.,0.,1.));
#1280=DIRECTION('',(0.,0.,-1.));
#1281=DIRECTION('',(0.,1.,0.));
#1282=DIRECTION('',(0.,1.,0.));
#1283=DIRECTION('center_axis',(0.,0.,-1.));
#1284=DIRECTION('ref_axis',(-1.,0.,0.));
#1285=DIRECTION('',(1.,0.,0.));
#1286=DIRECTION('',(0.,1.,0.));
#1287=DIRECTION('center_axis',(1.,0.,0.));
#1288=DIRECTION('ref_axis',(0.,0.,-1.));
#1289=DIRECTION('',(0.,0.,1.));
#1290=DIRECTION('',(0.,1.,0.));
#1291=DIRECTION('center_axis',(0.,0.,1.));
#1292=DIRECTION('ref_axis',(1.,0.,0.));
#1293=DIRECTION('',(-1.,0.,0.));
#1294=DIRECTION('center_axis',(0.,1.,0.));
#1295=DIRECTION('ref_axis',(1.,0.,0.));
#1296=CARTESIAN_POINT('',(0.,0.,0.));
#1297=CARTESIAN_POINT('Origin',(30.4800001676381,33.9999996870756,32.5));
#1298=CARTESIAN_POINT('',(30.4800001676381,33.9999996870756,32.5));
#1299=CARTESIAN_POINT('',(32.4800001676381,33.9999996870756,32.5));
#1300=CARTESIAN_POINT('',(30.4800001676381,33.9999996870756,32.5));
#1301=CARTESIAN_POINT('',(32.4800001676381,33.9999996870756,-7.5));
#1302=CARTESIAN_POINT('',(32.4800001676381,33.9999996870756,32.5));
#1303=CARTESIAN_POINT('',(30.4800001676381,33.9999996870756,-7.5));
#1304=CARTESIAN_POINT('',(30.4800001676381,33.9999996870756,-7.5));
#1305=CARTESIAN_POINT('',(30.4800001676381,33.9999996870756,32.5));
#1306=CARTESIAN_POINT('Origin',(30.4800001676381,14.0000001825262,32.5));
#1307=CARTESIAN_POINT('',(30.4800001676381,14.0000001825262,32.5));
#1308=CARTESIAN_POINT('',(30.4800001676381,13.9999996870756,32.5));
#1309=CARTESIAN_POINT('',(30.4800001676381,14.0000001825262,-7.5));
#1310=CARTESIAN_POINT('',(30.4800001676381,13.9999996870756,-7.5));
#1311=CARTESIAN_POINT('',(30.4800001676381,14.,22.5));
#1312=CARTESIAN_POINT('Origin',(32.4800001676381,33.9999996870756,32.5));
#1313=CARTESIAN_POINT('',(32.4800001676381,14.0000002086163,32.5));
#1314=CARTESIAN_POINT('',(32.4800001676381,33.9999996870756,32.5));
#1315=CARTESIAN_POINT('',(32.4800001676381,14.0000002086163,-7.5));
#1316=CARTESIAN_POINT('',(32.4800001676381,14.,22.5));
#1317=CARTESIAN_POINT('',(32.4800001676381,33.9999996870756,-7.5));
#1318=CARTESIAN_POINT('Origin',(12.5,14.,12.5));
#1319=CARTESIAN_POINT('',(28.2600001676381,14.0000001535662,-7.5));
#1320=CARTESIAN_POINT('',(32.5,14.,-7.5));
#1321=CARTESIAN_POINT('',(28.2600001676381,14.0000001535662,32.5));
#1322=CARTESIAN_POINT('',(28.2600001676381,14.,22.5));
#1323=CARTESIAN_POINT('',(-7.5,14.,32.5));
#1324=CARTESIAN_POINT('Origin',(12.5,14.,12.5));
#1325=CARTESIAN_POINT('',(32.5,14.,32.5));
#1326=CARTESIAN_POINT('',(-7.5,14.,32.5));
#1327=CARTESIAN_POINT('',(32.5,14.,-7.5));
#1328=CARTESIAN_POINT('',(32.5,14.,32.5));
#1329=CARTESIAN_POINT('',(32.5,14.,-7.5));
#1330=CARTESIAN_POINT('Origin',(13.6000001676381,13.9999999623259,32.5));
#1331=CARTESIAN_POINT('',(13.6000001676381,13.9999999623259,32.5));
#1332=CARTESIAN_POINT('',(13.6000001676381,33.9999996870756,32.5));
#1333=CARTESIAN_POINT('',(13.6000001676381,13.9999996870756,32.5));
#1334=CARTESIAN_POINT('',(13.6000001676381,33.9999996870756,-7.5));
#1335=CARTESIAN_POINT('',(13.6000001676381,33.9999996870756,32.5));
#1336=CARTESIAN_POINT('',(13.6000001676381,13.9999999623259,-7.5));
#1337=CARTESIAN_POINT('',(13.6000001676381,13.9999996870756,-7.5));
#1338=CARTESIAN_POINT('',(13.6000001676381,14.,22.5));
#1339=CARTESIAN_POINT('Origin',(15.6000001676381,33.9999996870756,32.5));
#1340=CARTESIAN_POINT('',(15.6000001676381,33.9999996870756,32.5));
#1341=CARTESIAN_POINT('',(15.6000001676381,13.999999988416,32.5));
#1342=CARTESIAN_POINT('',(15.6000001676381,33.9999996870756,32.5));
#1343=CARTESIAN_POINT('',(15.6000001676381,13.999999988416,-7.5));
#1344=CARTESIAN_POINT('',(15.6000001676381,14.,22.5));
#1345=CARTESIAN_POINT('',(15.6000001676381,33.9999996870756,-7.5));
#1346=CARTESIAN_POINT('',(15.6000001676381,33.9999996870756,-7.5));
#1347=CARTESIAN_POINT('',(15.6000001676381,33.9999996870756,32.5));
#1348=CARTESIAN_POINT('Origin',(13.6000001676381,33.9999996870756,32.5));
#1349=CARTESIAN_POINT('',(13.6000001676381,33.9999996870756,32.5));
#1350=CARTESIAN_POINT('',(13.6000001676381,33.9999996870756,-7.5));
#1351=CARTESIAN_POINT('Origin',(12.5,14.,12.5));
#1352=CARTESIAN_POINT('',(11.3800001676381,13.9999999333659,-7.5));
#1353=CARTESIAN_POINT('',(32.5,14.,-7.5));
#1354=CARTESIAN_POINT('',(11.3800001676381,13.9999999333659,32.5));
#1355=CARTESIAN_POINT('',(11.3800001676381,14.,22.5));
#1356=CARTESIAN_POINT('',(-7.5,14.,32.5));
#1357=CARTESIAN_POINT('Origin',(12.5,14.,12.5));
#1358=CARTESIAN_POINT('',(17.8200001676381,14.000000017376,32.5));
#1359=CARTESIAN_POINT('',(-7.5,14.,32.5));
#1360=CARTESIAN_POINT('',(17.8200001676381,14.000000017376,-7.5));
#1361=CARTESIAN_POINT('',(17.8200001676381,14.,22.5));
#1362=CARTESIAN_POINT('',(32.5,14.,-7.5));
#1363=CARTESIAN_POINT('Origin',(-3.27999983236194,13.9999997421257,32.5));
#1364=CARTESIAN_POINT('',(-3.27999983236194,13.9999997421257,32.5));
#1365=CARTESIAN_POINT('',(-3.27999983236194,33.9999996870756,32.5));
#1366=CARTESIAN_POINT('',(-3.27999983236194,13.9999996870756,32.5));
#1367=CARTESIAN_POINT('',(-3.27999983236194,33.9999996870756,-7.5));
#1368=CARTESIAN_POINT('',(-3.27999983236194,33.9999996870756,32.5));
#1369=CARTESIAN_POINT('',(-3.27999983236194,13.9999997421257,-7.5));
#1370=CARTESIAN_POINT('',(-3.27999983236194,13.9999996870756,-7.5));
#1371=CARTESIAN_POINT('',(-3.27999983236194,14.,22.5));
#1372=CARTESIAN_POINT('Origin',(-1.27999983236194,33.9999996870756,32.5));
#1373=CARTESIAN_POINT('',(-1.27999983236194,33.9999996870756,32.5));
#1374=CARTESIAN_POINT('',(-1.27999983236193,13.9999997682158,32.5));
#1375=CARTESIAN_POINT('',(-1.27999983236194,33.9999996870756,32.5));
#1376=CARTESIAN_POINT('',(-1.27999983236193,13.9999997682158,-7.5));
#1377=CARTESIAN_POINT('',(-1.27999983236194,14.,22.5));
#1378=CARTESIAN_POINT('',(-1.27999983236194,33.9999996870756,-7.5));
#1379=CARTESIAN_POINT('',(-1.27999983236194,33.9999996870756,-7.5));
#1380=CARTESIAN_POINT('',(-1.27999983236194,33.9999996870756,32.5));
#1381=CARTESIAN_POINT('Origin',(-3.27999983236194,33.9999996870756,32.5));
#1382=CARTESIAN_POINT('',(-3.27999983236194,33.9999996870756,32.5));
#1383=CARTESIAN_POINT('',(-3.27999983236194,33.9999996870756,-7.5));
#1384=CARTESIAN_POINT('Origin',(12.5,14.,12.5));
#1385=CARTESIAN_POINT('',(-5.49999983236193,13.9999997131657,-7.5));
#1386=CARTESIAN_POINT('',(32.5,14.,-7.5));
#1387=CARTESIAN_POINT('',(-5.49999983236193,13.9999997131657,32.5));
#1388=CARTESIAN_POINT('',(-5.49999983236194,14.,22.5));
#1389=CARTESIAN_POINT('',(-7.5,14.,32.5));
#1390=CARTESIAN_POINT('Origin',(12.5,14.,12.5));
#1391=CARTESIAN_POINT('',(0.940000167638062,13.9999997971757,32.5));
#1392=CARTESIAN_POINT('',(-7.5,14.,32.5));
#1393=CARTESIAN_POINT('',(0.940000167638062,13.9999997971757,-7.5));
#1394=CARTESIAN_POINT('',(0.940000167638062,14.,22.5));
#1395=CARTESIAN_POINT('',(32.5,14.,-7.5));
#1396=CARTESIAN_POINT('Origin',(0.940000167638063,13.9999997971757,32.5));
#1397=CARTESIAN_POINT('',(0.940000167638063,33.9999996870756,32.5));
#1398=CARTESIAN_POINT('',(0.940000167638063,13.9999996870756,32.5));
#1399=CARTESIAN_POINT('',(0.940000167638063,33.9999996870756,-7.5));
#1400=CARTESIAN_POINT('',(0.940000167638063,33.9999996870756,32.5));
#1401=CARTESIAN_POINT('',(0.940000167638063,13.9999996870756,-7.5));
#1402=CARTESIAN_POINT('Origin',(2.94000016763806,33.9999996870756,32.5));
#1403=CARTESIAN_POINT('',(2.94000016763806,33.9999996870756,32.5));
#1404=CARTESIAN_POINT('',(2.94000016763807,13.9999998232658,32.5));
#1405=CARTESIAN_POINT('',(2.94000016763806,33.9999996870756,32.5));
#1406=CARTESIAN_POINT('',(2.94000016763807,13.9999998232658,-7.5));
#1407=CARTESIAN_POINT('',(2.94000016763806,14.,22.5));
#1408=CARTESIAN_POINT('',(2.94000016763806,33.9999996870756,-7.5));
#1409=CARTESIAN_POINT('',(2.94000016763806,33.9999996870756,-7.5));
#1410=CARTESIAN_POINT('',(2.94000016763806,33.9999996870756,32.5));
#1411=CARTESIAN_POINT('Origin',(0.940000167638063,33.9999996870756,32.5));
#1412=CARTESIAN_POINT('',(0.940000167638063,33.9999996870756,32.5));
#1413=CARTESIAN_POINT('',(0.940000167638063,33.9999996870756,-7.5));
#1414=CARTESIAN_POINT('Origin',(12.5,14.,12.5));
#1415=CARTESIAN_POINT('',(5.16000016763806,13.9999998522258,32.5));
#1416=CARTESIAN_POINT('',(-7.5,14.,32.5));
#1417=CARTESIAN_POINT('',(5.16000016763806,13.9999998522258,-7.5));
#1418=CARTESIAN_POINT('',(5.16000016763806,14.,22.5));
#1419=CARTESIAN_POINT('',(32.5,14.,-7.5));
#1420=CARTESIAN_POINT('Origin',(17.8200001676381,14.000000017376,32.5));
#1421=CARTESIAN_POINT('',(17.8200001676381,33.9999996870756,32.5));
#1422=CARTESIAN_POINT('',(17.8200001676381,13.9999996870756,32.5));
#1423=CARTESIAN_POINT('',(17.8200001676381,33.9999996870756,-7.5));
#1424=CARTESIAN_POINT('',(17.8200001676381,33.9999996870756,32.5));
#1425=CARTESIAN_POINT('',(17.8200001676381,13.9999996870756,-7.5));
#1426=CARTESIAN_POINT('Origin',(19.8200001676381,33.9999996870756,32.5));
#1427=CARTESIAN_POINT('',(19.8200001676381,33.9999996870756,32.5));
#1428=CARTESIAN_POINT('',(19.8200001676381,14.0000000434661,32.5));
#1429=CARTESIAN_POINT('',(19.8200001676381,33.9999996870756,32.5));
#1430=CARTESIAN_POINT('',(19.8200001676381,14.0000000434661,-7.5));
#1431=CARTESIAN_POINT('',(19.8200001676381,14.,22.5));
#1432=CARTESIAN_POINT('',(19.8200001676381,33.9999996870756,-7.5));
#1433=CARTESIAN_POINT('',(19.8200001676381,33.9999996870756,-7.5));
#1434=CARTESIAN_POINT('',(19.8200001676381,33.9999996870756,32.5));
#1435=CARTESIAN_POINT('Origin',(17.8200001676381,33.9999996870756,32.5));
#1436=CARTESIAN_POINT('',(17.8200001676381,33.9999996870756,32.5));
#1437=CARTESIAN_POINT('',(17.8200001676381,33.9999996870756,-7.5));
#1438=CARTESIAN_POINT('Origin',(12.5,14.,12.5));
#1439=CARTESIAN_POINT('',(22.0400001676381,14.0000000724261,32.5));
#1440=CARTESIAN_POINT('',(-7.5,14.,32.5));
#1441=CARTESIAN_POINT('',(22.0400001676381,14.0000000724261,-7.5));
#1442=CARTESIAN_POINT('',(22.0400001676381,14.,22.5));
#1443=CARTESIAN_POINT('',(32.5,14.,-7.5));
#1444=CARTESIAN_POINT('Origin',(26.2600001676381,14.0000001274761,32.5));
#1445=CARTESIAN_POINT('',(26.2600001676381,14.0000001274761,32.5));
#1446=CARTESIAN_POINT('',(26.2600001676381,33.9999996870756,32.5));
#1447=CARTESIAN_POINT('',(26.2600001676381,13.9999996870756,32.5));
#1448=CARTESIAN_POINT('',(26.2600001676381,33.9999996870756,-7.5));
#1449=CARTESIAN_POINT('',(26.2600001676381,33.9999996870756,32.5));
#1450=CARTESIAN_POINT('',(26.2600001676381,14.0000001274761,-7.5));
#1451=CARTESIAN_POINT('',(26.2600001676381,13.9999996870756,-7.5));
#1452=CARTESIAN_POINT('',(26.2600001676381,14.,22.5));
#1453=CARTESIAN_POINT('Origin',(28.2600001676381,33.9999996870756,32.5));
#1454=CARTESIAN_POINT('',(28.2600001676381,33.9999996870756,32.5));
#1455=CARTESIAN_POINT('',(28.2600001676381,33.9999996870756,32.5));
#1456=CARTESIAN_POINT('',(28.2600001676381,33.9999996870756,-7.5));
#1457=CARTESIAN_POINT('',(28.2600001676381,33.9999996870756,-7.5));
#1458=CARTESIAN_POINT('',(28.2600001676381,33.9999996870756,32.5));
#1459=CARTESIAN_POINT('Origin',(26.2600001676381,33.9999996870756,32.5));
#1460=CARTESIAN_POINT('',(26.2600001676381,33.9999996870756,32.5));
#1461=CARTESIAN_POINT('',(26.2600001676381,33.9999996870756,-7.5));
#1462=CARTESIAN_POINT('Origin',(12.5,14.,12.5));
#1463=CARTESIAN_POINT('',(24.0400001676381,14.0000000985161,-7.5));
#1464=CARTESIAN_POINT('',(32.5,14.,-7.5));
#1465=CARTESIAN_POINT('',(24.0400001676381,14.0000000985161,32.5));
#1466=CARTESIAN_POINT('',(24.0400001676381,14.,22.5));
#1467=CARTESIAN_POINT('',(-7.5,14.,32.5));
#1468=CARTESIAN_POINT('Origin',(9.38000016763806,13.9999999072759,32.5));
#1469=CARTESIAN_POINT('',(9.38000016763806,13.9999999072759,32.5));
#1470=CARTESIAN_POINT('',(9.38000016763806,33.9999996870756,32.5));
#1471=CARTESIAN_POINT('',(9.38000016763806,13.9999996870756,32.5));
#1472=CARTESIAN_POINT('',(9.38000016763806,33.9999996870756,-7.5));
#1473=CARTESIAN_POINT('',(9.38000016763806,33.9999996870756,32.5));
#1474=CARTESIAN_POINT('',(9.38000016763806,13.9999999072759,-7.5));
#1475=CARTESIAN_POINT('',(9.38000016763806,13.9999996870756,-7.5));
#1476=CARTESIAN_POINT('',(9.38000016763806,14.,22.5));
#1477=CARTESIAN_POINT('Origin',(11.3800001676381,33.9999996870756,32.5));
#1478=CARTESIAN_POINT('',(11.3800001676381,33.9999996870756,32.5));
#1479=CARTESIAN_POINT('',(11.3800001676381,33.9999996870756,32.5));
#1480=CARTESIAN_POINT('',(11.3800001676381,33.9999996870756,-7.5));
#1481=CARTESIAN_POINT('',(11.3800001676381,33.9999996870756,-7.5));
#1482=CARTESIAN_POINT('',(11.3800001676381,33.9999996870756,32.5));
#1483=CARTESIAN_POINT('Origin',(9.38000016763806,33.9999996870756,32.5));
#1484=CARTESIAN_POINT('',(9.38000016763806,33.9999996870756,32.5));
#1485=CARTESIAN_POINT('',(9.38000016763806,33.9999996870756,-7.5));
#1486=CARTESIAN_POINT('Origin',(12.5,14.,12.5));
#1487=CARTESIAN_POINT('',(7.16000016763807,13.9999998783159,-7.5));
#1488=CARTESIAN_POINT('',(32.5,14.,-7.5));
#1489=CARTESIAN_POINT('',(7.16000016763807,13.9999998783159,32.5));
#1490=CARTESIAN_POINT('',(7.16000016763806,14.,22.5));
#1491=CARTESIAN_POINT('',(-7.5,14.,32.5));
#1492=CARTESIAN_POINT('Origin',(-5.49999983236194,33.9999996870756,32.5));
#1493=CARTESIAN_POINT('',(-5.49999983236194,33.9999996870756,32.5));
#1494=CARTESIAN_POINT('',(-5.49999983236194,33.9999996870756,32.5));
#1495=CARTESIAN_POINT('',(-5.49999983236194,33.9999996870756,-7.5));
#1496=CARTESIAN_POINT('',(-5.49999983236194,33.9999996870756,-7.5));
#1497=CARTESIAN_POINT('',(-5.49999983236194,33.9999996870756,32.5));
#1498=CARTESIAN_POINT('Origin',(-7.49999983236194,33.9999996870756,32.5));
#1499=CARTESIAN_POINT('',(-7.49999983236194,33.9999996870756,32.5));
#1500=CARTESIAN_POINT('',(-7.49999983236194,33.9999996870756,32.5));
#1501=CARTESIAN_POINT('',(-7.49999983236194,33.9999996870756,-7.5));
#1502=CARTESIAN_POINT('',(-7.49999983236194,33.9999996870756,-7.5));
#1503=CARTESIAN_POINT('',(-7.49999983236194,33.9999996870756,32.5));
#1504=CARTESIAN_POINT('Origin',(5.16000016763806,13.9999998522258,32.5));
#1505=CARTESIAN_POINT('',(5.16000016763806,33.9999996870756,32.5));
#1506=CARTESIAN_POINT('',(5.16000016763806,13.9999996870756,32.5));
#1507=CARTESIAN_POINT('',(5.16000016763806,33.9999996870756,-7.5));
#1508=CARTESIAN_POINT('',(5.16000016763806,33.9999996870756,32.5));
#1509=CARTESIAN_POINT('',(5.16000016763806,13.9999996870756,-7.5));
#1510=CARTESIAN_POINT('Origin',(7.16000016763806,33.9999996870756,32.5));
#1511=CARTESIAN_POINT('',(7.16000016763806,33.9999996870756,32.5));
#1512=CARTESIAN_POINT('',(7.16000016763806,33.9999996870756,32.5));
#1513=CARTESIAN_POINT('',(7.16000016763806,33.9999996870756,-7.5));
#1514=CARTESIAN_POINT('',(7.16000016763806,33.9999996870756,-7.5));
#1515=CARTESIAN_POINT('',(7.16000016763806,33.9999996870756,32.5));
#1516=CARTESIAN_POINT('Origin',(5.16000016763806,33.9999996870756,32.5));
#1517=CARTESIAN_POINT('',(5.16000016763806,33.9999996870756,32.5));
#1518=CARTESIAN_POINT('',(5.16000016763806,33.9999996870756,-7.5));
#1519=CARTESIAN_POINT('Origin',(22.0400001676381,14.0000000724261,32.5));
#1520=CARTESIAN_POINT('',(22.0400001676381,33.9999996870756,32.5));
#1521=CARTESIAN_POINT('',(22.0400001676381,13.9999996870756,32.5));
#1522=CARTESIAN_POINT('',(22.0400001676381,33.9999996870756,-7.5));
#1523=CARTESIAN_POINT('',(22.0400001676381,33.9999996870756,32.5));
#1524=CARTESIAN_POINT('',(22.0400001676381,13.9999996870756,-7.5));
#1525=CARTESIAN_POINT('Origin',(24.0400001676381,33.9999996870756,32.5));
#1526=CARTESIAN_POINT('',(24.0400001676381,33.9999996870756,32.5));
#1527=CARTESIAN_POINT('',(24.0400001676381,33.9999996870756,32.5));
#1528=CARTESIAN_POINT('',(24.0400001676381,33.9999996870756,-7.5));
#1529=CARTESIAN_POINT('',(24.0400001676381,33.9999996870756,-7.5));
#1530=CARTESIAN_POINT('',(24.0400001676381,33.9999996870756,32.5));
#1531=CARTESIAN_POINT('Origin',(22.0400001676381,33.9999996870756,32.5));
#1532=CARTESIAN_POINT('',(22.0400001676381,33.9999996870756,32.5));
#1533=CARTESIAN_POINT('',(22.0400001676381,33.9999996870756,-7.5));
#1534=CARTESIAN_POINT('Origin',(12.5,4.,12.5));
#1535=CARTESIAN_POINT('',(32.5,4.,-7.5));
#1536=CARTESIAN_POINT('',(-7.5,4.,-7.5));
#1537=CARTESIAN_POINT('',(32.5,4.,-7.5));
#1538=CARTESIAN_POINT('',(32.5,4.,32.5));
#1539=CARTESIAN_POINT('',(32.5,4.,32.5));
#1540=CARTESIAN_POINT('',(-7.5,4.,32.5));
#1541=CARTESIAN_POINT('',(-7.5,4.,32.5));
#1542=CARTESIAN_POINT('',(-7.5,4.,-7.5));
#1543=CARTESIAN_POINT('',(0.,4.,0.));
#1544=CARTESIAN_POINT('',(0.,4.,25.));
#1545=CARTESIAN_POINT('',(0.,4.,25.));
#1546=CARTESIAN_POINT('',(25.,4.,25.));
#1547=CARTESIAN_POINT('',(25.,4.,25.));
#1548=CARTESIAN_POINT('',(25.,4.,0.));
#1549=CARTESIAN_POINT('',(25.,4.,0.));
#1550=CARTESIAN_POINT('',(0.,4.,0.));
#1551=CARTESIAN_POINT('Origin',(32.5,4.,32.5));
#1552=CARTESIAN_POINT('',(32.5,4.,-7.5));
#1553=CARTESIAN_POINT('',(32.5,4.,32.5));
#1554=CARTESIAN_POINT('Origin',(-7.5,4.,32.5));
#1555=CARTESIAN_POINT('',(-7.5,4.,32.5));
#1556=CARTESIAN_POINT('Origin',(-7.5,4.,-7.5));
#1557=CARTESIAN_POINT('',(-7.5,4.,-7.5));
#1558=CARTESIAN_POINT('Origin',(32.5,4.,-7.5));
#1559=CARTESIAN_POINT('Origin',(0.,0.,0.));
#1560=CARTESIAN_POINT('',(0.,0.,25.));
#1561=CARTESIAN_POINT('',(0.,0.,0.));
#1562=CARTESIAN_POINT('',(0.,0.,25.));
#1563=CARTESIAN_POINT('',(0.,0.,25.));
#1564=CARTESIAN_POINT('',(0.,0.,0.));
#1565=CARTESIAN_POINT('Origin',(25.,0.,0.));
#1566=CARTESIAN_POINT('',(25.,0.,0.));
#1567=CARTESIAN_POINT('',(0.,0.,0.));
#1568=CARTESIAN_POINT('',(25.,0.,0.));
#1569=CARTESIAN_POINT('Origin',(25.,0.,25.));
#1570=CARTESIAN_POINT('',(25.,0.,25.));
#1571=CARTESIAN_POINT('',(25.,0.,0.));
#1572=CARTESIAN_POINT('',(25.,0.,25.));
#1573=CARTESIAN_POINT('Origin',(0.,0.,25.));
#1574=CARTESIAN_POINT('',(25.,0.,25.));
#1575=CARTESIAN_POINT('Origin',(12.5,0.,12.5));
#1576=UNCERTAINTY_MEASURE_WITH_UNIT(LENGTH_MEASURE(0.01),#1580,
'DISTANCE_ACCURACY_VALUE',
'Maximum model space distance between geometric entities at asserted c
onnectivities');
#1577=UNCERTAINTY_MEASURE_WITH_UNIT(LENGTH_MEASURE(0.01),#1580,
'DISTANCE_ACCURACY_VALUE',
'Maximum model space distance between geometric entities at asserted c
onnectivities');
#1578=(
GEOMETRIC_REPRESENTATION_CONTEXT(3)
GLOBAL_UNCERTAINTY_ASSIGNED_CONTEXT((#1576))
GLOBAL_UNIT_ASSIGNED_CONTEXT((#1580,#1582,#1583))
REPRESENTATION_CONTEXT('','3D')
);
#1579=(
GEOMETRIC_REPRESENTATION_CONTEXT(3)
GLOBAL_UNCERTAINTY_ASSIGNED_CONTEXT((#1577))
GLOBAL_UNIT_ASSIGNED_CONTEXT((#1580,#1582,#1583))
REPRESENTATION_CONTEXT('','3D')
);
#1580=(
LENGTH_UNIT()
NAMED_UNIT(*)
SI_UNIT(.MILLI.,.METRE.)
);
#1581=(
LENGTH_UNIT()
NAMED_UNIT(*)
SI_UNIT($,.METRE.)
);
#1582=(
NAMED_UNIT(*)
PLANE_ANGLE_UNIT()
SI_UNIT($,.RADIAN.)
);
#1583=(
NAMED_UNIT(*)
SI_UNIT($,.STERADIAN.)
SOLID_ANGLE_UNIT()
);
#1584=SHAPE_DEFINITION_REPRESENTATION(#1585,#1586);
#1585=PRODUCT_DEFINITION_SHAPE('',$,#1588);
#1586=SHAPE_REPRESENTATION('',(#1008),#1578);
#1587=PRODUCT_DEFINITION_CONTEXT('part definition',#1592,'design');
#1588=PRODUCT_DEFINITION('heat sink for a electric chip',
'heat sink for a electric chip v2',#1589,#1587);
#1589=PRODUCT_DEFINITION_FORMATION('',$,#1594);
#1590=PRODUCT_RELATED_PRODUCT_CATEGORY(
'heat sink for a electric chip v2','heat sink for a electric chip v2',(#1594));
#1591=APPLICATION_PROTOCOL_DEFINITION('international standard',
'automotive_design',2009,#1592);
#1592=APPLICATION_CONTEXT(
'Core Data for Automotive Mechanical Design Process');
#1593=PRODUCT_CONTEXT('part definition',#1592,'mechanical');
#1594=PRODUCT('heat sink for a electric chip',
'heat sink for a electric chip v2',$,(#1593));
#1595=PRESENTATION_STYLE_ASSIGNMENT((#1596));
#1596=SURFACE_STYLE_USAGE(.BOTH.,#1597);
#1597=SURFACE_SIDE_STYLE('',(#1598));
#1598=SURFACE_STYLE_FILL_AREA(#1599);
#1599=FILL_AREA_STYLE('Steel - Satin',(#1600));
#1600=FILL_AREA_STYLE_COLOUR('Steel - Satin',#1601);
#1601=COLOUR_RGB('Steel - Satin',0.627450980392157,0.627450980392157,0.627450980392157);
ENDSEC;
END-ISO-10303-21;
