ISO-10303-21;
HEADER;
/* Generated by software containing ST-Developer
 * from STEP Tools, Inc. (www.steptools.com) 
 */

FILE_DESCRIPTION(
/* description */ (''),
/* implementation_level */ '2;1');

FILE_NAME(
/* name */ '10_FIN_HEAT_SINK.step',
/* time_stamp */ '2026-09-25T23:51:46+05:30',
/* author */ (''),
/* organization */ (''),
/* preprocessor_version */ 'ST-DEVELOPER v20.2',
/* originating_system */ 'Autodesk Translation Framework v15.15.0.0',
/* authorisation */ '');

FILE_SCHEMA (('AUTOMOTIVE_DESIGN { 1 0 10303 214 3 1 1 }'));
ENDSEC;

DATA;
#10=MECHANICAL_DESIGN_GEOMETRIC_PRESENTATION_REPRESENTATION('',(#23,#24),
#1629);
#11=ITEM_DEFINED_TRANSFORMATION($,$,#1035,#1087);
#12=ITEM_DEFINED_TRANSFORMATION($,$,#1080,#1088);
#13=(
REPRESENTATION_RELATIONSHIP($,$,#1643,#1642)
REPRESENTATION_RELATIONSHIP_WITH_TRANSFORMATION(#11)
SHAPE_REPRESENTATION_RELATIONSHIP()
);
#14=(
REPRESENTATION_RELATIONSHIP($,$,#1644,#1642)
REPRESENTATION_RELATIONSHIP_WITH_TRANSFORMATION(#12)
SHAPE_REPRESENTATION_RELATIONSHIP()
);
#15=CONTEXT_DEPENDENT_SHAPE_REPRESENTATION(#13,#1640);
#16=CONTEXT_DEPENDENT_SHAPE_REPRESENTATION(#14,#1641);
#17=NEXT_ASSEMBLY_USAGE_OCCURRENCE('10 fin hea sink v2:1',
'10 fin hea sink v2:1','10 fin hea sink v2:1',#1646,#1647,
'10 fin hea sink v2:1');
#18=NEXT_ASSEMBLY_USAGE_OCCURRENCE('CHIP v1:1','CHIP v1:1','CHIP v1:1',
#1646,#1648,'CHIP v1:1');
#19=SHAPE_REPRESENTATION_RELATIONSHIP('SRR','None',#1643,#21);
#20=SHAPE_REPRESENTATION_RELATIONSHIP('SRR','None',#1644,#22);
#21=ADVANCED_BREP_SHAPE_REPRESENTATION('',(#25),#1627);
#22=ADVANCED_BREP_SHAPE_REPRESENTATION('',(#26),#1628);
#23=STYLED_ITEM('',(#1661),#25);
#24=STYLED_ITEM('',(#1661),#26);
#25=MANIFOLD_SOLID_BREP('Body1',#1009);
#26=MANIFOLD_SOLID_BREP('Body1',#1010);
#27=FACE_OUTER_BOUND('',#77,.T.);
#28=FACE_OUTER_BOUND('',#78,.T.);
#29=FACE_OUTER_BOUND('',#79,.T.);
#30=FACE_OUTER_BOUND('',#80,.T.);
#31=FACE_OUTER_BOUND('',#81,.T.);
#32=FACE_OUTER_BOUND('',#82,.T.);
#33=FACE_OUTER_BOUND('',#83,.T.);
#34=FACE_OUTER_BOUND('',#84,.T.);
#35=FACE_OUTER_BOUND('',#85,.T.);
#36=FACE_OUTER_BOUND('',#86,.T.);
#37=FACE_OUTER_BOUND('',#87,.T.);
#38=FACE_OUTER_BOUND('',#88,.T.);
#39=FACE_OUTER_BOUND('',#89,.T.);
#40=FACE_OUTER_BOUND('',#90,.T.);
#41=FACE_OUTER_BOUND('',#91,.T.);
#42=FACE_OUTER_BOUND('',#92,.T.);
#43=FACE_OUTER_BOUND('',#93,.T.);
#44=FACE_OUTER_BOUND('',#94,.T.);
#45=FACE_OUTER_BOUND('',#95,.T.);
#46=FACE_OUTER_BOUND('',#96,.T.);
#47=FACE_OUTER_BOUND('',#97,.T.);
#48=FACE_OUTER_BOUND('',#98,.T.);
#49=FACE_OUTER_BOUND('',#99,.T.);
#50=FACE_OUTER_BOUND('',#100,.T.);
#51=FACE_OUTER_BOUND('',#101,.T.);
#52=FACE_OUTER_BOUND('',#102,.T.);
#53=FACE_OUTER_BOUND('',#103,.T.);
#54=FACE_OUTER_BOUND('',#104,.T.);
#55=FACE_OUTER_BOUND('',#105,.T.);
#56=FACE_OUTER_BOUND('',#106,.T.);
#57=FACE_OUTER_BOUND('',#107,.T.);
#58=FACE_OUTER_BOUND('',#108,.T.);
#59=FACE_OUTER_BOUND('',#109,.T.);
#60=FACE_OUTER_BOUND('',#110,.T.);
#61=FACE_OUTER_BOUND('',#111,.T.);
#62=FACE_OUTER_BOUND('',#112,.T.);
#63=FACE_OUTER_BOUND('',#113,.T.);
#64=FACE_OUTER_BOUND('',#114,.T.);
#65=FACE_OUTER_BOUND('',#115,.T.);
#66=FACE_OUTER_BOUND('',#116,.T.);
#67=FACE_OUTER_BOUND('',#117,.T.);
#68=FACE_OUTER_BOUND('',#118,.T.);
#69=FACE_OUTER_BOUND('',#119,.T.);
#70=FACE_OUTER_BOUND('',#120,.T.);
#71=FACE_OUTER_BOUND('',#121,.T.);
#72=FACE_OUTER_BOUND('',#122,.T.);
#73=FACE_OUTER_BOUND('',#123,.T.);
#74=FACE_OUTER_BOUND('',#124,.T.);
#75=FACE_OUTER_BOUND('',#125,.T.);
#76=FACE_OUTER_BOUND('',#126,.T.);
#77=EDGE_LOOP('',(#633,#634,#635,#636));
#78=EDGE_LOOP('',(#637,#638,#639,#640));
#79=EDGE_LOOP('',(#641,#642,#643,#644));
#80=EDGE_LOOP('',(#645,#646,#647,#648));
#81=EDGE_LOOP('',(#649,#650,#651,#652));
#82=EDGE_LOOP('',(#653,#654,#655,#656));
#83=EDGE_LOOP('',(#657,#658,#659,#660));
#84=EDGE_LOOP('',(#661,#662,#663,#664));
#85=EDGE_LOOP('',(#665,#666,#667,#668));
#86=EDGE_LOOP('',(#669,#670,#671,#672));
#87=EDGE_LOOP('',(#673,#674,#675,#676));
#88=EDGE_LOOP('',(#677,#678,#679,#680));
#89=EDGE_LOOP('',(#681,#682,#683,#684));
#90=EDGE_LOOP('',(#685,#686,#687,#688));
#91=EDGE_LOOP('',(#689,#690,#691,#692));
#92=EDGE_LOOP('',(#693,#694,#695,#696));
#93=EDGE_LOOP('',(#697,#698,#699,#700));
#94=EDGE_LOOP('',(#701,#702,#703,#704));
#95=EDGE_LOOP('',(#705,#706,#707,#708));
#96=EDGE_LOOP('',(#709,#710,#711,#712));
#97=EDGE_LOOP('',(#713,#714,#715,#716));
#98=EDGE_LOOP('',(#717,#718,#719,#720));
#99=EDGE_LOOP('',(#721,#722,#723,#724));
#100=EDGE_LOOP('',(#725,#726,#727,#728));
#101=EDGE_LOOP('',(#729,#730,#731,#732));
#102=EDGE_LOOP('',(#733,#734,#735,#736));
#103=EDGE_LOOP('',(#737,#738,#739,#740));
#104=EDGE_LOOP('',(#741,#742,#743,#744));
#105=EDGE_LOOP('',(#745,#746,#747,#748));
#106=EDGE_LOOP('',(#749,#750,#751,#752));
#107=EDGE_LOOP('',(#753,#754,#755,#756));
#108=EDGE_LOOP('',(#757,#758,#759,#760));
#109=EDGE_LOOP('',(#761,#762,#763,#764));
#110=EDGE_LOOP('',(#765,#766,#767,#768));
#111=EDGE_LOOP('',(#769,#770,#771,#772));
#112=EDGE_LOOP('',(#773,#774,#775,#776));
#113=EDGE_LOOP('',(#777,#778,#779,#780));
#114=EDGE_LOOP('',(#781,#782,#783,#784));
#115=EDGE_LOOP('',(#785,#786,#787,#788));
#116=EDGE_LOOP('',(#789,#790,#791,#792));
#117=EDGE_LOOP('',(#793,#794,#795,#796));
#118=EDGE_LOOP('',(#797,#798,#799,#800,#801,#802,#803,#804,#805,#806,#807,
#808,#809,#810,#811,#812,#813,#814,#815,#816,#817,#818,#819,#820,#821,#822,
#823,#824,#825,#826,#827,#828,#829,#830,#831,#832,#833,#834,#835,#836,#837,
#838));
#119=EDGE_LOOP('',(#839,#840,#841,#842));
#120=EDGE_LOOP('',(#843,#844,#845,#846,#847,#848,#849,#850,#851,#852,#853,
#854,#855,#856,#857,#858,#859,#860,#861,#862,#863,#864,#865,#866,#867,#868,
#869,#870,#871,#872,#873,#874,#875,#876,#877,#878,#879,#880,#881,#882,#883,
#884));
#121=EDGE_LOOP('',(#885,#886,#887,#888));
#122=EDGE_LOOP('',(#889,#890,#891,#892));
#123=EDGE_LOOP('',(#893,#894,#895,#896));
#124=EDGE_LOOP('',(#897,#898,#899,#900));
#125=EDGE_LOOP('',(#901,#902,#903,#904));
#126=EDGE_LOOP('',(#905,#906,#907,#908));
#127=LINE('',#1342,#265);
#128=LINE('',#1344,#266);
#129=LINE('',#1346,#267);
#130=LINE('',#1347,#268);
#131=LINE('',#1350,#269);
#132=LINE('',#1352,#270);
#133=LINE('',#1353,#271);
#134=LINE('',#1356,#272);
#135=LINE('',#1358,#273);
#136=LINE('',#1359,#274);
#137=LINE('',#1362,#275);
#138=LINE('',#1364,#276);
#139=LINE('',#1365,#277);
#140=LINE('',#1368,#278);
#141=LINE('',#1370,#279);
#142=LINE('',#1371,#280);
#143=LINE('',#1375,#281);
#144=LINE('',#1377,#282);
#145=LINE('',#1379,#283);
#146=LINE('',#1380,#284);
#147=LINE('',#1384,#285);
#148=LINE('',#1386,#286);
#149=LINE('',#1388,#287);
#150=LINE('',#1389,#288);
#151=LINE('',#1391,#289);
#152=LINE('',#1392,#290);
#153=LINE('',#1395,#291);
#154=LINE('',#1397,#292);
#155=LINE('',#1398,#293);
#156=LINE('',#1401,#294);
#157=LINE('',#1403,#295);
#158=LINE('',#1404,#296);
#159=LINE('',#1408,#297);
#160=LINE('',#1410,#298);
#161=LINE('',#1412,#299);
#162=LINE('',#1413,#300);
#163=LINE('',#1417,#301);
#164=LINE('',#1419,#302);
#165=LINE('',#1421,#303);
#166=LINE('',#1422,#304);
#167=LINE('',#1424,#305);
#168=LINE('',#1425,#306);
#169=LINE('',#1428,#307);
#170=LINE('',#1430,#308);
#171=LINE('',#1431,#309);
#172=LINE('',#1434,#310);
#173=LINE('',#1436,#311);
#174=LINE('',#1437,#312);
#175=LINE('',#1440,#313);
#176=LINE('',#1442,#314);
#177=LINE('',#1443,#315);
#178=LINE('',#1447,#316);
#179=LINE('',#1449,#317);
#180=LINE('',#1451,#318);
#181=LINE('',#1452,#319);
#182=LINE('',#1454,#320);
#183=LINE('',#1455,#321);
#184=LINE('',#1458,#322);
#185=LINE('',#1460,#323);
#186=LINE('',#1461,#324);
#187=LINE('',#1464,#325);
#188=LINE('',#1466,#326);
#189=LINE('',#1467,#327);
#190=LINE('',#1471,#328);
#191=LINE('',#1473,#329);
#192=LINE('',#1475,#330);
#193=LINE('',#1476,#331);
#194=LINE('',#1478,#332);
#195=LINE('',#1479,#333);
#196=LINE('',#1482,#334);
#197=LINE('',#1484,#335);
#198=LINE('',#1485,#336);
#199=LINE('',#1489,#337);
#200=LINE('',#1491,#338);
#201=LINE('',#1493,#339);
#202=LINE('',#1494,#340);
#203=LINE('',#1497,#341);
#204=LINE('',#1499,#342);
#205=LINE('',#1500,#343);
#206=LINE('',#1502,#344);
#207=LINE('',#1503,#345);
#208=LINE('',#1506,#346);
#209=LINE('',#1508,#347);
#210=LINE('',#1509,#348);
#211=LINE('',#1513,#349);
#212=LINE('',#1515,#350);
#213=LINE('',#1517,#351);
#214=LINE('',#1518,#352);
#215=LINE('',#1521,#353);
#216=LINE('',#1523,#354);
#217=LINE('',#1524,#355);
#218=LINE('',#1526,#356);
#219=LINE('',#1527,#357);
#220=LINE('',#1530,#358);
#221=LINE('',#1532,#359);
#222=LINE('',#1533,#360);
#223=LINE('',#1536,#361);
#224=LINE('',#1538,#362);
#225=LINE('',#1539,#363);
#226=LINE('',#1542,#364);
#227=LINE('',#1544,#365);
#228=LINE('',#1545,#366);
#229=LINE('',#1548,#367);
#230=LINE('',#1550,#368);
#231=LINE('',#1551,#369);
#232=LINE('',#1554,#370);
#233=LINE('',#1556,#371);
#234=LINE('',#1557,#372);
#235=LINE('',#1559,#373);
#236=LINE('',#1560,#374);
#237=LINE('',#1563,#375);
#238=LINE('',#1565,#376);
#239=LINE('',#1566,#377);
#240=LINE('',#1569,#378);
#241=LINE('',#1571,#379);
#242=LINE('',#1572,#380);
#243=LINE('',#1574,#381);
#244=LINE('',#1575,#382);
#245=LINE('',#1579,#383);
#246=LINE('',#1581,#384);
#247=LINE('',#1583,#385);
#248=LINE('',#1584,#386);
#249=LINE('',#1586,#387);
#250=LINE('',#1587,#388);
#251=LINE('',#1589,#389);
#252=LINE('',#1591,#390);
#253=LINE('',#1597,#391);
#254=LINE('',#1599,#392);
#255=LINE('',#1601,#393);
#256=LINE('',#1602,#394);
#257=LINE('',#1605,#395);
#258=LINE('',#1607,#396);
#259=LINE('',#1608,#397);
#260=LINE('',#1611,#398);
#261=LINE('',#1613,#399);
#262=LINE('',#1614,#400);
#263=LINE('',#1616,#401);
#264=LINE('',#1617,#402);
#265=VECTOR('',#1095,10.);
#266=VECTOR('',#1096,10.);
#267=VECTOR('',#1097,10.);
#268=VECTOR('',#1098,10.);
#269=VECTOR('',#1101,10.);
#270=VECTOR('',#1102,10.);
#271=VECTOR('',#1103,10.);
#272=VECTOR('',#1106,10.);
#273=VECTOR('',#1107,10.);
#274=VECTOR('',#1108,10.);
#275=VECTOR('',#1111,10.);
#276=VECTOR('',#1112,10.);
#277=VECTOR('',#1113,10.);
#278=VECTOR('',#1116,10.);
#279=VECTOR('',#1117,10.);
#280=VECTOR('',#1118,10.);
#281=VECTOR('',#1121,10.);
#282=VECTOR('',#1122,10.);
#283=VECTOR('',#1123,10.);
#284=VECTOR('',#1124,10.);
#285=VECTOR('',#1127,10.);
#286=VECTOR('',#1128,10.);
#287=VECTOR('',#1129,10.);
#288=VECTOR('',#1130,10.);
#289=VECTOR('',#1133,10.);
#290=VECTOR('',#1134,10.);
#291=VECTOR('',#1137,10.);
#292=VECTOR('',#1138,10.);
#293=VECTOR('',#1139,10.);
#294=VECTOR('',#1142,10.);
#295=VECTOR('',#1143,10.);
#296=VECTOR('',#1144,10.);
#297=VECTOR('',#1147,10.);
#298=VECTOR('',#1148,10.);
#299=VECTOR('',#1149,10.);
#300=VECTOR('',#1150,10.);
#301=VECTOR('',#1153,10.);
#302=VECTOR('',#1154,10.);
#303=VECTOR('',#1155,10.);
#304=VECTOR('',#1156,10.);
#305=VECTOR('',#1159,10.);
#306=VECTOR('',#1160,10.);
#307=VECTOR('',#1163,10.);
#308=VECTOR('',#1164,10.);
#309=VECTOR('',#1165,10.);
#310=VECTOR('',#1168,10.);
#311=VECTOR('',#1169,10.);
#312=VECTOR('',#1170,10.);
#313=VECTOR('',#1173,10.);
#314=VECTOR('',#1174,10.);
#315=VECTOR('',#1175,10.);
#316=VECTOR('',#1178,10.);
#317=VECTOR('',#1179,10.);
#318=VECTOR('',#1180,10.);
#319=VECTOR('',#1181,10.);
#320=VECTOR('',#1184,10.);
#321=VECTOR('',#1185,10.);
#322=VECTOR('',#1188,10.);
#323=VECTOR('',#1189,10.);
#324=VECTOR('',#1190,10.);
#325=VECTOR('',#1193,10.);
#326=VECTOR('',#1194,10.);
#327=VECTOR('',#1195,10.);
#328=VECTOR('',#1198,10.);
#329=VECTOR('',#1199,10.);
#330=VECTOR('',#1200,10.);
#331=VECTOR('',#1201,10.);
#332=VECTOR('',#1204,10.);
#333=VECTOR('',#1205,10.);
#334=VECTOR('',#1208,10.);
#335=VECTOR('',#1209,10.);
#336=VECTOR('',#1210,10.);
#337=VECTOR('',#1213,10.);
#338=VECTOR('',#1214,10.);
#339=VECTOR('',#1215,10.);
#340=VECTOR('',#1216,10.);
#341=VECTOR('',#1219,10.);
#342=VECTOR('',#1220,10.);
#343=VECTOR('',#1221,10.);
#344=VECTOR('',#1224,10.);
#345=VECTOR('',#1225,10.);
#346=VECTOR('',#1228,10.);
#347=VECTOR('',#1229,10.);
#348=VECTOR('',#1230,10.);
#349=VECTOR('',#1233,10.);
#350=VECTOR('',#1234,10.);
#351=VECTOR('',#1235,10.);
#352=VECTOR('',#1236,10.);
#353=VECTOR('',#1239,10.);
#354=VECTOR('',#1240,10.);
#355=VECTOR('',#1241,10.);
#356=VECTOR('',#1244,10.);
#357=VECTOR('',#1245,10.);
#358=VECTOR('',#1248,10.);
#359=VECTOR('',#1249,10.);
#360=VECTOR('',#1250,10.);
#361=VECTOR('',#1253,10.);
#362=VECTOR('',#1254,10.);
#363=VECTOR('',#1255,10.);
#364=VECTOR('',#1258,10.);
#365=VECTOR('',#1259,10.);
#366=VECTOR('',#1260,10.);
#367=VECTOR('',#1263,10.);
#368=VECTOR('',#1264,10.);
#369=VECTOR('',#1265,10.);
#370=VECTOR('',#1268,10.);
#371=VECTOR('',#1269,10.);
#372=VECTOR('',#1270,10.);
#373=VECTOR('',#1273,10.);
#374=VECTOR('',#1274,10.);
#375=VECTOR('',#1277,10.);
#376=VECTOR('',#1278,10.);
#377=VECTOR('',#1279,10.);
#378=VECTOR('',#1282,10.);
#379=VECTOR('',#1283,10.);
#380=VECTOR('',#1284,10.);
#381=VECTOR('',#1287,10.);
#382=VECTOR('',#1288,10.);
#383=VECTOR('',#1291,10.);
#384=VECTOR('',#1292,10.);
#385=VECTOR('',#1293,10.);
#386=VECTOR('',#1294,10.);
#387=VECTOR('',#1297,10.);
#388=VECTOR('',#1298,10.);
#389=VECTOR('',#1301,10.);
#390=VECTOR('',#1304,10.);
#391=VECTOR('',#1311,10.);
#392=VECTOR('',#1312,10.);
#393=VECTOR('',#1313,10.);
#394=VECTOR('',#1314,10.);
#395=VECTOR('',#1317,10.);
#396=VECTOR('',#1318,10.);
#397=VECTOR('',#1319,10.);
#398=VECTOR('',#1322,10.);
#399=VECTOR('',#1323,10.);
#400=VECTOR('',#1324,10.);
#401=VECTOR('',#1327,10.);
#402=VECTOR('',#1328,10.);
#403=VERTEX_POINT('',#1340);
#404=VERTEX_POINT('',#1341);
#405=VERTEX_POINT('',#1343);
#406=VERTEX_POINT('',#1345);
#407=VERTEX_POINT('',#1349);
#408=VERTEX_POINT('',#1351);
#409=VERTEX_POINT('',#1355);
#410=VERTEX_POINT('',#1357);
#411=VERTEX_POINT('',#1361);
#412=VERTEX_POINT('',#1363);
#413=VERTEX_POINT('',#1367);
#414=VERTEX_POINT('',#1369);
#415=VERTEX_POINT('',#1373);
#416=VERTEX_POINT('',#1374);
#417=VERTEX_POINT('',#1376);
#418=VERTEX_POINT('',#1378);
#419=VERTEX_POINT('',#1382);
#420=VERTEX_POINT('',#1383);
#421=VERTEX_POINT('',#1385);
#422=VERTEX_POINT('',#1387);
#423=VERTEX_POINT('',#1394);
#424=VERTEX_POINT('',#1396);
#425=VERTEX_POINT('',#1400);
#426=VERTEX_POINT('',#1402);
#427=VERTEX_POINT('',#1406);
#428=VERTEX_POINT('',#1407);
#429=VERTEX_POINT('',#1409);
#430=VERTEX_POINT('',#1411);
#431=VERTEX_POINT('',#1415);
#432=VERTEX_POINT('',#1416);
#433=VERTEX_POINT('',#1418);
#434=VERTEX_POINT('',#1420);
#435=VERTEX_POINT('',#1427);
#436=VERTEX_POINT('',#1429);
#437=VERTEX_POINT('',#1433);
#438=VERTEX_POINT('',#1435);
#439=VERTEX_POINT('',#1439);
#440=VERTEX_POINT('',#1441);
#441=VERTEX_POINT('',#1445);
#442=VERTEX_POINT('',#1446);
#443=VERTEX_POINT('',#1448);
#444=VERTEX_POINT('',#1450);
#445=VERTEX_POINT('',#1457);
#446=VERTEX_POINT('',#1459);
#447=VERTEX_POINT('',#1463);
#448=VERTEX_POINT('',#1465);
#449=VERTEX_POINT('',#1469);
#450=VERTEX_POINT('',#1470);
#451=VERTEX_POINT('',#1472);
#452=VERTEX_POINT('',#1474);
#453=VERTEX_POINT('',#1481);
#454=VERTEX_POINT('',#1483);
#455=VERTEX_POINT('',#1487);
#456=VERTEX_POINT('',#1488);
#457=VERTEX_POINT('',#1490);
#458=VERTEX_POINT('',#1492);
#459=VERTEX_POINT('',#1496);
#460=VERTEX_POINT('',#1498);
#461=VERTEX_POINT('',#1505);
#462=VERTEX_POINT('',#1507);
#463=VERTEX_POINT('',#1511);
#464=VERTEX_POINT('',#1512);
#465=VERTEX_POINT('',#1514);
#466=VERTEX_POINT('',#1516);
#467=VERTEX_POINT('',#1520);
#468=VERTEX_POINT('',#1522);
#469=VERTEX_POINT('',#1529);
#470=VERTEX_POINT('',#1531);
#471=VERTEX_POINT('',#1535);
#472=VERTEX_POINT('',#1537);
#473=VERTEX_POINT('',#1541);
#474=VERTEX_POINT('',#1543);
#475=VERTEX_POINT('',#1547);
#476=VERTEX_POINT('',#1549);
#477=VERTEX_POINT('',#1553);
#478=VERTEX_POINT('',#1555);
#479=VERTEX_POINT('',#1562);
#480=VERTEX_POINT('',#1564);
#481=VERTEX_POINT('',#1568);
#482=VERTEX_POINT('',#1570);
#483=VERTEX_POINT('',#1577);
#484=VERTEX_POINT('',#1578);
#485=VERTEX_POINT('',#1580);
#486=VERTEX_POINT('',#1582);
#487=VERTEX_POINT('',#1595);
#488=VERTEX_POINT('',#1596);
#489=VERTEX_POINT('',#1598);
#490=VERTEX_POINT('',#1600);
#491=VERTEX_POINT('',#1604);
#492=VERTEX_POINT('',#1606);
#493=VERTEX_POINT('',#1610);
#494=VERTEX_POINT('',#1612);
#495=EDGE_CURVE('',#403,#404,#127,.T.);
#496=EDGE_CURVE('',#404,#405,#128,.T.);
#497=EDGE_CURVE('',#406,#405,#129,.T.);
#498=EDGE_CURVE('',#403,#406,#130,.T.);
#499=EDGE_CURVE('',#407,#403,#131,.T.);
#500=EDGE_CURVE('',#408,#406,#132,.T.);
#501=EDGE_CURVE('',#407,#408,#133,.T.);
#502=EDGE_CURVE('',#404,#409,#134,.T.);
#503=EDGE_CURVE('',#410,#409,#135,.T.);
#504=EDGE_CURVE('',#405,#410,#136,.T.);
#505=EDGE_CURVE('',#408,#411,#137,.T.);
#506=EDGE_CURVE('',#411,#412,#138,.T.);
#507=EDGE_CURVE('',#412,#407,#139,.T.);
#508=EDGE_CURVE('',#409,#413,#140,.T.);
#509=EDGE_CURVE('',#413,#414,#141,.T.);
#510=EDGE_CURVE('',#414,#410,#142,.T.);
#511=EDGE_CURVE('',#415,#416,#143,.T.);
#512=EDGE_CURVE('',#416,#417,#144,.T.);
#513=EDGE_CURVE('',#418,#417,#145,.T.);
#514=EDGE_CURVE('',#415,#418,#146,.T.);
#515=EDGE_CURVE('',#419,#420,#147,.T.);
#516=EDGE_CURVE('',#421,#420,#148,.T.);
#517=EDGE_CURVE('',#422,#421,#149,.T.);
#518=EDGE_CURVE('',#419,#422,#150,.T.);
#519=EDGE_CURVE('',#416,#419,#151,.T.);
#520=EDGE_CURVE('',#417,#422,#152,.T.);
#521=EDGE_CURVE('',#418,#423,#153,.T.);
#522=EDGE_CURVE('',#423,#424,#154,.T.);
#523=EDGE_CURVE('',#424,#415,#155,.T.);
#524=EDGE_CURVE('',#420,#425,#156,.T.);
#525=EDGE_CURVE('',#425,#426,#157,.T.);
#526=EDGE_CURVE('',#426,#421,#158,.T.);
#527=EDGE_CURVE('',#427,#428,#159,.T.);
#528=EDGE_CURVE('',#428,#429,#160,.T.);
#529=EDGE_CURVE('',#430,#429,#161,.T.);
#530=EDGE_CURVE('',#427,#430,#162,.T.);
#531=EDGE_CURVE('',#431,#432,#163,.T.);
#532=EDGE_CURVE('',#433,#432,#164,.T.);
#533=EDGE_CURVE('',#434,#433,#165,.T.);
#534=EDGE_CURVE('',#431,#434,#166,.T.);
#535=EDGE_CURVE('',#428,#431,#167,.T.);
#536=EDGE_CURVE('',#429,#434,#168,.T.);
#537=EDGE_CURVE('',#430,#435,#169,.T.);
#538=EDGE_CURVE('',#435,#436,#170,.T.);
#539=EDGE_CURVE('',#436,#427,#171,.T.);
#540=EDGE_CURVE('',#432,#437,#172,.T.);
#541=EDGE_CURVE('',#437,#438,#173,.T.);
#542=EDGE_CURVE('',#438,#433,#174,.T.);
#543=EDGE_CURVE('',#437,#439,#175,.T.);
#544=EDGE_CURVE('',#439,#440,#176,.T.);
#545=EDGE_CURVE('',#438,#440,#177,.T.);
#546=EDGE_CURVE('',#441,#442,#178,.T.);
#547=EDGE_CURVE('',#443,#442,#179,.T.);
#548=EDGE_CURVE('',#444,#443,#180,.T.);
#549=EDGE_CURVE('',#441,#444,#181,.T.);
#550=EDGE_CURVE('',#439,#441,#182,.T.);
#551=EDGE_CURVE('',#440,#444,#183,.T.);
#552=EDGE_CURVE('',#442,#445,#184,.T.);
#553=EDGE_CURVE('',#445,#446,#185,.T.);
#554=EDGE_CURVE('',#446,#443,#186,.T.);
#555=EDGE_CURVE('',#425,#447,#187,.T.);
#556=EDGE_CURVE('',#447,#448,#188,.T.);
#557=EDGE_CURVE('',#426,#448,#189,.T.);
#558=EDGE_CURVE('',#449,#450,#190,.T.);
#559=EDGE_CURVE('',#451,#450,#191,.T.);
#560=EDGE_CURVE('',#452,#451,#192,.T.);
#561=EDGE_CURVE('',#449,#452,#193,.T.);
#562=EDGE_CURVE('',#447,#449,#194,.T.);
#563=EDGE_CURVE('',#448,#452,#195,.T.);
#564=EDGE_CURVE('',#450,#453,#196,.T.);
#565=EDGE_CURVE('',#453,#454,#197,.T.);
#566=EDGE_CURVE('',#454,#451,#198,.T.);
#567=EDGE_CURVE('',#455,#456,#199,.T.);
#568=EDGE_CURVE('',#456,#457,#200,.T.);
#569=EDGE_CURVE('',#458,#457,#201,.T.);
#570=EDGE_CURVE('',#455,#458,#202,.T.);
#571=EDGE_CURVE('',#459,#412,#203,.T.);
#572=EDGE_CURVE('',#460,#411,#204,.T.);
#573=EDGE_CURVE('',#459,#460,#205,.T.);
#574=EDGE_CURVE('',#456,#459,#206,.T.);
#575=EDGE_CURVE('',#457,#460,#207,.T.);
#576=EDGE_CURVE('',#458,#461,#208,.T.);
#577=EDGE_CURVE('',#461,#462,#209,.T.);
#578=EDGE_CURVE('',#462,#455,#210,.T.);
#579=EDGE_CURVE('',#463,#464,#211,.T.);
#580=EDGE_CURVE('',#464,#465,#212,.T.);
#581=EDGE_CURVE('',#466,#465,#213,.T.);
#582=EDGE_CURVE('',#463,#466,#214,.T.);
#583=EDGE_CURVE('',#467,#424,#215,.T.);
#584=EDGE_CURVE('',#468,#423,#216,.T.);
#585=EDGE_CURVE('',#467,#468,#217,.T.);
#586=EDGE_CURVE('',#464,#467,#218,.T.);
#587=EDGE_CURVE('',#465,#468,#219,.T.);
#588=EDGE_CURVE('',#466,#469,#220,.T.);
#589=EDGE_CURVE('',#469,#470,#221,.T.);
#590=EDGE_CURVE('',#470,#463,#222,.T.);
#591=EDGE_CURVE('',#471,#436,#223,.T.);
#592=EDGE_CURVE('',#472,#435,#224,.T.);
#593=EDGE_CURVE('',#471,#472,#225,.T.);
#594=EDGE_CURVE('',#473,#471,#226,.T.);
#595=EDGE_CURVE('',#474,#472,#227,.T.);
#596=EDGE_CURVE('',#473,#474,#228,.T.);
#597=EDGE_CURVE('',#445,#475,#229,.T.);
#598=EDGE_CURVE('',#475,#476,#230,.T.);
#599=EDGE_CURVE('',#446,#476,#231,.T.);
#600=EDGE_CURVE('',#477,#470,#232,.T.);
#601=EDGE_CURVE('',#478,#469,#233,.T.);
#602=EDGE_CURVE('',#477,#478,#234,.T.);
#603=EDGE_CURVE('',#475,#477,#235,.T.);
#604=EDGE_CURVE('',#476,#478,#236,.T.);
#605=EDGE_CURVE('',#453,#479,#237,.T.);
#606=EDGE_CURVE('',#479,#480,#238,.T.);
#607=EDGE_CURVE('',#454,#480,#239,.T.);
#608=EDGE_CURVE('',#481,#462,#240,.T.);
#609=EDGE_CURVE('',#482,#461,#241,.T.);
#610=EDGE_CURVE('',#481,#482,#242,.T.);
#611=EDGE_CURVE('',#479,#481,#243,.T.);
#612=EDGE_CURVE('',#480,#482,#244,.T.);
#613=EDGE_CURVE('',#483,#484,#245,.T.);
#614=EDGE_CURVE('',#485,#483,#246,.T.);
#615=EDGE_CURVE('',#486,#485,#247,.T.);
#616=EDGE_CURVE('',#484,#486,#248,.T.);
#617=EDGE_CURVE('',#483,#414,#249,.T.);
#618=EDGE_CURVE('',#485,#413,#250,.T.);
#619=EDGE_CURVE('',#486,#473,#251,.T.);
#620=EDGE_CURVE('',#484,#474,#252,.T.);
#621=EDGE_CURVE('',#487,#488,#253,.T.);
#622=EDGE_CURVE('',#487,#489,#254,.T.);
#623=EDGE_CURVE('',#490,#489,#255,.T.);
#624=EDGE_CURVE('',#488,#490,#256,.T.);
#625=EDGE_CURVE('',#488,#491,#257,.T.);
#626=EDGE_CURVE('',#492,#490,#258,.T.);
#627=EDGE_CURVE('',#491,#492,#259,.T.);
#628=EDGE_CURVE('',#493,#491,#260,.T.);
#629=EDGE_CURVE('',#494,#492,#261,.T.);
#630=EDGE_CURVE('',#493,#494,#262,.T.);
#631=EDGE_CURVE('',#487,#493,#263,.T.);
#632=EDGE_CURVE('',#489,#494,#264,.T.);
#633=ORIENTED_EDGE('',*,*,#495,.T.);
#634=ORIENTED_EDGE('',*,*,#496,.T.);
#635=ORIENTED_EDGE('',*,*,#497,.F.);
#636=ORIENTED_EDGE('',*,*,#498,.F.);
#637=ORIENTED_EDGE('',*,*,#499,.T.);
#638=ORIENTED_EDGE('',*,*,#498,.T.);
#639=ORIENTED_EDGE('',*,*,#500,.F.);
#640=ORIENTED_EDGE('',*,*,#501,.F.);
#641=ORIENTED_EDGE('',*,*,#502,.T.);
#642=ORIENTED_EDGE('',*,*,#503,.F.);
#643=ORIENTED_EDGE('',*,*,#504,.F.);
#644=ORIENTED_EDGE('',*,*,#496,.F.);
#645=ORIENTED_EDGE('',*,*,#501,.T.);
#646=ORIENTED_EDGE('',*,*,#505,.T.);
#647=ORIENTED_EDGE('',*,*,#506,.T.);
#648=ORIENTED_EDGE('',*,*,#507,.T.);
#649=ORIENTED_EDGE('',*,*,#503,.T.);
#650=ORIENTED_EDGE('',*,*,#508,.T.);
#651=ORIENTED_EDGE('',*,*,#509,.T.);
#652=ORIENTED_EDGE('',*,*,#510,.T.);
#653=ORIENTED_EDGE('',*,*,#511,.T.);
#654=ORIENTED_EDGE('',*,*,#512,.T.);
#655=ORIENTED_EDGE('',*,*,#513,.F.);
#656=ORIENTED_EDGE('',*,*,#514,.F.);
#657=ORIENTED_EDGE('',*,*,#515,.T.);
#658=ORIENTED_EDGE('',*,*,#516,.F.);
#659=ORIENTED_EDGE('',*,*,#517,.F.);
#660=ORIENTED_EDGE('',*,*,#518,.F.);
#661=ORIENTED_EDGE('',*,*,#519,.T.);
#662=ORIENTED_EDGE('',*,*,#518,.T.);
#663=ORIENTED_EDGE('',*,*,#520,.F.);
#664=ORIENTED_EDGE('',*,*,#512,.F.);
#665=ORIENTED_EDGE('',*,*,#514,.T.);
#666=ORIENTED_EDGE('',*,*,#521,.T.);
#667=ORIENTED_EDGE('',*,*,#522,.T.);
#668=ORIENTED_EDGE('',*,*,#523,.T.);
#669=ORIENTED_EDGE('',*,*,#516,.T.);
#670=ORIENTED_EDGE('',*,*,#524,.T.);
#671=ORIENTED_EDGE('',*,*,#525,.T.);
#672=ORIENTED_EDGE('',*,*,#526,.T.);
#673=ORIENTED_EDGE('',*,*,#527,.T.);
#674=ORIENTED_EDGE('',*,*,#528,.T.);
#675=ORIENTED_EDGE('',*,*,#529,.F.);
#676=ORIENTED_EDGE('',*,*,#530,.F.);
#677=ORIENTED_EDGE('',*,*,#531,.T.);
#678=ORIENTED_EDGE('',*,*,#532,.F.);
#679=ORIENTED_EDGE('',*,*,#533,.F.);
#680=ORIENTED_EDGE('',*,*,#534,.F.);
#681=ORIENTED_EDGE('',*,*,#535,.T.);
#682=ORIENTED_EDGE('',*,*,#534,.T.);
#683=ORIENTED_EDGE('',*,*,#536,.F.);
#684=ORIENTED_EDGE('',*,*,#528,.F.);
#685=ORIENTED_EDGE('',*,*,#530,.T.);
#686=ORIENTED_EDGE('',*,*,#537,.T.);
#687=ORIENTED_EDGE('',*,*,#538,.T.);
#688=ORIENTED_EDGE('',*,*,#539,.T.);
#689=ORIENTED_EDGE('',*,*,#532,.T.);
#690=ORIENTED_EDGE('',*,*,#540,.T.);
#691=ORIENTED_EDGE('',*,*,#541,.T.);
#692=ORIENTED_EDGE('',*,*,#542,.T.);
#693=ORIENTED_EDGE('',*,*,#543,.T.);
#694=ORIENTED_EDGE('',*,*,#544,.T.);
#695=ORIENTED_EDGE('',*,*,#545,.F.);
#696=ORIENTED_EDGE('',*,*,#541,.F.);
#697=ORIENTED_EDGE('',*,*,#546,.T.);
#698=ORIENTED_EDGE('',*,*,#547,.F.);
#699=ORIENTED_EDGE('',*,*,#548,.F.);
#700=ORIENTED_EDGE('',*,*,#549,.F.);
#701=ORIENTED_EDGE('',*,*,#550,.T.);
#702=ORIENTED_EDGE('',*,*,#549,.T.);
#703=ORIENTED_EDGE('',*,*,#551,.F.);
#704=ORIENTED_EDGE('',*,*,#544,.F.);
#705=ORIENTED_EDGE('',*,*,#547,.T.);
#706=ORIENTED_EDGE('',*,*,#552,.T.);
#707=ORIENTED_EDGE('',*,*,#553,.T.);
#708=ORIENTED_EDGE('',*,*,#554,.T.);
#709=ORIENTED_EDGE('',*,*,#555,.T.);
#710=ORIENTED_EDGE('',*,*,#556,.T.);
#711=ORIENTED_EDGE('',*,*,#557,.F.);
#712=ORIENTED_EDGE('',*,*,#525,.F.);
#713=ORIENTED_EDGE('',*,*,#558,.T.);
#714=ORIENTED_EDGE('',*,*,#559,.F.);
#715=ORIENTED_EDGE('',*,*,#560,.F.);
#716=ORIENTED_EDGE('',*,*,#561,.F.);
#717=ORIENTED_EDGE('',*,*,#562,.T.);
#718=ORIENTED_EDGE('',*,*,#561,.T.);
#719=ORIENTED_EDGE('',*,*,#563,.F.);
#720=ORIENTED_EDGE('',*,*,#556,.F.);
#721=ORIENTED_EDGE('',*,*,#559,.T.);
#722=ORIENTED_EDGE('',*,*,#564,.T.);
#723=ORIENTED_EDGE('',*,*,#565,.T.);
#724=ORIENTED_EDGE('',*,*,#566,.T.);
#725=ORIENTED_EDGE('',*,*,#567,.T.);
#726=ORIENTED_EDGE('',*,*,#568,.T.);
#727=ORIENTED_EDGE('',*,*,#569,.F.);
#728=ORIENTED_EDGE('',*,*,#570,.F.);
#729=ORIENTED_EDGE('',*,*,#571,.T.);
#730=ORIENTED_EDGE('',*,*,#506,.F.);
#731=ORIENTED_EDGE('',*,*,#572,.F.);
#732=ORIENTED_EDGE('',*,*,#573,.F.);
#733=ORIENTED_EDGE('',*,*,#574,.T.);
#734=ORIENTED_EDGE('',*,*,#573,.T.);
#735=ORIENTED_EDGE('',*,*,#575,.F.);
#736=ORIENTED_EDGE('',*,*,#568,.F.);
#737=ORIENTED_EDGE('',*,*,#570,.T.);
#738=ORIENTED_EDGE('',*,*,#576,.T.);
#739=ORIENTED_EDGE('',*,*,#577,.T.);
#740=ORIENTED_EDGE('',*,*,#578,.T.);
#741=ORIENTED_EDGE('',*,*,#579,.T.);
#742=ORIENTED_EDGE('',*,*,#580,.T.);
#743=ORIENTED_EDGE('',*,*,#581,.F.);
#744=ORIENTED_EDGE('',*,*,#582,.F.);
#745=ORIENTED_EDGE('',*,*,#583,.T.);
#746=ORIENTED_EDGE('',*,*,#522,.F.);
#747=ORIENTED_EDGE('',*,*,#584,.F.);
#748=ORIENTED_EDGE('',*,*,#585,.F.);
#749=ORIENTED_EDGE('',*,*,#586,.T.);
#750=ORIENTED_EDGE('',*,*,#585,.T.);
#751=ORIENTED_EDGE('',*,*,#587,.F.);
#752=ORIENTED_EDGE('',*,*,#580,.F.);
#753=ORIENTED_EDGE('',*,*,#582,.T.);
#754=ORIENTED_EDGE('',*,*,#588,.T.);
#755=ORIENTED_EDGE('',*,*,#589,.T.);
#756=ORIENTED_EDGE('',*,*,#590,.T.);
#757=ORIENTED_EDGE('',*,*,#591,.T.);
#758=ORIENTED_EDGE('',*,*,#538,.F.);
#759=ORIENTED_EDGE('',*,*,#592,.F.);
#760=ORIENTED_EDGE('',*,*,#593,.F.);
#761=ORIENTED_EDGE('',*,*,#594,.T.);
#762=ORIENTED_EDGE('',*,*,#593,.T.);
#763=ORIENTED_EDGE('',*,*,#595,.F.);
#764=ORIENTED_EDGE('',*,*,#596,.F.);
#765=ORIENTED_EDGE('',*,*,#597,.T.);
#766=ORIENTED_EDGE('',*,*,#598,.T.);
#767=ORIENTED_EDGE('',*,*,#599,.F.);
#768=ORIENTED_EDGE('',*,*,#553,.F.);
#769=ORIENTED_EDGE('',*,*,#600,.T.);
#770=ORIENTED_EDGE('',*,*,#589,.F.);
#771=ORIENTED_EDGE('',*,*,#601,.F.);
#772=ORIENTED_EDGE('',*,*,#602,.F.);
#773=ORIENTED_EDGE('',*,*,#603,.T.);
#774=ORIENTED_EDGE('',*,*,#602,.T.);
#775=ORIENTED_EDGE('',*,*,#604,.F.);
#776=ORIENTED_EDGE('',*,*,#598,.F.);
#777=ORIENTED_EDGE('',*,*,#605,.T.);
#778=ORIENTED_EDGE('',*,*,#606,.T.);
#779=ORIENTED_EDGE('',*,*,#607,.F.);
#780=ORIENTED_EDGE('',*,*,#565,.F.);
#781=ORIENTED_EDGE('',*,*,#608,.T.);
#782=ORIENTED_EDGE('',*,*,#577,.F.);
#783=ORIENTED_EDGE('',*,*,#609,.F.);
#784=ORIENTED_EDGE('',*,*,#610,.F.);
#785=ORIENTED_EDGE('',*,*,#611,.T.);
#786=ORIENTED_EDGE('',*,*,#610,.T.);
#787=ORIENTED_EDGE('',*,*,#612,.F.);
#788=ORIENTED_EDGE('',*,*,#606,.F.);
#789=ORIENTED_EDGE('',*,*,#613,.F.);
#790=ORIENTED_EDGE('',*,*,#614,.F.);
#791=ORIENTED_EDGE('',*,*,#615,.F.);
#792=ORIENTED_EDGE('',*,*,#616,.F.);
#793=ORIENTED_EDGE('',*,*,#614,.T.);
#794=ORIENTED_EDGE('',*,*,#617,.T.);
#795=ORIENTED_EDGE('',*,*,#509,.F.);
#796=ORIENTED_EDGE('',*,*,#618,.F.);
#797=ORIENTED_EDGE('',*,*,#615,.T.);
#798=ORIENTED_EDGE('',*,*,#618,.T.);
#799=ORIENTED_EDGE('',*,*,#508,.F.);
#800=ORIENTED_EDGE('',*,*,#502,.F.);
#801=ORIENTED_EDGE('',*,*,#495,.F.);
#802=ORIENTED_EDGE('',*,*,#499,.F.);
#803=ORIENTED_EDGE('',*,*,#507,.F.);
#804=ORIENTED_EDGE('',*,*,#571,.F.);
#805=ORIENTED_EDGE('',*,*,#574,.F.);
#806=ORIENTED_EDGE('',*,*,#567,.F.);
#807=ORIENTED_EDGE('',*,*,#578,.F.);
#808=ORIENTED_EDGE('',*,*,#608,.F.);
#809=ORIENTED_EDGE('',*,*,#611,.F.);
#810=ORIENTED_EDGE('',*,*,#605,.F.);
#811=ORIENTED_EDGE('',*,*,#564,.F.);
#812=ORIENTED_EDGE('',*,*,#558,.F.);
#813=ORIENTED_EDGE('',*,*,#562,.F.);
#814=ORIENTED_EDGE('',*,*,#555,.F.);
#815=ORIENTED_EDGE('',*,*,#524,.F.);
#816=ORIENTED_EDGE('',*,*,#515,.F.);
#817=ORIENTED_EDGE('',*,*,#519,.F.);
#818=ORIENTED_EDGE('',*,*,#511,.F.);
#819=ORIENTED_EDGE('',*,*,#523,.F.);
#820=ORIENTED_EDGE('',*,*,#583,.F.);
#821=ORIENTED_EDGE('',*,*,#586,.F.);
#822=ORIENTED_EDGE('',*,*,#579,.F.);
#823=ORIENTED_EDGE('',*,*,#590,.F.);
#824=ORIENTED_EDGE('',*,*,#600,.F.);
#825=ORIENTED_EDGE('',*,*,#603,.F.);
#826=ORIENTED_EDGE('',*,*,#597,.F.);
#827=ORIENTED_EDGE('',*,*,#552,.F.);
#828=ORIENTED_EDGE('',*,*,#546,.F.);
#829=ORIENTED_EDGE('',*,*,#550,.F.);
#830=ORIENTED_EDGE('',*,*,#543,.F.);
#831=ORIENTED_EDGE('',*,*,#540,.F.);
#832=ORIENTED_EDGE('',*,*,#531,.F.);
#833=ORIENTED_EDGE('',*,*,#535,.F.);
#834=ORIENTED_EDGE('',*,*,#527,.F.);
#835=ORIENTED_EDGE('',*,*,#539,.F.);
#836=ORIENTED_EDGE('',*,*,#591,.F.);
#837=ORIENTED_EDGE('',*,*,#594,.F.);
#838=ORIENTED_EDGE('',*,*,#619,.F.);
#839=ORIENTED_EDGE('',*,*,#616,.T.);
#840=ORIENTED_EDGE('',*,*,#619,.T.);
#841=ORIENTED_EDGE('',*,*,#596,.T.);
#842=ORIENTED_EDGE('',*,*,#620,.F.);
#843=ORIENTED_EDGE('',*,*,#613,.T.);
#844=ORIENTED_EDGE('',*,*,#620,.T.);
#845=ORIENTED_EDGE('',*,*,#595,.T.);
#846=ORIENTED_EDGE('',*,*,#592,.T.);
#847=ORIENTED_EDGE('',*,*,#537,.F.);
#848=ORIENTED_EDGE('',*,*,#529,.T.);
#849=ORIENTED_EDGE('',*,*,#536,.T.);
#850=ORIENTED_EDGE('',*,*,#533,.T.);
#851=ORIENTED_EDGE('',*,*,#542,.F.);
#852=ORIENTED_EDGE('',*,*,#545,.T.);
#853=ORIENTED_EDGE('',*,*,#551,.T.);
#854=ORIENTED_EDGE('',*,*,#548,.T.);
#855=ORIENTED_EDGE('',*,*,#554,.F.);
#856=ORIENTED_EDGE('',*,*,#599,.T.);
#857=ORIENTED_EDGE('',*,*,#604,.T.);
#858=ORIENTED_EDGE('',*,*,#601,.T.);
#859=ORIENTED_EDGE('',*,*,#588,.F.);
#860=ORIENTED_EDGE('',*,*,#581,.T.);
#861=ORIENTED_EDGE('',*,*,#587,.T.);
#862=ORIENTED_EDGE('',*,*,#584,.T.);
#863=ORIENTED_EDGE('',*,*,#521,.F.);
#864=ORIENTED_EDGE('',*,*,#513,.T.);
#865=ORIENTED_EDGE('',*,*,#520,.T.);
#866=ORIENTED_EDGE('',*,*,#517,.T.);
#867=ORIENTED_EDGE('',*,*,#526,.F.);
#868=ORIENTED_EDGE('',*,*,#557,.T.);
#869=ORIENTED_EDGE('',*,*,#563,.T.);
#870=ORIENTED_EDGE('',*,*,#560,.T.);
#871=ORIENTED_EDGE('',*,*,#566,.F.);
#872=ORIENTED_EDGE('',*,*,#607,.T.);
#873=ORIENTED_EDGE('',*,*,#612,.T.);
#874=ORIENTED_EDGE('',*,*,#609,.T.);
#875=ORIENTED_EDGE('',*,*,#576,.F.);
#876=ORIENTED_EDGE('',*,*,#569,.T.);
#877=ORIENTED_EDGE('',*,*,#575,.T.);
#878=ORIENTED_EDGE('',*,*,#572,.T.);
#879=ORIENTED_EDGE('',*,*,#505,.F.);
#880=ORIENTED_EDGE('',*,*,#500,.T.);
#881=ORIENTED_EDGE('',*,*,#497,.T.);
#882=ORIENTED_EDGE('',*,*,#504,.T.);
#883=ORIENTED_EDGE('',*,*,#510,.F.);
#884=ORIENTED_EDGE('',*,*,#617,.F.);
#885=ORIENTED_EDGE('',*,*,#621,.F.);
#886=ORIENTED_EDGE('',*,*,#622,.T.);
#887=ORIENTED_EDGE('',*,*,#623,.F.);
#888=ORIENTED_EDGE('',*,*,#624,.F.);
#889=ORIENTED_EDGE('',*,*,#625,.F.);
#890=ORIENTED_EDGE('',*,*,#624,.T.);
#891=ORIENTED_EDGE('',*,*,#626,.F.);
#892=ORIENTED_EDGE('',*,*,#627,.F.);
#893=ORIENTED_EDGE('',*,*,#628,.T.);
#894=ORIENTED_EDGE('',*,*,#627,.T.);
#895=ORIENTED_EDGE('',*,*,#629,.F.);
#896=ORIENTED_EDGE('',*,*,#630,.F.);
#897=ORIENTED_EDGE('',*,*,#631,.T.);
#898=ORIENTED_EDGE('',*,*,#630,.T.);
#899=ORIENTED_EDGE('',*,*,#632,.F.);
#900=ORIENTED_EDGE('',*,*,#622,.F.);
#901=ORIENTED_EDGE('',*,*,#632,.T.);
#902=ORIENTED_EDGE('',*,*,#629,.T.);
#903=ORIENTED_EDGE('',*,*,#626,.T.);
#904=ORIENTED_EDGE('',*,*,#623,.T.);
#905=ORIENTED_EDGE('',*,*,#631,.F.);
#906=ORIENTED_EDGE('',*,*,#621,.T.);
#907=ORIENTED_EDGE('',*,*,#625,.T.);
#908=ORIENTED_EDGE('',*,*,#628,.F.);
#909=PLANE('',#1036);
#910=PLANE('',#1037);
#911=PLANE('',#1038);
#912=PLANE('',#1039);
#913=PLANE('',#1040);
#914=PLANE('',#1041);
#915=PLANE('',#1042);
#916=PLANE('',#1043);
#917=PLANE('',#1044);
#918=PLANE('',#1045);
#919=PLANE('',#1046);
#920=PLANE('',#1047);
#921=PLANE('',#1048);
#922=PLANE('',#1049);
#923=PLANE('',#1050);
#924=PLANE('',#1051);
#925=PLANE('',#1052);
#926=PLANE('',#1053);
#927=PLANE('',#1054);
#928=PLANE('',#1055);
#929=PLANE('',#1056);
#930=PLANE('',#1057);
#931=PLANE('',#1058);
#932=PLANE('',#1059);
#933=PLANE('',#1060);
#934=PLANE('',#1061);
#935=PLANE('',#1062);
#936=PLANE('',#1063);
#937=PLANE('',#1064);
#938=PLANE('',#1065);
#939=PLANE('',#1066);
#940=PLANE('',#1067);
#941=PLANE('',#1068);
#942=PLANE('',#1069);
#943=PLANE('',#1070);
#944=PLANE('',#1071);
#945=PLANE('',#1072);
#946=PLANE('',#1073);
#947=PLANE('',#1074);
#948=PLANE('',#1075);
#949=PLANE('',#1076);
#950=PLANE('',#1077);
#951=PLANE('',#1078);
#952=PLANE('',#1079);
#953=PLANE('',#1081);
#954=PLANE('',#1082);
#955=PLANE('',#1083);
#956=PLANE('',#1084);
#957=PLANE('',#1085);
#958=PLANE('',#1086);
#959=ADVANCED_FACE('',(#27),#909,.T.);
#960=ADVANCED_FACE('',(#28),#910,.T.);
#961=ADVANCED_FACE('',(#29),#911,.T.);
#962=ADVANCED_FACE('',(#30),#912,.T.);
#963=ADVANCED_FACE('',(#31),#913,.T.);
#964=ADVANCED_FACE('',(#32),#914,.T.);
#965=ADVANCED_FACE('',(#33),#915,.T.);
#966=ADVANCED_FACE('',(#34),#916,.T.);
#967=ADVANCED_FACE('',(#35),#917,.T.);
#968=ADVANCED_FACE('',(#36),#918,.T.);
#969=ADVANCED_FACE('',(#37),#919,.T.);
#970=ADVANCED_FACE('',(#38),#920,.T.);
#971=ADVANCED_FACE('',(#39),#921,.T.);
#972=ADVANCED_FACE('',(#40),#922,.T.);
#973=ADVANCED_FACE('',(#41),#923,.T.);
#974=ADVANCED_FACE('',(#42),#924,.T.);
#975=ADVANCED_FACE('',(#43),#925,.T.);
#976=ADVANCED_FACE('',(#44),#926,.T.);
#977=ADVANCED_FACE('',(#45),#927,.T.);
#978=ADVANCED_FACE('',(#46),#928,.T.);
#979=ADVANCED_FACE('',(#47),#929,.T.);
#980=ADVANCED_FACE('',(#48),#930,.T.);
#981=ADVANCED_FACE('',(#49),#931,.T.);
#982=ADVANCED_FACE('',(#50),#932,.T.);
#983=ADVANCED_FACE('',(#51),#933,.T.);
#984=ADVANCED_FACE('',(#52),#934,.T.);
#985=ADVANCED_FACE('',(#53),#935,.T.);
#986=ADVANCED_FACE('',(#54),#936,.T.);
#987=ADVANCED_FACE('',(#55),#937,.T.);
#988=ADVANCED_FACE('',(#56),#938,.T.);
#989=ADVANCED_FACE('',(#57),#939,.T.);
#990=ADVANCED_FACE('',(#58),#940,.T.);
#991=ADVANCED_FACE('',(#59),#941,.T.);
#992=ADVANCED_FACE('',(#60),#942,.T.);
#993=ADVANCED_FACE('',(#61),#943,.T.);
#994=ADVANCED_FACE('',(#62),#944,.T.);
#995=ADVANCED_FACE('',(#63),#945,.T.);
#996=ADVANCED_FACE('',(#64),#946,.T.);
#997=ADVANCED_FACE('',(#65),#947,.T.);
#998=ADVANCED_FACE('',(#66),#948,.F.);
#999=ADVANCED_FACE('',(#67),#949,.T.);
#1000=ADVANCED_FACE('',(#68),#950,.T.);
#1001=ADVANCED_FACE('',(#69),#951,.T.);
#1002=ADVANCED_FACE('',(#70),#952,.T.);
#1003=ADVANCED_FACE('',(#71),#953,.T.);
#1004=ADVANCED_FACE('',(#72),#954,.T.);
#1005=ADVANCED_FACE('',(#73),#955,.T.);
#1006=ADVANCED_FACE('',(#74),#956,.T.);
#1007=ADVANCED_FACE('',(#75),#957,.T.);
#1008=ADVANCED_FACE('',(#76),#958,.F.);
#1009=CLOSED_SHELL('',(#959,#960,#961,#962,#963,#964,#965,#966,#967,#968,
#969,#970,#971,#972,#973,#974,#975,#976,#977,#978,#979,#980,#981,#982,#983,
#984,#985,#986,#987,#988,#989,#990,#991,#992,#993,#994,#995,#996,#997,#998,
#999,#1000,#1001,#1002));
#1010=CLOSED_SHELL('',(#1003,#1004,#1005,#1006,#1007,#1008));
#1011=DERIVED_UNIT_ELEMENT(#1015,1.);
#1012=DERIVED_UNIT_ELEMENT(#1631,-3.);
#1013=DERIVED_UNIT_ELEMENT(#1015,1.);
#1014=DERIVED_UNIT_ELEMENT(#1631,-3.);
#1015=(
MASS_UNIT()
NAMED_UNIT(*)
SI_UNIT(.KILO.,.GRAM.)
);
#1016=DERIVED_UNIT((#1011,#1012));
#1017=DERIVED_UNIT((#1013,#1014));
#1018=MEASURE_REPRESENTATION_ITEM('density measure',
POSITIVE_RATIO_MEASURE(7850.),#1016);
#1019=MEASURE_REPRESENTATION_ITEM('density measure',
POSITIVE_RATIO_MEASURE(7850.),#1017);
#1020=PROPERTY_DEFINITION_REPRESENTATION(#1030,#1024);
#1021=PROPERTY_DEFINITION_REPRESENTATION(#1031,#1025);
#1022=PROPERTY_DEFINITION_REPRESENTATION(#1032,#1026);
#1023=PROPERTY_DEFINITION_REPRESENTATION(#1033,#1027);
#1024=REPRESENTATION('material name',(#1028),#1627);
#1025=REPRESENTATION('density',(#1018),#1627);
#1026=REPRESENTATION('material name',(#1029),#1628);
#1027=REPRESENTATION('density',(#1019),#1628);
#1028=DESCRIPTIVE_REPRESENTATION_ITEM('Steel','Steel');
#1029=DESCRIPTIVE_REPRESENTATION_ITEM('Steel','Steel');
#1030=PROPERTY_DEFINITION('material property','material name',#1647);
#1031=PROPERTY_DEFINITION('material property','density of part',#1647);
#1032=PROPERTY_DEFINITION('material property','material name',#1648);
#1033=PROPERTY_DEFINITION('material property','density of part',#1648);
#1034=AXIS2_PLACEMENT_3D('',#1337,#1089,#1090);
#1035=AXIS2_PLACEMENT_3D('',#1338,#1091,#1092);
#1036=AXIS2_PLACEMENT_3D('',#1339,#1093,#1094);
#1037=AXIS2_PLACEMENT_3D('',#1348,#1099,#1100);
#1038=AXIS2_PLACEMENT_3D('',#1354,#1104,#1105);
#1039=AXIS2_PLACEMENT_3D('',#1360,#1109,#1110);
#1040=AXIS2_PLACEMENT_3D('',#1366,#1114,#1115);
#1041=AXIS2_PLACEMENT_3D('',#1372,#1119,#1120);
#1042=AXIS2_PLACEMENT_3D('',#1381,#1125,#1126);
#1043=AXIS2_PLACEMENT_3D('',#1390,#1131,#1132);
#1044=AXIS2_PLACEMENT_3D('',#1393,#1135,#1136);
#1045=AXIS2_PLACEMENT_3D('',#1399,#1140,#1141);
#1046=AXIS2_PLACEMENT_3D('',#1405,#1145,#1146);
#1047=AXIS2_PLACEMENT_3D('',#1414,#1151,#1152);
#1048=AXIS2_PLACEMENT_3D('',#1423,#1157,#1158);
#1049=AXIS2_PLACEMENT_3D('',#1426,#1161,#1162);
#1050=AXIS2_PLACEMENT_3D('',#1432,#1166,#1167);
#1051=AXIS2_PLACEMENT_3D('',#1438,#1171,#1172);
#1052=AXIS2_PLACEMENT_3D('',#1444,#1176,#1177);
#1053=AXIS2_PLACEMENT_3D('',#1453,#1182,#1183);
#1054=AXIS2_PLACEMENT_3D('',#1456,#1186,#1187);
#1055=AXIS2_PLACEMENT_3D('',#1462,#1191,#1192);
#1056=AXIS2_PLACEMENT_3D('',#1468,#1196,#1197);
#1057=AXIS2_PLACEMENT_3D('',#1477,#1202,#1203);
#1058=AXIS2_PLACEMENT_3D('',#1480,#1206,#1207);
#1059=AXIS2_PLACEMENT_3D('',#1486,#1211,#1212);
#1060=AXIS2_PLACEMENT_3D('',#1495,#1217,#1218);
#1061=AXIS2_PLACEMENT_3D('',#1501,#1222,#1223);
#1062=AXIS2_PLACEMENT_3D('',#1504,#1226,#1227);
#1063=AXIS2_PLACEMENT_3D('',#1510,#1231,#1232);
#1064=AXIS2_PLACEMENT_3D('',#1519,#1237,#1238);
#1065=AXIS2_PLACEMENT_3D('',#1525,#1242,#1243);
#1066=AXIS2_PLACEMENT_3D('',#1528,#1246,#1247);
#1067=AXIS2_PLACEMENT_3D('',#1534,#1251,#1252);
#1068=AXIS2_PLACEMENT_3D('',#1540,#1256,#1257);
#1069=AXIS2_PLACEMENT_3D('',#1546,#1261,#1262);
#1070=AXIS2_PLACEMENT_3D('',#1552,#1266,#1267);
#1071=AXIS2_PLACEMENT_3D('',#1558,#1271,#1272);
#1072=AXIS2_PLACEMENT_3D('',#1561,#1275,#1276);
#1073=AXIS2_PLACEMENT_3D('',#1567,#1280,#1281);
#1074=AXIS2_PLACEMENT_3D('',#1573,#1285,#1286);
#1075=AXIS2_PLACEMENT_3D('',#1576,#1289,#1290);
#1076=AXIS2_PLACEMENT_3D('',#1585,#1295,#1296);
#1077=AXIS2_PLACEMENT_3D('',#1588,#1299,#1300);
#1078=AXIS2_PLACEMENT_3D('',#1590,#1302,#1303);
#1079=AXIS2_PLACEMENT_3D('',#1592,#1305,#1306);
#1080=AXIS2_PLACEMENT_3D('',#1593,#1307,#1308);
#1081=AXIS2_PLACEMENT_3D('',#1594,#1309,#1310);
#1082=AXIS2_PLACEMENT_3D('',#1603,#1315,#1316);
#1083=AXIS2_PLACEMENT_3D('',#1609,#1320,#1321);
#1084=AXIS2_PLACEMENT_3D('',#1615,#1325,#1326);
#1085=AXIS2_PLACEMENT_3D('',#1618,#1329,#1330);
#1086=AXIS2_PLACEMENT_3D('',#1619,#1331,#1332);
#1087=AXIS2_PLACEMENT_3D('',#1620,#1333,#1334);
#1088=AXIS2_PLACEMENT_3D('',#1621,#1335,#1336);
#1089=DIRECTION('axis',(0.,0.,1.));
#1090=DIRECTION('refdir',(1.,0.,0.));
#1091=DIRECTION('axis',(0.,0.,1.));
#1092=DIRECTION('refdir',(1.,0.,0.));
#1093=DIRECTION('center_axis',(0.,1.,0.));
#1094=DIRECTION('ref_axis',(1.,0.,0.));
#1095=DIRECTION('',(1.,0.,0.));
#1096=DIRECTION('',(0.,0.,-1.));
#1097=DIRECTION('',(1.,0.,0.));
#1098=DIRECTION('',(0.,0.,-1.));
#1099=DIRECTION('center_axis',(-1.,0.,0.));
#1100=DIRECTION('ref_axis',(0.,1.,0.));
#1101=DIRECTION('',(0.,1.,0.));
#1102=DIRECTION('',(0.,1.,0.));
#1103=DIRECTION('',(0.,0.,-1.));
#1104=DIRECTION('center_axis',(1.,0.,0.));
#1105=DIRECTION('ref_axis',(0.,-1.,0.));
#1106=DIRECTION('',(0.,-1.,0.));
#1107=DIRECTION('',(0.,0.,1.));
#1108=DIRECTION('',(0.,-1.,0.));
#1109=DIRECTION('center_axis',(0.,1.,0.));
#1110=DIRECTION('ref_axis',(0.,0.,1.));
#1111=DIRECTION('',(-1.,0.,5.55111512312578E-17));
#1112=DIRECTION('',(0.,0.,1.));
#1113=DIRECTION('',(1.,0.,-1.11022302462516E-16));
#1114=DIRECTION('center_axis',(0.,1.,0.));
#1115=DIRECTION('ref_axis',(0.,0.,1.));
#1116=DIRECTION('',(1.,0.,-1.11022302462516E-16));
#1117=DIRECTION('',(0.,0.,-1.));
#1118=DIRECTION('',(-1.,0.,5.55111512312578E-17));
#1119=DIRECTION('center_axis',(-1.,0.,0.));
#1120=DIRECTION('ref_axis',(0.,1.,0.));
#1121=DIRECTION('',(0.,1.,0.));
#1122=DIRECTION('',(0.,0.,-1.));
#1123=DIRECTION('',(0.,1.,0.));
#1124=DIRECTION('',(0.,0.,-1.));
#1125=DIRECTION('center_axis',(1.,0.,0.));
#1126=DIRECTION('ref_axis',(0.,-1.,0.));
#1127=DIRECTION('',(0.,-1.,0.));
#1128=DIRECTION('',(0.,0.,1.));
#1129=DIRECTION('',(0.,-1.,0.));
#1130=DIRECTION('',(0.,0.,-1.));
#1131=DIRECTION('center_axis',(0.,1.,0.));
#1132=DIRECTION('ref_axis',(1.,0.,0.));
#1133=DIRECTION('',(1.,0.,0.));
#1134=DIRECTION('',(1.,0.,0.));
#1135=DIRECTION('center_axis',(0.,1.,0.));
#1136=DIRECTION('ref_axis',(0.,0.,1.));
#1137=DIRECTION('',(-1.,0.,5.55111512312578E-17));
#1138=DIRECTION('',(0.,0.,1.));
#1139=DIRECTION('',(1.,0.,-1.11022302462516E-16));
#1140=DIRECTION('center_axis',(0.,1.,0.));
#1141=DIRECTION('ref_axis',(0.,0.,1.));
#1142=DIRECTION('',(1.,0.,-1.11022302462516E-16));
#1143=DIRECTION('',(0.,0.,-1.));
#1144=DIRECTION('',(-1.,0.,5.55111512312578E-17));
#1145=DIRECTION('center_axis',(-1.,0.,0.));
#1146=DIRECTION('ref_axis',(0.,1.,0.));
#1147=DIRECTION('',(0.,1.,0.));
#1148=DIRECTION('',(0.,0.,-1.));
#1149=DIRECTION('',(0.,1.,0.));
#1150=DIRECTION('',(0.,0.,-1.));
#1151=DIRECTION('center_axis',(1.,0.,0.));
#1152=DIRECTION('ref_axis',(0.,-1.,0.));
#1153=DIRECTION('',(0.,-1.,0.));
#1154=DIRECTION('',(0.,0.,1.));
#1155=DIRECTION('',(0.,-1.,0.));
#1156=DIRECTION('',(0.,0.,-1.));
#1157=DIRECTION('center_axis',(0.,1.,0.));
#1158=DIRECTION('ref_axis',(1.,0.,0.));
#1159=DIRECTION('',(1.,0.,0.));
#1160=DIRECTION('',(1.,0.,0.));
#1161=DIRECTION('center_axis',(0.,1.,0.));
#1162=DIRECTION('ref_axis',(0.,0.,1.));
#1163=DIRECTION('',(-1.,0.,5.55111512312578E-17));
#1164=DIRECTION('',(0.,0.,1.));
#1165=DIRECTION('',(1.,0.,-1.11022302462516E-16));
#1166=DIRECTION('center_axis',(0.,1.,0.));
#1167=DIRECTION('ref_axis',(0.,0.,1.));
#1168=DIRECTION('',(1.,0.,-1.11022302462516E-16));
#1169=DIRECTION('',(0.,0.,-1.));
#1170=DIRECTION('',(-1.,0.,5.55111512312578E-17));
#1171=DIRECTION('center_axis',(-1.,0.,0.));
#1172=DIRECTION('ref_axis',(0.,1.,0.));
#1173=DIRECTION('',(0.,1.,0.));
#1174=DIRECTION('',(0.,0.,-1.));
#1175=DIRECTION('',(0.,1.,0.));
#1176=DIRECTION('center_axis',(1.,0.,0.));
#1177=DIRECTION('ref_axis',(0.,-1.,0.));
#1178=DIRECTION('',(0.,-1.,0.));
#1179=DIRECTION('',(0.,0.,1.));
#1180=DIRECTION('',(0.,-1.,0.));
#1181=DIRECTION('',(0.,0.,-1.));
#1182=DIRECTION('center_axis',(0.,1.,0.));
#1183=DIRECTION('ref_axis',(1.,0.,0.));
#1184=DIRECTION('',(1.,0.,0.));
#1185=DIRECTION('',(1.,0.,0.));
#1186=DIRECTION('center_axis',(0.,1.,0.));
#1187=DIRECTION('ref_axis',(0.,0.,1.));
#1188=DIRECTION('',(1.,0.,-1.11022302462516E-16));
#1189=DIRECTION('',(0.,0.,-1.));
#1190=DIRECTION('',(-1.,0.,5.55111512312578E-17));
#1191=DIRECTION('center_axis',(-1.,0.,0.));
#1192=DIRECTION('ref_axis',(0.,1.,0.));
#1193=DIRECTION('',(0.,1.,0.));
#1194=DIRECTION('',(0.,0.,-1.));
#1195=DIRECTION('',(0.,1.,0.));
#1196=DIRECTION('center_axis',(1.,0.,0.));
#1197=DIRECTION('ref_axis',(0.,-1.,0.));
#1198=DIRECTION('',(0.,-1.,0.));
#1199=DIRECTION('',(0.,0.,1.));
#1200=DIRECTION('',(0.,-1.,0.));
#1201=DIRECTION('',(0.,0.,-1.));
#1202=DIRECTION('center_axis',(0.,1.,0.));
#1203=DIRECTION('ref_axis',(1.,0.,0.));
#1204=DIRECTION('',(1.,0.,0.));
#1205=DIRECTION('',(1.,0.,0.));
#1206=DIRECTION('center_axis',(0.,1.,0.));
#1207=DIRECTION('ref_axis',(0.,0.,1.));
#1208=DIRECTION('',(1.,0.,-1.11022302462516E-16));
#1209=DIRECTION('',(0.,0.,-1.));
#1210=DIRECTION('',(-1.,0.,5.55111512312578E-17));
#1211=DIRECTION('center_axis',(-1.,0.,0.));
#1212=DIRECTION('ref_axis',(0.,1.,0.));
#1213=DIRECTION('',(0.,1.,0.));
#1214=DIRECTION('',(0.,0.,-1.));
#1215=DIRECTION('',(0.,1.,0.));
#1216=DIRECTION('',(0.,0.,-1.));
#1217=DIRECTION('center_axis',(1.,0.,0.));
#1218=DIRECTION('ref_axis',(0.,-1.,0.));
#1219=DIRECTION('',(0.,-1.,0.));
#1220=DIRECTION('',(0.,-1.,0.));
#1221=DIRECTION('',(0.,0.,-1.));
#1222=DIRECTION('center_axis',(0.,1.,0.));
#1223=DIRECTION('ref_axis',(1.,0.,0.));
#1224=DIRECTION('',(1.,0.,0.));
#1225=DIRECTION('',(1.,0.,0.));
#1226=DIRECTION('center_axis',(0.,1.,0.));
#1227=DIRECTION('ref_axis',(0.,0.,1.));
#1228=DIRECTION('',(-1.,0.,5.55111512312578E-17));
#1229=DIRECTION('',(0.,0.,1.));
#1230=DIRECTION('',(1.,0.,-1.11022302462516E-16));
#1231=DIRECTION('center_axis',(-1.,0.,0.));
#1232=DIRECTION('ref_axis',(0.,1.,0.));
#1233=DIRECTION('',(0.,1.,0.));
#1234=DIRECTION('',(0.,0.,-1.));
#1235=DIRECTION('',(0.,1.,0.));
#1236=DIRECTION('',(0.,0.,-1.));
#1237=DIRECTION('center_axis',(1.,0.,0.));
#1238=DIRECTION('ref_axis',(0.,-1.,0.));
#1239=DIRECTION('',(0.,-1.,0.));
#1240=DIRECTION('',(0.,-1.,0.));
#1241=DIRECTION('',(0.,0.,-1.));
#1242=DIRECTION('center_axis',(0.,1.,0.));
#1243=DIRECTION('ref_axis',(1.,0.,0.));
#1244=DIRECTION('',(1.,0.,0.));
#1245=DIRECTION('',(1.,0.,0.));
#1246=DIRECTION('center_axis',(0.,1.,0.));
#1247=DIRECTION('ref_axis',(0.,0.,1.));
#1248=DIRECTION('',(-1.,0.,5.55111512312578E-17));
#1249=DIRECTION('',(0.,0.,1.));
#1250=DIRECTION('',(1.,0.,-1.11022302462516E-16));
#1251=DIRECTION('center_axis',(1.,0.,0.));
#1252=DIRECTION('ref_axis',(0.,-1.,0.));
#1253=DIRECTION('',(0.,-1.,0.));
#1254=DIRECTION('',(0.,-1.,0.));
#1255=DIRECTION('',(0.,0.,-1.));
#1256=DIRECTION('center_axis',(0.,1.,0.));
#1257=DIRECTION('ref_axis',(1.,0.,0.));
#1258=DIRECTION('',(1.,0.,0.));
#1259=DIRECTION('',(1.,0.,0.));
#1260=DIRECTION('',(0.,0.,-1.));
#1261=DIRECTION('center_axis',(-1.,0.,0.));
#1262=DIRECTION('ref_axis',(0.,1.,0.));
#1263=DIRECTION('',(0.,1.,0.));
#1264=DIRECTION('',(0.,0.,-1.));
#1265=DIRECTION('',(0.,1.,0.));
#1266=DIRECTION('center_axis',(1.,0.,0.));
#1267=DIRECTION('ref_axis',(0.,-1.,0.));
#1268=DIRECTION('',(0.,-1.,0.));
#1269=DIRECTION('',(0.,-1.,0.));
#1270=DIRECTION('',(0.,0.,-1.));
#1271=DIRECTION('center_axis',(0.,1.,0.));
#1272=DIRECTION('ref_axis',(1.,0.,0.));
#1273=DIRECTION('',(1.,0.,0.));
#1274=DIRECTION('',(1.,0.,0.));
#1275=DIRECTION('center_axis',(-1.,0.,0.));
#1276=DIRECTION('ref_axis',(0.,1.,0.));
#1277=DIRECTION('',(0.,1.,0.));
#1278=DIRECTION('',(0.,0.,-1.));
#1279=DIRECTION('',(0.,1.,0.));
#1280=DIRECTION('center_axis',(1.,0.,0.));
#1281=DIRECTION('ref_axis',(0.,-1.,0.));
#1282=DIRECTION('',(0.,-1.,0.));
#1283=DIRECTION('',(0.,-1.,0.));
#1284=DIRECTION('',(0.,0.,-1.));
#1285=DIRECTION('center_axis',(0.,1.,0.));
#1286=DIRECTION('ref_axis',(1.,0.,0.));
#1287=DIRECTION('',(1.,0.,0.));
#1288=DIRECTION('',(1.,0.,0.));
#1289=DIRECTION('center_axis',(0.,1.,0.));
#1290=DIRECTION('ref_axis',(-1.,0.,0.));
#1291=DIRECTION('',(-1.,0.,5.55111512312578E-17));
#1292=DIRECTION('',(0.,0.,-1.));
#1293=DIRECTION('',(1.,0.,-1.11022302462516E-16));
#1294=DIRECTION('',(8.32667268468867E-17,0.,1.));
#1295=DIRECTION('center_axis',(1.,0.,0.));
#1296=DIRECTION('ref_axis',(0.,0.,-1.));
#1297=DIRECTION('',(0.,1.,0.));
#1298=DIRECTION('',(0.,1.,0.));
#1299=DIRECTION('center_axis',(1.11022302462516E-16,0.,1.));
#1300=DIRECTION('ref_axis',(1.,0.,-1.11022302462516E-16));
#1301=DIRECTION('',(0.,1.,0.));
#1302=DIRECTION('center_axis',(-1.,0.,8.32667268468867E-17));
#1303=DIRECTION('ref_axis',(8.32667268468867E-17,0.,1.));
#1304=DIRECTION('',(0.,1.,0.));
#1305=DIRECTION('center_axis',(-5.55111512312578E-17,0.,-1.));
#1306=DIRECTION('ref_axis',(-1.,0.,5.55111512312578E-17));
#1307=DIRECTION('axis',(0.,0.,1.));
#1308=DIRECTION('refdir',(1.,0.,0.));
#1309=DIRECTION('center_axis',(0.,0.,-1.));
#1310=DIRECTION('ref_axis',(-1.,0.,0.));
#1311=DIRECTION('',(1.,0.,0.));
#1312=DIRECTION('',(0.,1.,0.));
#1313=DIRECTION('',(-1.,0.,0.));
#1314=DIRECTION('',(0.,1.,0.));
#1315=DIRECTION('center_axis',(1.,0.,0.));
#1316=DIRECTION('ref_axis',(0.,0.,-1.));
#1317=DIRECTION('',(0.,0.,1.));
#1318=DIRECTION('',(0.,0.,-1.));
#1319=DIRECTION('',(0.,1.,0.));
#1320=DIRECTION('center_axis',(0.,0.,1.));
#1321=DIRECTION('ref_axis',(1.,0.,0.));
#1322=DIRECTION('',(1.,0.,0.));
#1323=DIRECTION('',(1.,0.,0.));
#1324=DIRECTION('',(0.,1.,0.));
#1325=DIRECTION('center_axis',(-1.,0.,0.));
#1326=DIRECTION('ref_axis',(0.,0.,1.));
#1327=DIRECTION('',(0.,0.,1.));
#1328=DIRECTION('',(0.,0.,1.));
#1329=DIRECTION('center_axis',(0.,1.,0.));
#1330=DIRECTION('ref_axis',(0.,0.,1.));
#1331=DIRECTION('center_axis',(0.,1.,0.));
#1332=DIRECTION('ref_axis',(1.,0.,0.));
#1333=DIRECTION('',(0.,0.,1.));
#1334=DIRECTION('',(1.,0.,0.));
#1335=DIRECTION('',(0.,0.,-1.));
#1336=DIRECTION('',(1.,0.,0.));
#1337=CARTESIAN_POINT('',(0.,0.,0.));
#1338=CARTESIAN_POINT('',(0.,0.,0.));
#1339=CARTESIAN_POINT('Origin',(30.4800001676381,33.9999996870756,32.5));
#1340=CARTESIAN_POINT('',(30.4800001676381,33.9999996870756,32.5));
#1341=CARTESIAN_POINT('',(32.4800001676381,33.9999996870756,32.5));
#1342=CARTESIAN_POINT('',(30.4800001676381,33.9999996870756,32.5));
#1343=CARTESIAN_POINT('',(32.4800001676381,33.9999996870756,-7.5));
#1344=CARTESIAN_POINT('',(32.4800001676381,33.9999996870756,32.5));
#1345=CARTESIAN_POINT('',(30.4800001676381,33.9999996870756,-7.5));
#1346=CARTESIAN_POINT('',(30.4800001676381,33.9999996870756,-7.5));
#1347=CARTESIAN_POINT('',(30.4800001676381,33.9999996870756,32.5));
#1348=CARTESIAN_POINT('Origin',(30.4800001676381,14.0000001825262,32.5));
#1349=CARTESIAN_POINT('',(30.4800001676381,14.0000001825262,32.5));
#1350=CARTESIAN_POINT('',(30.4800001676381,13.9999996870756,32.5));
#1351=CARTESIAN_POINT('',(30.4800001676381,14.0000001825262,-7.5));
#1352=CARTESIAN_POINT('',(30.4800001676381,13.9999996870756,-7.5));
#1353=CARTESIAN_POINT('',(30.4800001676381,14.,22.5));
#1354=CARTESIAN_POINT('Origin',(32.4800001676381,33.9999996870756,32.5));
#1355=CARTESIAN_POINT('',(32.4800001676381,14.0000002086163,32.5));
#1356=CARTESIAN_POINT('',(32.4800001676381,33.9999996870756,32.5));
#1357=CARTESIAN_POINT('',(32.4800001676381,14.0000002086163,-7.5));
#1358=CARTESIAN_POINT('',(32.4800001676381,14.,22.5));
#1359=CARTESIAN_POINT('',(32.4800001676381,33.9999996870756,-7.5));
#1360=CARTESIAN_POINT('Origin',(12.5,14.,12.5));
#1361=CARTESIAN_POINT('',(28.2600001676381,14.0000001535662,-7.5));
#1362=CARTESIAN_POINT('',(32.5,14.,-7.5));
#1363=CARTESIAN_POINT('',(28.2600001676381,14.0000001535662,32.5));
#1364=CARTESIAN_POINT('',(28.2600001676381,14.,22.5));
#1365=CARTESIAN_POINT('',(-7.5,14.,32.5));
#1366=CARTESIAN_POINT('Origin',(12.5,14.,12.5));
#1367=CARTESIAN_POINT('',(32.5,14.,32.5));
#1368=CARTESIAN_POINT('',(-7.5,14.,32.5));
#1369=CARTESIAN_POINT('',(32.5,14.,-7.5));
#1370=CARTESIAN_POINT('',(32.5,14.,32.5));
#1371=CARTESIAN_POINT('',(32.5,14.,-7.5));
#1372=CARTESIAN_POINT('Origin',(13.6000001676381,13.9999999623259,32.5));
#1373=CARTESIAN_POINT('',(13.6000001676381,13.9999999623259,32.5));
#1374=CARTESIAN_POINT('',(13.6000001676381,33.9999996870756,32.5));
#1375=CARTESIAN_POINT('',(13.6000001676381,13.9999996870756,32.5));
#1376=CARTESIAN_POINT('',(13.6000001676381,33.9999996870756,-7.5));
#1377=CARTESIAN_POINT('',(13.6000001676381,33.9999996870756,32.5));
#1378=CARTESIAN_POINT('',(13.6000001676381,13.9999999623259,-7.5));
#1379=CARTESIAN_POINT('',(13.6000001676381,13.9999996870756,-7.5));
#1380=CARTESIAN_POINT('',(13.6000001676381,14.,22.5));
#1381=CARTESIAN_POINT('Origin',(15.6000001676381,33.9999996870756,32.5));
#1382=CARTESIAN_POINT('',(15.6000001676381,33.9999996870756,32.5));
#1383=CARTESIAN_POINT('',(15.6000001676381,13.999999988416,32.5));
#1384=CARTESIAN_POINT('',(15.6000001676381,33.9999996870756,32.5));
#1385=CARTESIAN_POINT('',(15.6000001676381,13.999999988416,-7.5));
#1386=CARTESIAN_POINT('',(15.6000001676381,14.,22.5));
#1387=CARTESIAN_POINT('',(15.6000001676381,33.9999996870756,-7.5));
#1388=CARTESIAN_POINT('',(15.6000001676381,33.9999996870756,-7.5));
#1389=CARTESIAN_POINT('',(15.6000001676381,33.9999996870756,32.5));
#1390=CARTESIAN_POINT('Origin',(13.6000001676381,33.9999996870756,32.5));
#1391=CARTESIAN_POINT('',(13.6000001676381,33.9999996870756,32.5));
#1392=CARTESIAN_POINT('',(13.6000001676381,33.9999996870756,-7.5));
#1393=CARTESIAN_POINT('Origin',(12.5,14.,12.5));
#1394=CARTESIAN_POINT('',(11.3800001676381,13.9999999333659,-7.5));
#1395=CARTESIAN_POINT('',(32.5,14.,-7.5));
#1396=CARTESIAN_POINT('',(11.3800001676381,13.9999999333659,32.5));
#1397=CARTESIAN_POINT('',(11.3800001676381,14.,22.5));
#1398=CARTESIAN_POINT('',(-7.5,14.,32.5));
#1399=CARTESIAN_POINT('Origin',(12.5,14.,12.5));
#1400=CARTESIAN_POINT('',(17.8200001676381,14.000000017376,32.5));
#1401=CARTESIAN_POINT('',(-7.5,14.,32.5));
#1402=CARTESIAN_POINT('',(17.8200001676381,14.000000017376,-7.5));
#1403=CARTESIAN_POINT('',(17.8200001676381,14.,22.5));
#1404=CARTESIAN_POINT('',(32.5,14.,-7.5));
#1405=CARTESIAN_POINT('Origin',(-3.27999983236194,13.9999997421257,32.5));
#1406=CARTESIAN_POINT('',(-3.27999983236194,13.9999997421257,32.5));
#1407=CARTESIAN_POINT('',(-3.27999983236194,33.9999996870756,32.5));
#1408=CARTESIAN_POINT('',(-3.27999983236194,13.9999996870756,32.5));
#1409=CARTESIAN_POINT('',(-3.27999983236194,33.9999996870756,-7.5));
#1410=CARTESIAN_POINT('',(-3.27999983236194,33.9999996870756,32.5));
#1411=CARTESIAN_POINT('',(-3.27999983236194,13.9999997421257,-7.5));
#1412=CARTESIAN_POINT('',(-3.27999983236194,13.9999996870756,-7.5));
#1413=CARTESIAN_POINT('',(-3.27999983236194,14.,22.5));
#1414=CARTESIAN_POINT('Origin',(-1.27999983236194,33.9999996870756,32.5));
#1415=CARTESIAN_POINT('',(-1.27999983236194,33.9999996870756,32.5));
#1416=CARTESIAN_POINT('',(-1.27999983236193,13.9999997682158,32.5));
#1417=CARTESIAN_POINT('',(-1.27999983236194,33.9999996870756,32.5));
#1418=CARTESIAN_POINT('',(-1.27999983236193,13.9999997682158,-7.5));
#1419=CARTESIAN_POINT('',(-1.27999983236194,14.,22.5));
#1420=CARTESIAN_POINT('',(-1.27999983236194,33.9999996870756,-7.5));
#1421=CARTESIAN_POINT('',(-1.27999983236194,33.9999996870756,-7.5));
#1422=CARTESIAN_POINT('',(-1.27999983236194,33.9999996870756,32.5));
#1423=CARTESIAN_POINT('Origin',(-3.27999983236194,33.9999996870756,32.5));
#1424=CARTESIAN_POINT('',(-3.27999983236194,33.9999996870756,32.5));
#1425=CARTESIAN_POINT('',(-3.27999983236194,33.9999996870756,-7.5));
#1426=CARTESIAN_POINT('Origin',(12.5,14.,12.5));
#1427=CARTESIAN_POINT('',(-5.49999983236193,13.9999997131657,-7.5));
#1428=CARTESIAN_POINT('',(32.5,14.,-7.5));
#1429=CARTESIAN_POINT('',(-5.49999983236193,13.9999997131657,32.5));
#1430=CARTESIAN_POINT('',(-5.49999983236194,14.,22.5));
#1431=CARTESIAN_POINT('',(-7.5,14.,32.5));
#1432=CARTESIAN_POINT('Origin',(12.5,14.,12.5));
#1433=CARTESIAN_POINT('',(0.940000167638062,13.9999997971757,32.5));
#1434=CARTESIAN_POINT('',(-7.5,14.,32.5));
#1435=CARTESIAN_POINT('',(0.940000167638062,13.9999997971757,-7.5));
#1436=CARTESIAN_POINT('',(0.940000167638062,14.,22.5));
#1437=CARTESIAN_POINT('',(32.5,14.,-7.5));
#1438=CARTESIAN_POINT('Origin',(0.940000167638063,13.9999997971757,32.5));
#1439=CARTESIAN_POINT('',(0.940000167638063,33.9999996870756,32.5));
#1440=CARTESIAN_POINT('',(0.940000167638063,13.9999996870756,32.5));
#1441=CARTESIAN_POINT('',(0.940000167638063,33.9999996870756,-7.5));
#1442=CARTESIAN_POINT('',(0.940000167638063,33.9999996870756,32.5));
#1443=CARTESIAN_POINT('',(0.940000167638063,13.9999996870756,-7.5));
#1444=CARTESIAN_POINT('Origin',(2.94000016763806,33.9999996870756,32.5));
#1445=CARTESIAN_POINT('',(2.94000016763806,33.9999996870756,32.5));
#1446=CARTESIAN_POINT('',(2.94000016763807,13.9999998232658,32.5));
#1447=CARTESIAN_POINT('',(2.94000016763806,33.9999996870756,32.5));
#1448=CARTESIAN_POINT('',(2.94000016763807,13.9999998232658,-7.5));
#1449=CARTESIAN_POINT('',(2.94000016763806,14.,22.5));
#1450=CARTESIAN_POINT('',(2.94000016763806,33.9999996870756,-7.5));
#1451=CARTESIAN_POINT('',(2.94000016763806,33.9999996870756,-7.5));
#1452=CARTESIAN_POINT('',(2.94000016763806,33.9999996870756,32.5));
#1453=CARTESIAN_POINT('Origin',(0.940000167638063,33.9999996870756,32.5));
#1454=CARTESIAN_POINT('',(0.940000167638063,33.9999996870756,32.5));
#1455=CARTESIAN_POINT('',(0.940000167638063,33.9999996870756,-7.5));
#1456=CARTESIAN_POINT('Origin',(12.5,14.,12.5));
#1457=CARTESIAN_POINT('',(5.16000016763806,13.9999998522258,32.5));
#1458=CARTESIAN_POINT('',(-7.5,14.,32.5));
#1459=CARTESIAN_POINT('',(5.16000016763806,13.9999998522258,-7.5));
#1460=CARTESIAN_POINT('',(5.16000016763806,14.,22.5));
#1461=CARTESIAN_POINT('',(32.5,14.,-7.5));
#1462=CARTESIAN_POINT('Origin',(17.8200001676381,14.000000017376,32.5));
#1463=CARTESIAN_POINT('',(17.8200001676381,33.9999996870756,32.5));
#1464=CARTESIAN_POINT('',(17.8200001676381,13.9999996870756,32.5));
#1465=CARTESIAN_POINT('',(17.8200001676381,33.9999996870756,-7.5));
#1466=CARTESIAN_POINT('',(17.8200001676381,33.9999996870756,32.5));
#1467=CARTESIAN_POINT('',(17.8200001676381,13.9999996870756,-7.5));
#1468=CARTESIAN_POINT('Origin',(19.8200001676381,33.9999996870756,32.5));
#1469=CARTESIAN_POINT('',(19.8200001676381,33.9999996870756,32.5));
#1470=CARTESIAN_POINT('',(19.8200001676381,14.0000000434661,32.5));
#1471=CARTESIAN_POINT('',(19.8200001676381,33.9999996870756,32.5));
#1472=CARTESIAN_POINT('',(19.8200001676381,14.0000000434661,-7.5));
#1473=CARTESIAN_POINT('',(19.8200001676381,14.,22.5));
#1474=CARTESIAN_POINT('',(19.8200001676381,33.9999996870756,-7.5));
#1475=CARTESIAN_POINT('',(19.8200001676381,33.9999996870756,-7.5));
#1476=CARTESIAN_POINT('',(19.8200001676381,33.9999996870756,32.5));
#1477=CARTESIAN_POINT('Origin',(17.8200001676381,33.9999996870756,32.5));
#1478=CARTESIAN_POINT('',(17.8200001676381,33.9999996870756,32.5));
#1479=CARTESIAN_POINT('',(17.8200001676381,33.9999996870756,-7.5));
#1480=CARTESIAN_POINT('Origin',(12.5,14.,12.5));
#1481=CARTESIAN_POINT('',(22.0400001676381,14.0000000724261,32.5));
#1482=CARTESIAN_POINT('',(-7.5,14.,32.5));
#1483=CARTESIAN_POINT('',(22.0400001676381,14.0000000724261,-7.5));
#1484=CARTESIAN_POINT('',(22.0400001676381,14.,22.5));
#1485=CARTESIAN_POINT('',(32.5,14.,-7.5));
#1486=CARTESIAN_POINT('Origin',(26.2600001676381,14.0000001274761,32.5));
#1487=CARTESIAN_POINT('',(26.2600001676381,14.0000001274761,32.5));
#1488=CARTESIAN_POINT('',(26.2600001676381,33.9999996870756,32.5));
#1489=CARTESIAN_POINT('',(26.2600001676381,13.9999996870756,32.5));
#1490=CARTESIAN_POINT('',(26.2600001676381,33.9999996870756,-7.5));
#1491=CARTESIAN_POINT('',(26.2600001676381,33.9999996870756,32.5));
#1492=CARTESIAN_POINT('',(26.2600001676381,14.0000001274761,-7.5));
#1493=CARTESIAN_POINT('',(26.2600001676381,13.9999996870756,-7.5));
#1494=CARTESIAN_POINT('',(26.2600001676381,14.,22.5));
#1495=CARTESIAN_POINT('Origin',(28.2600001676381,33.9999996870756,32.5));
#1496=CARTESIAN_POINT('',(28.2600001676381,33.9999996870756,32.5));
#1497=CARTESIAN_POINT('',(28.2600001676381,33.9999996870756,32.5));
#1498=CARTESIAN_POINT('',(28.2600001676381,33.9999996870756,-7.5));
#1499=CARTESIAN_POINT('',(28.2600001676381,33.9999996870756,-7.5));
#1500=CARTESIAN_POINT('',(28.2600001676381,33.9999996870756,32.5));
#1501=CARTESIAN_POINT('Origin',(26.2600001676381,33.9999996870756,32.5));
#1502=CARTESIAN_POINT('',(26.2600001676381,33.9999996870756,32.5));
#1503=CARTESIAN_POINT('',(26.2600001676381,33.9999996870756,-7.5));
#1504=CARTESIAN_POINT('Origin',(12.5,14.,12.5));
#1505=CARTESIAN_POINT('',(24.0400001676381,14.0000000985161,-7.5));
#1506=CARTESIAN_POINT('',(32.5,14.,-7.5));
#1507=CARTESIAN_POINT('',(24.0400001676381,14.0000000985161,32.5));
#1508=CARTESIAN_POINT('',(24.0400001676381,14.,22.5));
#1509=CARTESIAN_POINT('',(-7.5,14.,32.5));
#1510=CARTESIAN_POINT('Origin',(9.38000016763806,13.9999999072759,32.5));
#1511=CARTESIAN_POINT('',(9.38000016763806,13.9999999072759,32.5));
#1512=CARTESIAN_POINT('',(9.38000016763806,33.9999996870756,32.5));
#1513=CARTESIAN_POINT('',(9.38000016763806,13.9999996870756,32.5));
#1514=CARTESIAN_POINT('',(9.38000016763806,33.9999996870756,-7.5));
#1515=CARTESIAN_POINT('',(9.38000016763806,33.9999996870756,32.5));
#1516=CARTESIAN_POINT('',(9.38000016763806,13.9999999072759,-7.5));
#1517=CARTESIAN_POINT('',(9.38000016763806,13.9999996870756,-7.5));
#1518=CARTESIAN_POINT('',(9.38000016763806,14.,22.5));
#1519=CARTESIAN_POINT('Origin',(11.3800001676381,33.9999996870756,32.5));
#1520=CARTESIAN_POINT('',(11.3800001676381,33.9999996870756,32.5));
#1521=CARTESIAN_POINT('',(11.3800001676381,33.9999996870756,32.5));
#1522=CARTESIAN_POINT('',(11.3800001676381,33.9999996870756,-7.5));
#1523=CARTESIAN_POINT('',(11.3800001676381,33.9999996870756,-7.5));
#1524=CARTESIAN_POINT('',(11.3800001676381,33.9999996870756,32.5));
#1525=CARTESIAN_POINT('Origin',(9.38000016763806,33.9999996870756,32.5));
#1526=CARTESIAN_POINT('',(9.38000016763806,33.9999996870756,32.5));
#1527=CARTESIAN_POINT('',(9.38000016763806,33.9999996870756,-7.5));
#1528=CARTESIAN_POINT('Origin',(12.5,14.,12.5));
#1529=CARTESIAN_POINT('',(7.16000016763807,13.9999998783159,-7.5));
#1530=CARTESIAN_POINT('',(32.5,14.,-7.5));
#1531=CARTESIAN_POINT('',(7.16000016763807,13.9999998783159,32.5));
#1532=CARTESIAN_POINT('',(7.16000016763806,14.,22.5));
#1533=CARTESIAN_POINT('',(-7.5,14.,32.5));
#1534=CARTESIAN_POINT('Origin',(-5.49999983236194,33.9999996870756,32.5));
#1535=CARTESIAN_POINT('',(-5.49999983236194,33.9999996870756,32.5));
#1536=CARTESIAN_POINT('',(-5.49999983236194,33.9999996870756,32.5));
#1537=CARTESIAN_POINT('',(-5.49999983236194,33.9999996870756,-7.5));
#1538=CARTESIAN_POINT('',(-5.49999983236194,33.9999996870756,-7.5));
#1539=CARTESIAN_POINT('',(-5.49999983236194,33.9999996870756,32.5));
#1540=CARTESIAN_POINT('Origin',(-7.49999983236194,33.9999996870756,32.5));
#1541=CARTESIAN_POINT('',(-7.49999983236194,33.9999996870756,32.5));
#1542=CARTESIAN_POINT('',(-7.49999983236194,33.9999996870756,32.5));
#1543=CARTESIAN_POINT('',(-7.49999983236194,33.9999996870756,-7.5));
#1544=CARTESIAN_POINT('',(-7.49999983236194,33.9999996870756,-7.5));
#1545=CARTESIAN_POINT('',(-7.49999983236194,33.9999996870756,32.5));
#1546=CARTESIAN_POINT('Origin',(5.16000016763806,13.9999998522258,32.5));
#1547=CARTESIAN_POINT('',(5.16000016763806,33.9999996870756,32.5));
#1548=CARTESIAN_POINT('',(5.16000016763806,13.9999996870756,32.5));
#1549=CARTESIAN_POINT('',(5.16000016763806,33.9999996870756,-7.5));
#1550=CARTESIAN_POINT('',(5.16000016763806,33.9999996870756,32.5));
#1551=CARTESIAN_POINT('',(5.16000016763806,13.9999996870756,-7.5));
#1552=CARTESIAN_POINT('Origin',(7.16000016763806,33.9999996870756,32.5));
#1553=CARTESIAN_POINT('',(7.16000016763806,33.9999996870756,32.5));
#1554=CARTESIAN_POINT('',(7.16000016763806,33.9999996870756,32.5));
#1555=CARTESIAN_POINT('',(7.16000016763806,33.9999996870756,-7.5));
#1556=CARTESIAN_POINT('',(7.16000016763806,33.9999996870756,-7.5));
#1557=CARTESIAN_POINT('',(7.16000016763806,33.9999996870756,32.5));
#1558=CARTESIAN_POINT('Origin',(5.16000016763806,33.9999996870756,32.5));
#1559=CARTESIAN_POINT('',(5.16000016763806,33.9999996870756,32.5));
#1560=CARTESIAN_POINT('',(5.16000016763806,33.9999996870756,-7.5));
#1561=CARTESIAN_POINT('Origin',(22.0400001676381,14.0000000724261,32.5));
#1562=CARTESIAN_POINT('',(22.0400001676381,33.9999996870756,32.5));
#1563=CARTESIAN_POINT('',(22.0400001676381,13.9999996870756,32.5));
#1564=CARTESIAN_POINT('',(22.0400001676381,33.9999996870756,-7.5));
#1565=CARTESIAN_POINT('',(22.0400001676381,33.9999996870756,32.5));
#1566=CARTESIAN_POINT('',(22.0400001676381,13.9999996870756,-7.5));
#1567=CARTESIAN_POINT('Origin',(24.0400001676381,33.9999996870756,32.5));
#1568=CARTESIAN_POINT('',(24.0400001676381,33.9999996870756,32.5));
#1569=CARTESIAN_POINT('',(24.0400001676381,33.9999996870756,32.5));
#1570=CARTESIAN_POINT('',(24.0400001676381,33.9999996870756,-7.5));
#1571=CARTESIAN_POINT('',(24.0400001676381,33.9999996870756,-7.5));
#1572=CARTESIAN_POINT('',(24.0400001676381,33.9999996870756,32.5));
#1573=CARTESIAN_POINT('Origin',(22.0400001676381,33.9999996870756,32.5));
#1574=CARTESIAN_POINT('',(22.0400001676381,33.9999996870756,32.5));
#1575=CARTESIAN_POINT('',(22.0400001676381,33.9999996870756,-7.5));
#1576=CARTESIAN_POINT('Origin',(12.5,4.,12.5));
#1577=CARTESIAN_POINT('',(32.5,4.,-7.5));
#1578=CARTESIAN_POINT('',(-7.5,4.,-7.5));
#1579=CARTESIAN_POINT('',(32.5,4.,-7.5));
#1580=CARTESIAN_POINT('',(32.5,4.,32.5));
#1581=CARTESIAN_POINT('',(32.5,4.,32.5));
#1582=CARTESIAN_POINT('',(-7.5,4.,32.5));
#1583=CARTESIAN_POINT('',(-7.5,4.,32.5));
#1584=CARTESIAN_POINT('',(-7.5,4.,-7.5));
#1585=CARTESIAN_POINT('Origin',(32.5,4.,32.5));
#1586=CARTESIAN_POINT('',(32.5,4.,-7.5));
#1587=CARTESIAN_POINT('',(32.5,4.,32.5));
#1588=CARTESIAN_POINT('Origin',(-7.5,4.,32.5));
#1589=CARTESIAN_POINT('',(-7.5,4.,32.5));
#1590=CARTESIAN_POINT('Origin',(-7.5,4.,-7.5));
#1591=CARTESIAN_POINT('',(-7.5,4.,-7.5));
#1592=CARTESIAN_POINT('Origin',(32.5,4.,-7.5));
#1593=CARTESIAN_POINT('',(0.,0.,0.));
#1594=CARTESIAN_POINT('Origin',(12.5,0.,-12.5));
#1595=CARTESIAN_POINT('',(-12.5,0.,-12.5));
#1596=CARTESIAN_POINT('',(12.5,0.,-12.5));
#1597=CARTESIAN_POINT('',(-12.5,0.,-12.5));
#1598=CARTESIAN_POINT('',(-12.5,4.,-12.5));
#1599=CARTESIAN_POINT('',(-12.5,0.,-12.5));
#1600=CARTESIAN_POINT('',(12.5,4.,-12.5));
#1601=CARTESIAN_POINT('',(-12.5,4.,-12.5));
#1602=CARTESIAN_POINT('',(12.5,0.,-12.5));
#1603=CARTESIAN_POINT('Origin',(12.5,0.,12.5));
#1604=CARTESIAN_POINT('',(12.5,0.,12.5));
#1605=CARTESIAN_POINT('',(12.5,0.,-12.5));
#1606=CARTESIAN_POINT('',(12.5,4.,12.5));
#1607=CARTESIAN_POINT('',(12.5,4.,-12.5));
#1608=CARTESIAN_POINT('',(12.5,0.,12.5));
#1609=CARTESIAN_POINT('Origin',(-12.5,0.,12.5));
#1610=CARTESIAN_POINT('',(-12.5,0.,12.5));
#1611=CARTESIAN_POINT('',(-12.5,0.,12.5));
#1612=CARTESIAN_POINT('',(-12.5,4.,12.5));
#1613=CARTESIAN_POINT('',(-12.5,4.,12.5));
#1614=CARTESIAN_POINT('',(-12.5,0.,12.5));
#1615=CARTESIAN_POINT('Origin',(-12.5,0.,-12.5));
#1616=CARTESIAN_POINT('',(-12.5,0.,0.));
#1617=CARTESIAN_POINT('',(-12.5,4.,0.));
#1618=CARTESIAN_POINT('Origin',(0.,4.,0.));
#1619=CARTESIAN_POINT('Origin',(0.,0.,0.));
#1620=CARTESIAN_POINT('',(0.,0.,0.));
#1621=CARTESIAN_POINT('',(12.5,4.,12.5));
#1622=UNCERTAINTY_MEASURE_WITH_UNIT(LENGTH_MEASURE(0.01),#1630,
'DISTANCE_ACCURACY_VALUE',
'Maximum model space distance between geometric entities at asserted c
onnectivities');
#1623=UNCERTAINTY_MEASURE_WITH_UNIT(LENGTH_MEASURE(0.01),#1630,
'DISTANCE_ACCURACY_VALUE',
'Maximum model space distance between geometric entities at asserted c
onnectivities');
#1624=UNCERTAINTY_MEASURE_WITH_UNIT(LENGTH_MEASURE(0.01),#1630,
'DISTANCE_ACCURACY_VALUE',
'Maximum model space distance between geometric entities at asserted c
onnectivities');
#1625=UNCERTAINTY_MEASURE_WITH_UNIT(LENGTH_MEASURE(0.01),#1630,
'DISTANCE_ACCURACY_VALUE',
'Maximum model space distance between geometric entities at asserted c
onnectivities');
#1626=(
GEOMETRIC_REPRESENTATION_CONTEXT(3)
GLOBAL_UNCERTAINTY_ASSIGNED_CONTEXT((#1622))
GLOBAL_UNIT_ASSIGNED_CONTEXT((#1630,#1632,#1633))
REPRESENTATION_CONTEXT('','3D')
);
#1627=(
GEOMETRIC_REPRESENTATION_CONTEXT(3)
GLOBAL_UNCERTAINTY_ASSIGNED_CONTEXT((#1623))
GLOBAL_UNIT_ASSIGNED_CONTEXT((#1630,#1632,#1633))
REPRESENTATION_CONTEXT('','3D')
);
#1628=(
GEOMETRIC_REPRESENTATION_CONTEXT(3)
GLOBAL_UNCERTAINTY_ASSIGNED_CONTEXT((#1624))
GLOBAL_UNIT_ASSIGNED_CONTEXT((#1630,#1632,#1633))
REPRESENTATION_CONTEXT('','3D')
);
#1629=(
GEOMETRIC_REPRESENTATION_CONTEXT(3)
GLOBAL_UNCERTAINTY_ASSIGNED_CONTEXT((#1625))
GLOBAL_UNIT_ASSIGNED_CONTEXT((#1630,#1632,#1633))
REPRESENTATION_CONTEXT('','3D')
);
#1630=(
LENGTH_UNIT()
NAMED_UNIT(*)
SI_UNIT(.MILLI.,.METRE.)
);
#1631=(
LENGTH_UNIT()
NAMED_UNIT(*)
SI_UNIT($,.METRE.)
);
#1632=(
NAMED_UNIT(*)
PLANE_ANGLE_UNIT()
SI_UNIT($,.RADIAN.)
);
#1633=(
NAMED_UNIT(*)
SI_UNIT($,.STERADIAN.)
SOLID_ANGLE_UNIT()
);
#1634=SHAPE_DEFINITION_REPRESENTATION(#1637,#1642);
#1635=SHAPE_DEFINITION_REPRESENTATION(#1638,#1643);
#1636=SHAPE_DEFINITION_REPRESENTATION(#1639,#1644);
#1637=PRODUCT_DEFINITION_SHAPE('',$,#1646);
#1638=PRODUCT_DEFINITION_SHAPE('',$,#1647);
#1639=PRODUCT_DEFINITION_SHAPE('',$,#1648);
#1640=PRODUCT_DEFINITION_SHAPE($,$,#17);
#1641=PRODUCT_DEFINITION_SHAPE($,$,#18);
#1642=SHAPE_REPRESENTATION('',(#1034,#1087,#1088),#1626);
#1643=SHAPE_REPRESENTATION('',(#1035),#1627);
#1644=SHAPE_REPRESENTATION('',(#1080),#1628);
#1645=PRODUCT_DEFINITION_CONTEXT('part definition',#1656,'design');
#1646=PRODUCT_DEFINITION('10FIN HEAT SINK ASSEMBLY',
'10FIN HEAT SINK ASSEMBLY v3',#1649,#1645);
#1647=PRODUCT_DEFINITION('10 fin hea sink','10 fin hea sink v2',#1650,#1645);
#1648=PRODUCT_DEFINITION('CHIP','CHIP v1',#1651,#1645);
#1649=PRODUCT_DEFINITION_FORMATION('',$,#1658);
#1650=PRODUCT_DEFINITION_FORMATION('',$,#1659);
#1651=PRODUCT_DEFINITION_FORMATION('',$,#1660);
#1652=PRODUCT_RELATED_PRODUCT_CATEGORY('10FIN HEAT SINK ASSEMBLY v3',
'10FIN HEAT SINK ASSEMBLY v3',(#1658));
#1653=PRODUCT_RELATED_PRODUCT_CATEGORY('10 fin hea sink v2',
'10 fin hea sink v2',(#1659));
#1654=PRODUCT_RELATED_PRODUCT_CATEGORY('CHIP v1','CHIP v1',(#1660));
#1655=APPLICATION_PROTOCOL_DEFINITION('international standard',
'automotive_design',2009,#1656);
#1656=APPLICATION_CONTEXT(
'Core Data for Automotive Mechanical Design Process');
#1657=PRODUCT_CONTEXT('part definition',#1656,'mechanical');
#1658=PRODUCT('10FIN HEAT SINK ASSEMBLY','10FIN HEAT SINK ASSEMBLY v3',
$,(#1657));
#1659=PRODUCT('10 fin hea sink','10 fin hea sink v2',$,(#1657));
#1660=PRODUCT('CHIP','CHIP v1',$,(#1657));
#1661=PRESENTATION_STYLE_ASSIGNMENT((#1662));
#1662=SURFACE_STYLE_USAGE(.BOTH.,#1663);
#1663=SURFACE_SIDE_STYLE('',(#1664));
#1664=SURFACE_STYLE_FILL_AREA(#1665);
#1665=FILL_AREA_STYLE('Steel - Satin',(#1666));
#1666=FILL_AREA_STYLE_COLOUR('Steel - Satin',#1667);
#1667=COLOUR_RGB('Steel - Satin',0.627450980392157,0.627450980392157,0.627450980392157);
ENDSEC;
END-ISO-10303-21;
