ISO-10303-21;
HEADER;
/* Generated by software containing ST-Developer
 * from STEP Tools, Inc. (www.steptools.com) 
 */

FILE_DESCRIPTION(
/* description */ (''),
/* implementation_level */ '2;1');

FILE_NAME(
/* name */ '15_FIN_HEAT_SINK.step',
/* time_stamp */ '2026-09-25T23:53:24+05:30',
/* author */ (''),
/* organization */ (''),
/* preprocessor_version */ 'ST-DEVELOPER v20.2',
/* originating_system */ 'Autodesk Translation Framework v15.15.0.0',
/* authorisation */ '');

FILE_SCHEMA (('AUTOMOTIVE_DESIGN { 1 0 10303 214 3 1 1 }'));
ENDSEC;

DATA;
#10=MECHANICAL_DESIGN_GEOMETRIC_PRESENTATION_REPRESENTATION('',(#13),#2173);
#11=SHAPE_REPRESENTATION_RELATIONSHIP('SRR','None',#2180,#12);
#12=ADVANCED_BREP_SHAPE_REPRESENTATION('',(#14),#2172);
#13=STYLED_ITEM('',(#2189),#14);
#14=MANIFOLD_SOLID_BREP('Body1',#1373);
#15=FACE_BOUND('',#141,.T.);
#16=FACE_OUTER_BOUND('',#83,.T.);
#17=FACE_OUTER_BOUND('',#84,.T.);
#18=FACE_OUTER_BOUND('',#85,.T.);
#19=FACE_OUTER_BOUND('',#86,.T.);
#20=FACE_OUTER_BOUND('',#87,.T.);
#21=FACE_OUTER_BOUND('',#88,.T.);
#22=FACE_OUTER_BOUND('',#89,.T.);
#23=FACE_OUTER_BOUND('',#90,.T.);
#24=FACE_OUTER_BOUND('',#91,.T.);
#25=FACE_OUTER_BOUND('',#92,.T.);
#26=FACE_OUTER_BOUND('',#93,.T.);
#27=FACE_OUTER_BOUND('',#94,.T.);
#28=FACE_OUTER_BOUND('',#95,.T.);
#29=FACE_OUTER_BOUND('',#96,.T.);
#30=FACE_OUTER_BOUND('',#97,.T.);
#31=FACE_OUTER_BOUND('',#98,.T.);
#32=FACE_OUTER_BOUND('',#99,.T.);
#33=FACE_OUTER_BOUND('',#100,.T.);
#34=FACE_OUTER_BOUND('',#101,.T.);
#35=FACE_OUTER_BOUND('',#102,.T.);
#36=FACE_OUTER_BOUND('',#103,.T.);
#37=FACE_OUTER_BOUND('',#104,.T.);
#38=FACE_OUTER_BOUND('',#105,.T.);
#39=FACE_OUTER_BOUND('',#106,.T.);
#40=FACE_OUTER_BOUND('',#107,.T.);
#41=FACE_OUTER_BOUND('',#108,.T.);
#42=FACE_OUTER_BOUND('',#109,.T.);
#43=FACE_OUTER_BOUND('',#110,.T.);
#44=FACE_OUTER_BOUND('',#111,.T.);
#45=FACE_OUTER_BOUND('',#112,.T.);
#46=FACE_OUTER_BOUND('',#113,.T.);
#47=FACE_OUTER_BOUND('',#114,.T.);
#48=FACE_OUTER_BOUND('',#115,.T.);
#49=FACE_OUTER_BOUND('',#116,.T.);
#50=FACE_OUTER_BOUND('',#117,.T.);
#51=FACE_OUTER_BOUND('',#118,.T.);
#52=FACE_OUTER_BOUND('',#119,.T.);
#53=FACE_OUTER_BOUND('',#120,.T.);
#54=FACE_OUTER_BOUND('',#121,.T.);
#55=FACE_OUTER_BOUND('',#122,.T.);
#56=FACE_OUTER_BOUND('',#123,.T.);
#57=FACE_OUTER_BOUND('',#124,.T.);
#58=FACE_OUTER_BOUND('',#125,.T.);
#59=FACE_OUTER_BOUND('',#126,.T.);
#60=FACE_OUTER_BOUND('',#127,.T.);
#61=FACE_OUTER_BOUND('',#128,.T.);
#62=FACE_OUTER_BOUND('',#129,.T.);
#63=FACE_OUTER_BOUND('',#130,.T.);
#64=FACE_OUTER_BOUND('',#131,.T.);
#65=FACE_OUTER_BOUND('',#132,.T.);
#66=FACE_OUTER_BOUND('',#133,.T.);
#67=FACE_OUTER_BOUND('',#134,.T.);
#68=FACE_OUTER_BOUND('',#135,.T.);
#69=FACE_OUTER_BOUND('',#136,.T.);
#70=FACE_OUTER_BOUND('',#137,.T.);
#71=FACE_OUTER_BOUND('',#138,.T.);
#72=FACE_OUTER_BOUND('',#139,.T.);
#73=FACE_OUTER_BOUND('',#140,.T.);
#74=FACE_OUTER_BOUND('',#142,.T.);
#75=FACE_OUTER_BOUND('',#143,.T.);
#76=FACE_OUTER_BOUND('',#144,.T.);
#77=FACE_OUTER_BOUND('',#145,.T.);
#78=FACE_OUTER_BOUND('',#146,.T.);
#79=FACE_OUTER_BOUND('',#147,.T.);
#80=FACE_OUTER_BOUND('',#148,.T.);
#81=FACE_OUTER_BOUND('',#149,.T.);
#82=FACE_OUTER_BOUND('',#150,.T.);
#83=EDGE_LOOP('',(#855,#856,#857,#858));
#84=EDGE_LOOP('',(#859,#860,#861,#862));
#85=EDGE_LOOP('',(#863,#864,#865,#866));
#86=EDGE_LOOP('',(#867,#868,#869,#870));
#87=EDGE_LOOP('',(#871,#872,#873,#874));
#88=EDGE_LOOP('',(#875,#876,#877,#878));
#89=EDGE_LOOP('',(#879,#880,#881,#882));
#90=EDGE_LOOP('',(#883,#884,#885,#886));
#91=EDGE_LOOP('',(#887,#888,#889,#890));
#92=EDGE_LOOP('',(#891,#892,#893,#894));
#93=EDGE_LOOP('',(#895,#896,#897,#898));
#94=EDGE_LOOP('',(#899,#900,#901,#902));
#95=EDGE_LOOP('',(#903,#904,#905,#906));
#96=EDGE_LOOP('',(#907,#908,#909,#910));
#97=EDGE_LOOP('',(#911,#912,#913,#914));
#98=EDGE_LOOP('',(#915,#916,#917,#918));
#99=EDGE_LOOP('',(#919,#920,#921,#922));
#100=EDGE_LOOP('',(#923,#924,#925,#926));
#101=EDGE_LOOP('',(#927,#928,#929,#930));
#102=EDGE_LOOP('',(#931,#932,#933,#934));
#103=EDGE_LOOP('',(#935,#936,#937,#938));
#104=EDGE_LOOP('',(#939,#940,#941,#942));
#105=EDGE_LOOP('',(#943,#944,#945,#946));
#106=EDGE_LOOP('',(#947,#948,#949,#950));
#107=EDGE_LOOP('',(#951,#952,#953,#954));
#108=EDGE_LOOP('',(#955,#956,#957,#958));
#109=EDGE_LOOP('',(#959,#960,#961,#962));
#110=EDGE_LOOP('',(#963,#964,#965,#966));
#111=EDGE_LOOP('',(#967,#968,#969,#970));
#112=EDGE_LOOP('',(#971,#972,#973,#974));
#113=EDGE_LOOP('',(#975,#976,#977,#978));
#114=EDGE_LOOP('',(#979,#980,#981,#982));
#115=EDGE_LOOP('',(#983,#984,#985,#986));
#116=EDGE_LOOP('',(#987,#988,#989,#990));
#117=EDGE_LOOP('',(#991,#992,#993,#994));
#118=EDGE_LOOP('',(#995,#996,#997,#998));
#119=EDGE_LOOP('',(#999,#1000,#1001,#1002));
#120=EDGE_LOOP('',(#1003,#1004,#1005,#1006));
#121=EDGE_LOOP('',(#1007,#1008,#1009,#1010));
#122=EDGE_LOOP('',(#1011,#1012,#1013,#1014));
#123=EDGE_LOOP('',(#1015,#1016,#1017,#1018));
#124=EDGE_LOOP('',(#1019,#1020,#1021,#1022));
#125=EDGE_LOOP('',(#1023,#1024,#1025,#1026));
#126=EDGE_LOOP('',(#1027,#1028,#1029,#1030));
#127=EDGE_LOOP('',(#1031,#1032,#1033,#1034));
#128=EDGE_LOOP('',(#1035,#1036,#1037,#1038));
#129=EDGE_LOOP('',(#1039,#1040,#1041,#1042));
#130=EDGE_LOOP('',(#1043,#1044,#1045,#1046));
#131=EDGE_LOOP('',(#1047,#1048,#1049,#1050));
#132=EDGE_LOOP('',(#1051,#1052,#1053,#1054));
#133=EDGE_LOOP('',(#1055,#1056,#1057,#1058));
#134=EDGE_LOOP('',(#1059,#1060,#1061,#1062));
#135=EDGE_LOOP('',(#1063,#1064,#1065,#1066));
#136=EDGE_LOOP('',(#1067,#1068,#1069,#1070));
#137=EDGE_LOOP('',(#1071,#1072,#1073,#1074));
#138=EDGE_LOOP('',(#1075,#1076,#1077,#1078));
#139=EDGE_LOOP('',(#1079,#1080,#1081,#1082));
#140=EDGE_LOOP('',(#1083,#1084,#1085,#1086));
#141=EDGE_LOOP('',(#1087,#1088,#1089,#1090));
#142=EDGE_LOOP('',(#1091,#1092,#1093,#1094));
#143=EDGE_LOOP('',(#1095,#1096,#1097,#1098,#1099,#1100,#1101,#1102,#1103,
#1104,#1105,#1106,#1107,#1108,#1109,#1110,#1111,#1112,#1113,#1114,#1115,
#1116,#1117,#1118,#1119,#1120,#1121,#1122,#1123,#1124,#1125,#1126,#1127,
#1128,#1129,#1130,#1131,#1132,#1133,#1134,#1135,#1136,#1137,#1138,#1139,
#1140,#1141,#1142,#1143,#1144,#1145,#1146,#1147,#1148,#1149,#1150,#1151,
#1152,#1153,#1154));
#144=EDGE_LOOP('',(#1155,#1156,#1157,#1158));
#145=EDGE_LOOP('',(#1159,#1160,#1161,#1162,#1163,#1164,#1165,#1166,#1167,
#1168,#1169,#1170,#1171,#1172,#1173,#1174,#1175,#1176,#1177,#1178,#1179,
#1180,#1181,#1182,#1183,#1184,#1185,#1186,#1187,#1188,#1189,#1190,#1191,
#1192,#1193,#1194,#1195,#1196,#1197,#1198,#1199,#1200,#1201,#1202,#1203,
#1204,#1205,#1206,#1207,#1208,#1209,#1210,#1211,#1212,#1213,#1214,#1215,
#1216,#1217,#1218));
#146=EDGE_LOOP('',(#1219,#1220,#1221,#1222));
#147=EDGE_LOOP('',(#1223,#1224,#1225,#1226));
#148=EDGE_LOOP('',(#1227,#1228,#1229,#1230));
#149=EDGE_LOOP('',(#1231,#1232,#1233,#1234));
#150=EDGE_LOOP('',(#1235,#1236,#1237,#1238));
#151=LINE('',#1786,#343);
#152=LINE('',#1788,#344);
#153=LINE('',#1790,#345);
#154=LINE('',#1791,#346);
#155=LINE('',#1794,#347);
#156=LINE('',#1796,#348);
#157=LINE('',#1797,#349);
#158=LINE('',#1800,#350);
#159=LINE('',#1802,#351);
#160=LINE('',#1803,#352);
#161=LINE('',#1806,#353);
#162=LINE('',#1808,#354);
#163=LINE('',#1809,#355);
#164=LINE('',#1812,#356);
#165=LINE('',#1814,#357);
#166=LINE('',#1815,#358);
#167=LINE('',#1819,#359);
#168=LINE('',#1821,#360);
#169=LINE('',#1823,#361);
#170=LINE('',#1824,#362);
#171=LINE('',#1827,#363);
#172=LINE('',#1829,#364);
#173=LINE('',#1830,#365);
#174=LINE('',#1833,#366);
#175=LINE('',#1835,#367);
#176=LINE('',#1836,#368);
#177=LINE('',#1839,#369);
#178=LINE('',#1841,#370);
#179=LINE('',#1842,#371);
#180=LINE('',#1845,#372);
#181=LINE('',#1847,#373);
#182=LINE('',#1848,#374);
#183=LINE('',#1852,#375);
#184=LINE('',#1854,#376);
#185=LINE('',#1856,#377);
#186=LINE('',#1857,#378);
#187=LINE('',#1860,#379);
#188=LINE('',#1862,#380);
#189=LINE('',#1863,#381);
#190=LINE('',#1866,#382);
#191=LINE('',#1868,#383);
#192=LINE('',#1869,#384);
#193=LINE('',#1872,#385);
#194=LINE('',#1874,#386);
#195=LINE('',#1875,#387);
#196=LINE('',#1878,#388);
#197=LINE('',#1880,#389);
#198=LINE('',#1881,#390);
#199=LINE('',#1885,#391);
#200=LINE('',#1887,#392);
#201=LINE('',#1889,#393);
#202=LINE('',#1890,#394);
#203=LINE('',#1893,#395);
#204=LINE('',#1895,#396);
#205=LINE('',#1896,#397);
#206=LINE('',#1899,#398);
#207=LINE('',#1901,#399);
#208=LINE('',#1902,#400);
#209=LINE('',#1905,#401);
#210=LINE('',#1907,#402);
#211=LINE('',#1908,#403);
#212=LINE('',#1911,#404);
#213=LINE('',#1913,#405);
#214=LINE('',#1914,#406);
#215=LINE('',#1917,#407);
#216=LINE('',#1919,#408);
#217=LINE('',#1920,#409);
#218=LINE('',#1923,#410);
#219=LINE('',#1925,#411);
#220=LINE('',#1926,#412);
#221=LINE('',#1929,#413);
#222=LINE('',#1931,#414);
#223=LINE('',#1932,#415);
#224=LINE('',#1935,#416);
#225=LINE('',#1937,#417);
#226=LINE('',#1938,#418);
#227=LINE('',#1942,#419);
#228=LINE('',#1944,#420);
#229=LINE('',#1946,#421);
#230=LINE('',#1947,#422);
#231=LINE('',#1950,#423);
#232=LINE('',#1952,#424);
#233=LINE('',#1953,#425);
#234=LINE('',#1955,#426);
#235=LINE('',#1956,#427);
#236=LINE('',#1959,#428);
#237=LINE('',#1961,#429);
#238=LINE('',#1962,#430);
#239=LINE('',#1966,#431);
#240=LINE('',#1968,#432);
#241=LINE('',#1970,#433);
#242=LINE('',#1971,#434);
#243=LINE('',#1974,#435);
#244=LINE('',#1976,#436);
#245=LINE('',#1977,#437);
#246=LINE('',#1979,#438);
#247=LINE('',#1980,#439);
#248=LINE('',#1983,#440);
#249=LINE('',#1985,#441);
#250=LINE('',#1986,#442);
#251=LINE('',#1990,#443);
#252=LINE('',#1992,#444);
#253=LINE('',#1994,#445);
#254=LINE('',#1995,#446);
#255=LINE('',#1998,#447);
#256=LINE('',#2000,#448);
#257=LINE('',#2001,#449);
#258=LINE('',#2003,#450);
#259=LINE('',#2004,#451);
#260=LINE('',#2007,#452);
#261=LINE('',#2009,#453);
#262=LINE('',#2010,#454);
#263=LINE('',#2013,#455);
#264=LINE('',#2015,#456);
#265=LINE('',#2016,#457);
#266=LINE('',#2019,#458);
#267=LINE('',#2021,#459);
#268=LINE('',#2022,#460);
#269=LINE('',#2025,#461);
#270=LINE('',#2027,#462);
#271=LINE('',#2028,#463);
#272=LINE('',#2031,#464);
#273=LINE('',#2033,#465);
#274=LINE('',#2034,#466);
#275=LINE('',#2037,#467);
#276=LINE('',#2039,#468);
#277=LINE('',#2040,#469);
#278=LINE('',#2043,#470);
#279=LINE('',#2045,#471);
#280=LINE('',#2046,#472);
#281=LINE('',#2049,#473);
#282=LINE('',#2051,#474);
#283=LINE('',#2052,#475);
#284=LINE('',#2055,#476);
#285=LINE('',#2057,#477);
#286=LINE('',#2058,#478);
#287=LINE('',#2061,#479);
#288=LINE('',#2063,#480);
#289=LINE('',#2064,#481);
#290=LINE('',#2067,#482);
#291=LINE('',#2069,#483);
#292=LINE('',#2070,#484);
#293=LINE('',#2072,#485);
#294=LINE('',#2073,#486);
#295=LINE('',#2076,#487);
#296=LINE('',#2078,#488);
#297=LINE('',#2079,#489);
#298=LINE('',#2082,#490);
#299=LINE('',#2084,#491);
#300=LINE('',#2085,#492);
#301=LINE('',#2089,#493);
#302=LINE('',#2091,#494);
#303=LINE('',#2093,#495);
#304=LINE('',#2094,#496);
#305=LINE('',#2096,#497);
#306=LINE('',#2097,#498);
#307=LINE('',#2100,#499);
#308=LINE('',#2102,#500);
#309=LINE('',#2103,#501);
#310=LINE('',#2106,#502);
#311=LINE('',#2108,#503);
#312=LINE('',#2109,#504);
#313=LINE('',#2111,#505);
#314=LINE('',#2112,#506);
#315=LINE('',#2115,#507);
#316=LINE('',#2117,#508);
#317=LINE('',#2118,#509);
#318=LINE('',#2121,#510);
#319=LINE('',#2123,#511);
#320=LINE('',#2124,#512);
#321=LINE('',#2126,#513);
#322=LINE('',#2127,#514);
#323=LINE('',#2131,#515);
#324=LINE('',#2133,#516);
#325=LINE('',#2135,#517);
#326=LINE('',#2136,#518);
#327=LINE('',#2139,#519);
#328=LINE('',#2141,#520);
#329=LINE('',#2143,#521);
#330=LINE('',#2144,#522);
#331=LINE('',#2146,#523);
#332=LINE('',#2147,#524);
#333=LINE('',#2149,#525);
#334=LINE('',#2151,#526);
#335=LINE('',#2156,#527);
#336=LINE('',#2157,#528);
#337=LINE('',#2158,#529);
#338=LINE('',#2161,#530);
#339=LINE('',#2162,#531);
#340=LINE('',#2165,#532);
#341=LINE('',#2166,#533);
#342=LINE('',#2168,#534);
#343=VECTOR('',#1458,10.);
#344=VECTOR('',#1459,10.);
#345=VECTOR('',#1460,10.);
#346=VECTOR('',#1461,10.);
#347=VECTOR('',#1464,10.);
#348=VECTOR('',#1465,10.);
#349=VECTOR('',#1466,10.);
#350=VECTOR('',#1469,10.);
#351=VECTOR('',#1470,10.);
#352=VECTOR('',#1471,10.);
#353=VECTOR('',#1474,10.);
#354=VECTOR('',#1475,10.);
#355=VECTOR('',#1476,10.);
#356=VECTOR('',#1479,10.);
#357=VECTOR('',#1480,10.);
#358=VECTOR('',#1481,10.);
#359=VECTOR('',#1484,10.);
#360=VECTOR('',#1485,10.);
#361=VECTOR('',#1486,10.);
#362=VECTOR('',#1487,10.);
#363=VECTOR('',#1490,10.);
#364=VECTOR('',#1491,10.);
#365=VECTOR('',#1492,10.);
#366=VECTOR('',#1495,10.);
#367=VECTOR('',#1496,10.);
#368=VECTOR('',#1497,10.);
#369=VECTOR('',#1500,10.);
#370=VECTOR('',#1501,10.);
#371=VECTOR('',#1502,10.);
#372=VECTOR('',#1505,10.);
#373=VECTOR('',#1506,10.);
#374=VECTOR('',#1507,10.);
#375=VECTOR('',#1510,10.);
#376=VECTOR('',#1511,10.);
#377=VECTOR('',#1512,10.);
#378=VECTOR('',#1513,10.);
#379=VECTOR('',#1516,10.);
#380=VECTOR('',#1517,10.);
#381=VECTOR('',#1518,10.);
#382=VECTOR('',#1521,10.);
#383=VECTOR('',#1522,10.);
#384=VECTOR('',#1523,10.);
#385=VECTOR('',#1526,10.);
#386=VECTOR('',#1527,10.);
#387=VECTOR('',#1528,10.);
#388=VECTOR('',#1531,10.);
#389=VECTOR('',#1532,10.);
#390=VECTOR('',#1533,10.);
#391=VECTOR('',#1536,10.);
#392=VECTOR('',#1537,10.);
#393=VECTOR('',#1538,10.);
#394=VECTOR('',#1539,10.);
#395=VECTOR('',#1542,10.);
#396=VECTOR('',#1543,10.);
#397=VECTOR('',#1544,10.);
#398=VECTOR('',#1547,10.);
#399=VECTOR('',#1548,10.);
#400=VECTOR('',#1549,10.);
#401=VECTOR('',#1552,10.);
#402=VECTOR('',#1553,10.);
#403=VECTOR('',#1554,10.);
#404=VECTOR('',#1557,10.);
#405=VECTOR('',#1558,10.);
#406=VECTOR('',#1559,10.);
#407=VECTOR('',#1562,10.);
#408=VECTOR('',#1563,10.);
#409=VECTOR('',#1564,10.);
#410=VECTOR('',#1567,10.);
#411=VECTOR('',#1568,10.);
#412=VECTOR('',#1569,10.);
#413=VECTOR('',#1572,10.);
#414=VECTOR('',#1573,10.);
#415=VECTOR('',#1574,10.);
#416=VECTOR('',#1577,10.);
#417=VECTOR('',#1578,10.);
#418=VECTOR('',#1579,10.);
#419=VECTOR('',#1582,10.);
#420=VECTOR('',#1583,10.);
#421=VECTOR('',#1584,10.);
#422=VECTOR('',#1585,10.);
#423=VECTOR('',#1588,10.);
#424=VECTOR('',#1589,10.);
#425=VECTOR('',#1590,10.);
#426=VECTOR('',#1593,10.);
#427=VECTOR('',#1594,10.);
#428=VECTOR('',#1597,10.);
#429=VECTOR('',#1598,10.);
#430=VECTOR('',#1599,10.);
#431=VECTOR('',#1602,10.);
#432=VECTOR('',#1603,10.);
#433=VECTOR('',#1604,10.);
#434=VECTOR('',#1605,10.);
#435=VECTOR('',#1608,10.);
#436=VECTOR('',#1609,10.);
#437=VECTOR('',#1610,10.);
#438=VECTOR('',#1613,10.);
#439=VECTOR('',#1614,10.);
#440=VECTOR('',#1617,10.);
#441=VECTOR('',#1618,10.);
#442=VECTOR('',#1619,10.);
#443=VECTOR('',#1622,10.);
#444=VECTOR('',#1623,10.);
#445=VECTOR('',#1624,10.);
#446=VECTOR('',#1625,10.);
#447=VECTOR('',#1628,10.);
#448=VECTOR('',#1629,10.);
#449=VECTOR('',#1630,10.);
#450=VECTOR('',#1633,10.);
#451=VECTOR('',#1634,10.);
#452=VECTOR('',#1637,10.);
#453=VECTOR('',#1638,10.);
#454=VECTOR('',#1639,10.);
#455=VECTOR('',#1642,10.);
#456=VECTOR('',#1643,10.);
#457=VECTOR('',#1644,10.);
#458=VECTOR('',#1647,10.);
#459=VECTOR('',#1648,10.);
#460=VECTOR('',#1649,10.);
#461=VECTOR('',#1652,10.);
#462=VECTOR('',#1653,10.);
#463=VECTOR('',#1654,10.);
#464=VECTOR('',#1657,10.);
#465=VECTOR('',#1658,10.);
#466=VECTOR('',#1659,10.);
#467=VECTOR('',#1662,10.);
#468=VECTOR('',#1663,10.);
#469=VECTOR('',#1664,10.);
#470=VECTOR('',#1667,10.);
#471=VECTOR('',#1668,10.);
#472=VECTOR('',#1669,10.);
#473=VECTOR('',#1672,10.);
#474=VECTOR('',#1673,10.);
#475=VECTOR('',#1674,10.);
#476=VECTOR('',#1677,10.);
#477=VECTOR('',#1678,10.);
#478=VECTOR('',#1679,10.);
#479=VECTOR('',#1682,10.);
#480=VECTOR('',#1683,10.);
#481=VECTOR('',#1684,10.);
#482=VECTOR('',#1687,10.);
#483=VECTOR('',#1688,10.);
#484=VECTOR('',#1689,10.);
#485=VECTOR('',#1692,10.);
#486=VECTOR('',#1693,10.);
#487=VECTOR('',#1696,10.);
#488=VECTOR('',#1697,10.);
#489=VECTOR('',#1698,10.);
#490=VECTOR('',#1701,10.);
#491=VECTOR('',#1702,10.);
#492=VECTOR('',#1703,10.);
#493=VECTOR('',#1706,10.);
#494=VECTOR('',#1707,10.);
#495=VECTOR('',#1708,10.);
#496=VECTOR('',#1709,10.);
#497=VECTOR('',#1712,10.);
#498=VECTOR('',#1713,10.);
#499=VECTOR('',#1716,10.);
#500=VECTOR('',#1717,10.);
#501=VECTOR('',#1718,10.);
#502=VECTOR('',#1721,10.);
#503=VECTOR('',#1722,10.);
#504=VECTOR('',#1723,10.);
#505=VECTOR('',#1726,10.);
#506=VECTOR('',#1727,10.);
#507=VECTOR('',#1730,10.);
#508=VECTOR('',#1731,10.);
#509=VECTOR('',#1732,10.);
#510=VECTOR('',#1735,10.);
#511=VECTOR('',#1736,10.);
#512=VECTOR('',#1737,10.);
#513=VECTOR('',#1740,10.);
#514=VECTOR('',#1741,10.);
#515=VECTOR('',#1744,10.);
#516=VECTOR('',#1745,10.);
#517=VECTOR('',#1746,10.);
#518=VECTOR('',#1747,10.);
#519=VECTOR('',#1748,10.);
#520=VECTOR('',#1749,10.);
#521=VECTOR('',#1750,10.);
#522=VECTOR('',#1751,10.);
#523=VECTOR('',#1754,10.);
#524=VECTOR('',#1755,10.);
#525=VECTOR('',#1758,10.);
#526=VECTOR('',#1761,10.);
#527=VECTOR('',#1766,10.);
#528=VECTOR('',#1767,10.);
#529=VECTOR('',#1768,10.);
#530=VECTOR('',#1771,10.);
#531=VECTOR('',#1772,10.);
#532=VECTOR('',#1775,10.);
#533=VECTOR('',#1776,10.);
#534=VECTOR('',#1779,10.);
#535=VERTEX_POINT('',#1784);
#536=VERTEX_POINT('',#1785);
#537=VERTEX_POINT('',#1787);
#538=VERTEX_POINT('',#1789);
#539=VERTEX_POINT('',#1793);
#540=VERTEX_POINT('',#1795);
#541=VERTEX_POINT('',#1799);
#542=VERTEX_POINT('',#1801);
#543=VERTEX_POINT('',#1805);
#544=VERTEX_POINT('',#1807);
#545=VERTEX_POINT('',#1811);
#546=VERTEX_POINT('',#1813);
#547=VERTEX_POINT('',#1817);
#548=VERTEX_POINT('',#1818);
#549=VERTEX_POINT('',#1820);
#550=VERTEX_POINT('',#1822);
#551=VERTEX_POINT('',#1826);
#552=VERTEX_POINT('',#1828);
#553=VERTEX_POINT('',#1832);
#554=VERTEX_POINT('',#1834);
#555=VERTEX_POINT('',#1838);
#556=VERTEX_POINT('',#1840);
#557=VERTEX_POINT('',#1844);
#558=VERTEX_POINT('',#1846);
#559=VERTEX_POINT('',#1850);
#560=VERTEX_POINT('',#1851);
#561=VERTEX_POINT('',#1853);
#562=VERTEX_POINT('',#1855);
#563=VERTEX_POINT('',#1859);
#564=VERTEX_POINT('',#1861);
#565=VERTEX_POINT('',#1865);
#566=VERTEX_POINT('',#1867);
#567=VERTEX_POINT('',#1871);
#568=VERTEX_POINT('',#1873);
#569=VERTEX_POINT('',#1877);
#570=VERTEX_POINT('',#1879);
#571=VERTEX_POINT('',#1883);
#572=VERTEX_POINT('',#1884);
#573=VERTEX_POINT('',#1886);
#574=VERTEX_POINT('',#1888);
#575=VERTEX_POINT('',#1892);
#576=VERTEX_POINT('',#1894);
#577=VERTEX_POINT('',#1898);
#578=VERTEX_POINT('',#1900);
#579=VERTEX_POINT('',#1904);
#580=VERTEX_POINT('',#1906);
#581=VERTEX_POINT('',#1910);
#582=VERTEX_POINT('',#1912);
#583=VERTEX_POINT('',#1916);
#584=VERTEX_POINT('',#1918);
#585=VERTEX_POINT('',#1922);
#586=VERTEX_POINT('',#1924);
#587=VERTEX_POINT('',#1928);
#588=VERTEX_POINT('',#1930);
#589=VERTEX_POINT('',#1934);
#590=VERTEX_POINT('',#1936);
#591=VERTEX_POINT('',#1940);
#592=VERTEX_POINT('',#1941);
#593=VERTEX_POINT('',#1943);
#594=VERTEX_POINT('',#1945);
#595=VERTEX_POINT('',#1949);
#596=VERTEX_POINT('',#1951);
#597=VERTEX_POINT('',#1958);
#598=VERTEX_POINT('',#1960);
#599=VERTEX_POINT('',#1964);
#600=VERTEX_POINT('',#1965);
#601=VERTEX_POINT('',#1967);
#602=VERTEX_POINT('',#1969);
#603=VERTEX_POINT('',#1973);
#604=VERTEX_POINT('',#1975);
#605=VERTEX_POINT('',#1982);
#606=VERTEX_POINT('',#1984);
#607=VERTEX_POINT('',#1988);
#608=VERTEX_POINT('',#1989);
#609=VERTEX_POINT('',#1991);
#610=VERTEX_POINT('',#1993);
#611=VERTEX_POINT('',#1997);
#612=VERTEX_POINT('',#1999);
#613=VERTEX_POINT('',#2006);
#614=VERTEX_POINT('',#2008);
#615=VERTEX_POINT('',#2012);
#616=VERTEX_POINT('',#2014);
#617=VERTEX_POINT('',#2018);
#618=VERTEX_POINT('',#2020);
#619=VERTEX_POINT('',#2024);
#620=VERTEX_POINT('',#2026);
#621=VERTEX_POINT('',#2030);
#622=VERTEX_POINT('',#2032);
#623=VERTEX_POINT('',#2036);
#624=VERTEX_POINT('',#2038);
#625=VERTEX_POINT('',#2042);
#626=VERTEX_POINT('',#2044);
#627=VERTEX_POINT('',#2048);
#628=VERTEX_POINT('',#2050);
#629=VERTEX_POINT('',#2054);
#630=VERTEX_POINT('',#2056);
#631=VERTEX_POINT('',#2060);
#632=VERTEX_POINT('',#2062);
#633=VERTEX_POINT('',#2066);
#634=VERTEX_POINT('',#2068);
#635=VERTEX_POINT('',#2075);
#636=VERTEX_POINT('',#2077);
#637=VERTEX_POINT('',#2081);
#638=VERTEX_POINT('',#2083);
#639=VERTEX_POINT('',#2087);
#640=VERTEX_POINT('',#2088);
#641=VERTEX_POINT('',#2090);
#642=VERTEX_POINT('',#2092);
#643=VERTEX_POINT('',#2099);
#644=VERTEX_POINT('',#2101);
#645=VERTEX_POINT('',#2105);
#646=VERTEX_POINT('',#2107);
#647=VERTEX_POINT('',#2114);
#648=VERTEX_POINT('',#2116);
#649=VERTEX_POINT('',#2120);
#650=VERTEX_POINT('',#2122);
#651=VERTEX_POINT('',#2129);
#652=VERTEX_POINT('',#2130);
#653=VERTEX_POINT('',#2132);
#654=VERTEX_POINT('',#2134);
#655=VERTEX_POINT('',#2137);
#656=VERTEX_POINT('',#2138);
#657=VERTEX_POINT('',#2140);
#658=VERTEX_POINT('',#2142);
#659=VERTEX_POINT('',#2154);
#660=VERTEX_POINT('',#2155);
#661=VERTEX_POINT('',#2160);
#662=VERTEX_POINT('',#2164);
#663=EDGE_CURVE('',#535,#536,#151,.T.);
#664=EDGE_CURVE('',#537,#536,#152,.T.);
#665=EDGE_CURVE('',#538,#537,#153,.T.);
#666=EDGE_CURVE('',#535,#538,#154,.T.);
#667=EDGE_CURVE('',#539,#535,#155,.T.);
#668=EDGE_CURVE('',#540,#538,#156,.T.);
#669=EDGE_CURVE('',#539,#540,#157,.T.);
#670=EDGE_CURVE('',#541,#539,#158,.T.);
#671=EDGE_CURVE('',#542,#540,#159,.T.);
#672=EDGE_CURVE('',#541,#542,#160,.T.);
#673=EDGE_CURVE('',#542,#543,#161,.T.);
#674=EDGE_CURVE('',#543,#544,#162,.T.);
#675=EDGE_CURVE('',#544,#541,#163,.T.);
#676=EDGE_CURVE('',#536,#545,#164,.T.);
#677=EDGE_CURVE('',#545,#546,#165,.T.);
#678=EDGE_CURVE('',#546,#537,#166,.T.);
#679=EDGE_CURVE('',#547,#548,#167,.T.);
#680=EDGE_CURVE('',#549,#548,#168,.T.);
#681=EDGE_CURVE('',#550,#549,#169,.T.);
#682=EDGE_CURVE('',#547,#550,#170,.T.);
#683=EDGE_CURVE('',#551,#547,#171,.T.);
#684=EDGE_CURVE('',#552,#550,#172,.T.);
#685=EDGE_CURVE('',#551,#552,#173,.T.);
#686=EDGE_CURVE('',#553,#551,#174,.T.);
#687=EDGE_CURVE('',#554,#552,#175,.T.);
#688=EDGE_CURVE('',#553,#554,#176,.T.);
#689=EDGE_CURVE('',#554,#555,#177,.T.);
#690=EDGE_CURVE('',#555,#556,#178,.T.);
#691=EDGE_CURVE('',#556,#553,#179,.T.);
#692=EDGE_CURVE('',#548,#557,#180,.T.);
#693=EDGE_CURVE('',#557,#558,#181,.T.);
#694=EDGE_CURVE('',#558,#549,#182,.T.);
#695=EDGE_CURVE('',#559,#560,#183,.T.);
#696=EDGE_CURVE('',#561,#560,#184,.T.);
#697=EDGE_CURVE('',#562,#561,#185,.T.);
#698=EDGE_CURVE('',#559,#562,#186,.T.);
#699=EDGE_CURVE('',#563,#559,#187,.T.);
#700=EDGE_CURVE('',#564,#562,#188,.T.);
#701=EDGE_CURVE('',#563,#564,#189,.T.);
#702=EDGE_CURVE('',#565,#563,#190,.T.);
#703=EDGE_CURVE('',#566,#564,#191,.T.);
#704=EDGE_CURVE('',#565,#566,#192,.T.);
#705=EDGE_CURVE('',#566,#567,#193,.T.);
#706=EDGE_CURVE('',#567,#568,#194,.T.);
#707=EDGE_CURVE('',#568,#565,#195,.T.);
#708=EDGE_CURVE('',#560,#569,#196,.T.);
#709=EDGE_CURVE('',#569,#570,#197,.T.);
#710=EDGE_CURVE('',#570,#561,#198,.T.);
#711=EDGE_CURVE('',#571,#572,#199,.T.);
#712=EDGE_CURVE('',#573,#572,#200,.T.);
#713=EDGE_CURVE('',#574,#573,#201,.T.);
#714=EDGE_CURVE('',#571,#574,#202,.T.);
#715=EDGE_CURVE('',#575,#571,#203,.T.);
#716=EDGE_CURVE('',#576,#574,#204,.T.);
#717=EDGE_CURVE('',#575,#576,#205,.T.);
#718=EDGE_CURVE('',#577,#575,#206,.T.);
#719=EDGE_CURVE('',#578,#576,#207,.T.);
#720=EDGE_CURVE('',#577,#578,#208,.T.);
#721=EDGE_CURVE('',#578,#579,#209,.T.);
#722=EDGE_CURVE('',#579,#580,#210,.T.);
#723=EDGE_CURVE('',#580,#577,#211,.T.);
#724=EDGE_CURVE('',#572,#581,#212,.T.);
#725=EDGE_CURVE('',#581,#582,#213,.T.);
#726=EDGE_CURVE('',#582,#573,#214,.T.);
#727=EDGE_CURVE('',#583,#580,#215,.T.);
#728=EDGE_CURVE('',#584,#579,#216,.T.);
#729=EDGE_CURVE('',#583,#584,#217,.T.);
#730=EDGE_CURVE('',#585,#583,#218,.T.);
#731=EDGE_CURVE('',#586,#584,#219,.T.);
#732=EDGE_CURVE('',#585,#586,#220,.T.);
#733=EDGE_CURVE('',#587,#585,#221,.T.);
#734=EDGE_CURVE('',#588,#586,#222,.T.);
#735=EDGE_CURVE('',#587,#588,#223,.T.);
#736=EDGE_CURVE('',#588,#589,#224,.T.);
#737=EDGE_CURVE('',#589,#590,#225,.T.);
#738=EDGE_CURVE('',#590,#587,#226,.T.);
#739=EDGE_CURVE('',#591,#592,#227,.T.);
#740=EDGE_CURVE('',#593,#592,#228,.T.);
#741=EDGE_CURVE('',#594,#593,#229,.T.);
#742=EDGE_CURVE('',#591,#594,#230,.T.);
#743=EDGE_CURVE('',#595,#591,#231,.T.);
#744=EDGE_CURVE('',#596,#594,#232,.T.);
#745=EDGE_CURVE('',#595,#596,#233,.T.);
#746=EDGE_CURVE('',#569,#595,#234,.T.);
#747=EDGE_CURVE('',#570,#596,#235,.T.);
#748=EDGE_CURVE('',#592,#597,#236,.T.);
#749=EDGE_CURVE('',#597,#598,#237,.T.);
#750=EDGE_CURVE('',#598,#593,#238,.T.);
#751=EDGE_CURVE('',#599,#600,#239,.T.);
#752=EDGE_CURVE('',#601,#600,#240,.T.);
#753=EDGE_CURVE('',#602,#601,#241,.T.);
#754=EDGE_CURVE('',#599,#602,#242,.T.);
#755=EDGE_CURVE('',#603,#599,#243,.T.);
#756=EDGE_CURVE('',#604,#602,#244,.T.);
#757=EDGE_CURVE('',#603,#604,#245,.T.);
#758=EDGE_CURVE('',#557,#603,#246,.T.);
#759=EDGE_CURVE('',#558,#604,#247,.T.);
#760=EDGE_CURVE('',#600,#605,#248,.T.);
#761=EDGE_CURVE('',#605,#606,#249,.T.);
#762=EDGE_CURVE('',#606,#601,#250,.T.);
#763=EDGE_CURVE('',#607,#608,#251,.T.);
#764=EDGE_CURVE('',#609,#608,#252,.T.);
#765=EDGE_CURVE('',#610,#609,#253,.T.);
#766=EDGE_CURVE('',#607,#610,#254,.T.);
#767=EDGE_CURVE('',#611,#607,#255,.T.);
#768=EDGE_CURVE('',#612,#610,#256,.T.);
#769=EDGE_CURVE('',#611,#612,#257,.T.);
#770=EDGE_CURVE('',#545,#611,#258,.T.);
#771=EDGE_CURVE('',#546,#612,#259,.T.);
#772=EDGE_CURVE('',#608,#613,#260,.T.);
#773=EDGE_CURVE('',#613,#614,#261,.T.);
#774=EDGE_CURVE('',#614,#609,#262,.T.);
#775=EDGE_CURVE('',#615,#556,#263,.T.);
#776=EDGE_CURVE('',#616,#555,#264,.T.);
#777=EDGE_CURVE('',#615,#616,#265,.T.);
#778=EDGE_CURVE('',#617,#615,#266,.T.);
#779=EDGE_CURVE('',#618,#616,#267,.T.);
#780=EDGE_CURVE('',#617,#618,#268,.T.);
#781=EDGE_CURVE('',#619,#617,#269,.T.);
#782=EDGE_CURVE('',#620,#618,#270,.T.);
#783=EDGE_CURVE('',#619,#620,#271,.T.);
#784=EDGE_CURVE('',#620,#621,#272,.T.);
#785=EDGE_CURVE('',#621,#622,#273,.T.);
#786=EDGE_CURVE('',#622,#619,#274,.T.);
#787=EDGE_CURVE('',#623,#568,#275,.T.);
#788=EDGE_CURVE('',#624,#567,#276,.T.);
#789=EDGE_CURVE('',#623,#624,#277,.T.);
#790=EDGE_CURVE('',#625,#623,#278,.T.);
#791=EDGE_CURVE('',#626,#624,#279,.T.);
#792=EDGE_CURVE('',#625,#626,#280,.T.);
#793=EDGE_CURVE('',#627,#625,#281,.T.);
#794=EDGE_CURVE('',#628,#626,#282,.T.);
#795=EDGE_CURVE('',#627,#628,#283,.T.);
#796=EDGE_CURVE('',#628,#629,#284,.T.);
#797=EDGE_CURVE('',#629,#630,#285,.T.);
#798=EDGE_CURVE('',#630,#627,#286,.T.);
#799=EDGE_CURVE('',#631,#544,#287,.T.);
#800=EDGE_CURVE('',#632,#543,#288,.T.);
#801=EDGE_CURVE('',#631,#632,#289,.T.);
#802=EDGE_CURVE('',#633,#631,#290,.T.);
#803=EDGE_CURVE('',#634,#632,#291,.T.);
#804=EDGE_CURVE('',#633,#634,#292,.T.);
#805=EDGE_CURVE('',#581,#633,#293,.T.);
#806=EDGE_CURVE('',#582,#634,#294,.T.);
#807=EDGE_CURVE('',#635,#590,#295,.T.);
#808=EDGE_CURVE('',#636,#589,#296,.T.);
#809=EDGE_CURVE('',#635,#636,#297,.T.);
#810=EDGE_CURVE('',#637,#635,#298,.T.);
#811=EDGE_CURVE('',#638,#636,#299,.T.);
#812=EDGE_CURVE('',#637,#638,#300,.T.);
#813=EDGE_CURVE('',#639,#640,#301,.T.);
#814=EDGE_CURVE('',#640,#641,#302,.T.);
#815=EDGE_CURVE('',#642,#641,#303,.T.);
#816=EDGE_CURVE('',#639,#642,#304,.T.);
#817=EDGE_CURVE('',#597,#639,#305,.T.);
#818=EDGE_CURVE('',#598,#642,#306,.T.);
#819=EDGE_CURVE('',#643,#630,#307,.T.);
#820=EDGE_CURVE('',#644,#629,#308,.T.);
#821=EDGE_CURVE('',#643,#644,#309,.T.);
#822=EDGE_CURVE('',#645,#643,#310,.T.);
#823=EDGE_CURVE('',#646,#644,#311,.T.);
#824=EDGE_CURVE('',#645,#646,#312,.T.);
#825=EDGE_CURVE('',#605,#645,#313,.T.);
#826=EDGE_CURVE('',#606,#646,#314,.T.);
#827=EDGE_CURVE('',#647,#622,#315,.T.);
#828=EDGE_CURVE('',#648,#621,#316,.T.);
#829=EDGE_CURVE('',#647,#648,#317,.T.);
#830=EDGE_CURVE('',#649,#647,#318,.T.);
#831=EDGE_CURVE('',#650,#648,#319,.T.);
#832=EDGE_CURVE('',#649,#650,#320,.T.);
#833=EDGE_CURVE('',#613,#649,#321,.T.);
#834=EDGE_CURVE('',#614,#650,#322,.T.);
#835=EDGE_CURVE('',#651,#652,#323,.T.);
#836=EDGE_CURVE('',#653,#651,#324,.T.);
#837=EDGE_CURVE('',#654,#653,#325,.T.);
#838=EDGE_CURVE('',#652,#654,#326,.T.);
#839=EDGE_CURVE('',#655,#656,#327,.T.);
#840=EDGE_CURVE('',#656,#657,#328,.T.);
#841=EDGE_CURVE('',#657,#658,#329,.T.);
#842=EDGE_CURVE('',#658,#655,#330,.T.);
#843=EDGE_CURVE('',#651,#641,#331,.T.);
#844=EDGE_CURVE('',#653,#640,#332,.T.);
#845=EDGE_CURVE('',#654,#637,#333,.T.);
#846=EDGE_CURVE('',#652,#638,#334,.T.);
#847=EDGE_CURVE('',#659,#660,#335,.T.);
#848=EDGE_CURVE('',#659,#656,#336,.T.);
#849=EDGE_CURVE('',#660,#655,#337,.T.);
#850=EDGE_CURVE('',#660,#661,#338,.T.);
#851=EDGE_CURVE('',#661,#658,#339,.T.);
#852=EDGE_CURVE('',#661,#662,#340,.T.);
#853=EDGE_CURVE('',#662,#657,#341,.T.);
#854=EDGE_CURVE('',#662,#659,#342,.T.);
#855=ORIENTED_EDGE('',*,*,#663,.T.);
#856=ORIENTED_EDGE('',*,*,#664,.F.);
#857=ORIENTED_EDGE('',*,*,#665,.F.);
#858=ORIENTED_EDGE('',*,*,#666,.F.);
#859=ORIENTED_EDGE('',*,*,#667,.T.);
#860=ORIENTED_EDGE('',*,*,#666,.T.);
#861=ORIENTED_EDGE('',*,*,#668,.F.);
#862=ORIENTED_EDGE('',*,*,#669,.F.);
#863=ORIENTED_EDGE('',*,*,#670,.T.);
#864=ORIENTED_EDGE('',*,*,#669,.T.);
#865=ORIENTED_EDGE('',*,*,#671,.F.);
#866=ORIENTED_EDGE('',*,*,#672,.F.);
#867=ORIENTED_EDGE('',*,*,#672,.T.);
#868=ORIENTED_EDGE('',*,*,#673,.T.);
#869=ORIENTED_EDGE('',*,*,#674,.T.);
#870=ORIENTED_EDGE('',*,*,#675,.T.);
#871=ORIENTED_EDGE('',*,*,#664,.T.);
#872=ORIENTED_EDGE('',*,*,#676,.T.);
#873=ORIENTED_EDGE('',*,*,#677,.T.);
#874=ORIENTED_EDGE('',*,*,#678,.T.);
#875=ORIENTED_EDGE('',*,*,#679,.T.);
#876=ORIENTED_EDGE('',*,*,#680,.F.);
#877=ORIENTED_EDGE('',*,*,#681,.F.);
#878=ORIENTED_EDGE('',*,*,#682,.F.);
#879=ORIENTED_EDGE('',*,*,#683,.T.);
#880=ORIENTED_EDGE('',*,*,#682,.T.);
#881=ORIENTED_EDGE('',*,*,#684,.F.);
#882=ORIENTED_EDGE('',*,*,#685,.F.);
#883=ORIENTED_EDGE('',*,*,#686,.T.);
#884=ORIENTED_EDGE('',*,*,#685,.T.);
#885=ORIENTED_EDGE('',*,*,#687,.F.);
#886=ORIENTED_EDGE('',*,*,#688,.F.);
#887=ORIENTED_EDGE('',*,*,#688,.T.);
#888=ORIENTED_EDGE('',*,*,#689,.T.);
#889=ORIENTED_EDGE('',*,*,#690,.T.);
#890=ORIENTED_EDGE('',*,*,#691,.T.);
#891=ORIENTED_EDGE('',*,*,#680,.T.);
#892=ORIENTED_EDGE('',*,*,#692,.T.);
#893=ORIENTED_EDGE('',*,*,#693,.T.);
#894=ORIENTED_EDGE('',*,*,#694,.T.);
#895=ORIENTED_EDGE('',*,*,#695,.T.);
#896=ORIENTED_EDGE('',*,*,#696,.F.);
#897=ORIENTED_EDGE('',*,*,#697,.F.);
#898=ORIENTED_EDGE('',*,*,#698,.F.);
#899=ORIENTED_EDGE('',*,*,#699,.T.);
#900=ORIENTED_EDGE('',*,*,#698,.T.);
#901=ORIENTED_EDGE('',*,*,#700,.F.);
#902=ORIENTED_EDGE('',*,*,#701,.F.);
#903=ORIENTED_EDGE('',*,*,#702,.T.);
#904=ORIENTED_EDGE('',*,*,#701,.T.);
#905=ORIENTED_EDGE('',*,*,#703,.F.);
#906=ORIENTED_EDGE('',*,*,#704,.F.);
#907=ORIENTED_EDGE('',*,*,#704,.T.);
#908=ORIENTED_EDGE('',*,*,#705,.T.);
#909=ORIENTED_EDGE('',*,*,#706,.T.);
#910=ORIENTED_EDGE('',*,*,#707,.T.);
#911=ORIENTED_EDGE('',*,*,#696,.T.);
#912=ORIENTED_EDGE('',*,*,#708,.T.);
#913=ORIENTED_EDGE('',*,*,#709,.T.);
#914=ORIENTED_EDGE('',*,*,#710,.T.);
#915=ORIENTED_EDGE('',*,*,#711,.T.);
#916=ORIENTED_EDGE('',*,*,#712,.F.);
#917=ORIENTED_EDGE('',*,*,#713,.F.);
#918=ORIENTED_EDGE('',*,*,#714,.F.);
#919=ORIENTED_EDGE('',*,*,#715,.T.);
#920=ORIENTED_EDGE('',*,*,#714,.T.);
#921=ORIENTED_EDGE('',*,*,#716,.F.);
#922=ORIENTED_EDGE('',*,*,#717,.F.);
#923=ORIENTED_EDGE('',*,*,#718,.T.);
#924=ORIENTED_EDGE('',*,*,#717,.T.);
#925=ORIENTED_EDGE('',*,*,#719,.F.);
#926=ORIENTED_EDGE('',*,*,#720,.F.);
#927=ORIENTED_EDGE('',*,*,#720,.T.);
#928=ORIENTED_EDGE('',*,*,#721,.T.);
#929=ORIENTED_EDGE('',*,*,#722,.T.);
#930=ORIENTED_EDGE('',*,*,#723,.T.);
#931=ORIENTED_EDGE('',*,*,#712,.T.);
#932=ORIENTED_EDGE('',*,*,#724,.T.);
#933=ORIENTED_EDGE('',*,*,#725,.T.);
#934=ORIENTED_EDGE('',*,*,#726,.T.);
#935=ORIENTED_EDGE('',*,*,#727,.T.);
#936=ORIENTED_EDGE('',*,*,#722,.F.);
#937=ORIENTED_EDGE('',*,*,#728,.F.);
#938=ORIENTED_EDGE('',*,*,#729,.F.);
#939=ORIENTED_EDGE('',*,*,#730,.T.);
#940=ORIENTED_EDGE('',*,*,#729,.T.);
#941=ORIENTED_EDGE('',*,*,#731,.F.);
#942=ORIENTED_EDGE('',*,*,#732,.F.);
#943=ORIENTED_EDGE('',*,*,#733,.T.);
#944=ORIENTED_EDGE('',*,*,#732,.T.);
#945=ORIENTED_EDGE('',*,*,#734,.F.);
#946=ORIENTED_EDGE('',*,*,#735,.F.);
#947=ORIENTED_EDGE('',*,*,#735,.T.);
#948=ORIENTED_EDGE('',*,*,#736,.T.);
#949=ORIENTED_EDGE('',*,*,#737,.T.);
#950=ORIENTED_EDGE('',*,*,#738,.T.);
#951=ORIENTED_EDGE('',*,*,#739,.T.);
#952=ORIENTED_EDGE('',*,*,#740,.F.);
#953=ORIENTED_EDGE('',*,*,#741,.F.);
#954=ORIENTED_EDGE('',*,*,#742,.F.);
#955=ORIENTED_EDGE('',*,*,#743,.T.);
#956=ORIENTED_EDGE('',*,*,#742,.T.);
#957=ORIENTED_EDGE('',*,*,#744,.F.);
#958=ORIENTED_EDGE('',*,*,#745,.F.);
#959=ORIENTED_EDGE('',*,*,#746,.T.);
#960=ORIENTED_EDGE('',*,*,#745,.T.);
#961=ORIENTED_EDGE('',*,*,#747,.F.);
#962=ORIENTED_EDGE('',*,*,#709,.F.);
#963=ORIENTED_EDGE('',*,*,#740,.T.);
#964=ORIENTED_EDGE('',*,*,#748,.T.);
#965=ORIENTED_EDGE('',*,*,#749,.T.);
#966=ORIENTED_EDGE('',*,*,#750,.T.);
#967=ORIENTED_EDGE('',*,*,#751,.T.);
#968=ORIENTED_EDGE('',*,*,#752,.F.);
#969=ORIENTED_EDGE('',*,*,#753,.F.);
#970=ORIENTED_EDGE('',*,*,#754,.F.);
#971=ORIENTED_EDGE('',*,*,#755,.T.);
#972=ORIENTED_EDGE('',*,*,#754,.T.);
#973=ORIENTED_EDGE('',*,*,#756,.F.);
#974=ORIENTED_EDGE('',*,*,#757,.F.);
#975=ORIENTED_EDGE('',*,*,#758,.T.);
#976=ORIENTED_EDGE('',*,*,#757,.T.);
#977=ORIENTED_EDGE('',*,*,#759,.F.);
#978=ORIENTED_EDGE('',*,*,#693,.F.);
#979=ORIENTED_EDGE('',*,*,#752,.T.);
#980=ORIENTED_EDGE('',*,*,#760,.T.);
#981=ORIENTED_EDGE('',*,*,#761,.T.);
#982=ORIENTED_EDGE('',*,*,#762,.T.);
#983=ORIENTED_EDGE('',*,*,#763,.T.);
#984=ORIENTED_EDGE('',*,*,#764,.F.);
#985=ORIENTED_EDGE('',*,*,#765,.F.);
#986=ORIENTED_EDGE('',*,*,#766,.F.);
#987=ORIENTED_EDGE('',*,*,#767,.T.);
#988=ORIENTED_EDGE('',*,*,#766,.T.);
#989=ORIENTED_EDGE('',*,*,#768,.F.);
#990=ORIENTED_EDGE('',*,*,#769,.F.);
#991=ORIENTED_EDGE('',*,*,#770,.T.);
#992=ORIENTED_EDGE('',*,*,#769,.T.);
#993=ORIENTED_EDGE('',*,*,#771,.F.);
#994=ORIENTED_EDGE('',*,*,#677,.F.);
#995=ORIENTED_EDGE('',*,*,#764,.T.);
#996=ORIENTED_EDGE('',*,*,#772,.T.);
#997=ORIENTED_EDGE('',*,*,#773,.T.);
#998=ORIENTED_EDGE('',*,*,#774,.T.);
#999=ORIENTED_EDGE('',*,*,#775,.T.);
#1000=ORIENTED_EDGE('',*,*,#690,.F.);
#1001=ORIENTED_EDGE('',*,*,#776,.F.);
#1002=ORIENTED_EDGE('',*,*,#777,.F.);
#1003=ORIENTED_EDGE('',*,*,#778,.T.);
#1004=ORIENTED_EDGE('',*,*,#777,.T.);
#1005=ORIENTED_EDGE('',*,*,#779,.F.);
#1006=ORIENTED_EDGE('',*,*,#780,.F.);
#1007=ORIENTED_EDGE('',*,*,#781,.T.);
#1008=ORIENTED_EDGE('',*,*,#780,.T.);
#1009=ORIENTED_EDGE('',*,*,#782,.F.);
#1010=ORIENTED_EDGE('',*,*,#783,.F.);
#1011=ORIENTED_EDGE('',*,*,#783,.T.);
#1012=ORIENTED_EDGE('',*,*,#784,.T.);
#1013=ORIENTED_EDGE('',*,*,#785,.T.);
#1014=ORIENTED_EDGE('',*,*,#786,.T.);
#1015=ORIENTED_EDGE('',*,*,#787,.T.);
#1016=ORIENTED_EDGE('',*,*,#706,.F.);
#1017=ORIENTED_EDGE('',*,*,#788,.F.);
#1018=ORIENTED_EDGE('',*,*,#789,.F.);
#1019=ORIENTED_EDGE('',*,*,#790,.T.);
#1020=ORIENTED_EDGE('',*,*,#789,.T.);
#1021=ORIENTED_EDGE('',*,*,#791,.F.);
#1022=ORIENTED_EDGE('',*,*,#792,.F.);
#1023=ORIENTED_EDGE('',*,*,#793,.T.);
#1024=ORIENTED_EDGE('',*,*,#792,.T.);
#1025=ORIENTED_EDGE('',*,*,#794,.F.);
#1026=ORIENTED_EDGE('',*,*,#795,.F.);
#1027=ORIENTED_EDGE('',*,*,#795,.T.);
#1028=ORIENTED_EDGE('',*,*,#796,.T.);
#1029=ORIENTED_EDGE('',*,*,#797,.T.);
#1030=ORIENTED_EDGE('',*,*,#798,.T.);
#1031=ORIENTED_EDGE('',*,*,#799,.T.);
#1032=ORIENTED_EDGE('',*,*,#674,.F.);
#1033=ORIENTED_EDGE('',*,*,#800,.F.);
#1034=ORIENTED_EDGE('',*,*,#801,.F.);
#1035=ORIENTED_EDGE('',*,*,#802,.T.);
#1036=ORIENTED_EDGE('',*,*,#801,.T.);
#1037=ORIENTED_EDGE('',*,*,#803,.F.);
#1038=ORIENTED_EDGE('',*,*,#804,.F.);
#1039=ORIENTED_EDGE('',*,*,#805,.T.);
#1040=ORIENTED_EDGE('',*,*,#804,.T.);
#1041=ORIENTED_EDGE('',*,*,#806,.F.);
#1042=ORIENTED_EDGE('',*,*,#725,.F.);
#1043=ORIENTED_EDGE('',*,*,#807,.T.);
#1044=ORIENTED_EDGE('',*,*,#737,.F.);
#1045=ORIENTED_EDGE('',*,*,#808,.F.);
#1046=ORIENTED_EDGE('',*,*,#809,.F.);
#1047=ORIENTED_EDGE('',*,*,#810,.T.);
#1048=ORIENTED_EDGE('',*,*,#809,.T.);
#1049=ORIENTED_EDGE('',*,*,#811,.F.);
#1050=ORIENTED_EDGE('',*,*,#812,.F.);
#1051=ORIENTED_EDGE('',*,*,#813,.T.);
#1052=ORIENTED_EDGE('',*,*,#814,.T.);
#1053=ORIENTED_EDGE('',*,*,#815,.F.);
#1054=ORIENTED_EDGE('',*,*,#816,.F.);
#1055=ORIENTED_EDGE('',*,*,#817,.T.);
#1056=ORIENTED_EDGE('',*,*,#816,.T.);
#1057=ORIENTED_EDGE('',*,*,#818,.F.);
#1058=ORIENTED_EDGE('',*,*,#749,.F.);
#1059=ORIENTED_EDGE('',*,*,#819,.T.);
#1060=ORIENTED_EDGE('',*,*,#797,.F.);
#1061=ORIENTED_EDGE('',*,*,#820,.F.);
#1062=ORIENTED_EDGE('',*,*,#821,.F.);
#1063=ORIENTED_EDGE('',*,*,#822,.T.);
#1064=ORIENTED_EDGE('',*,*,#821,.T.);
#1065=ORIENTED_EDGE('',*,*,#823,.F.);
#1066=ORIENTED_EDGE('',*,*,#824,.F.);
#1067=ORIENTED_EDGE('',*,*,#825,.T.);
#1068=ORIENTED_EDGE('',*,*,#824,.T.);
#1069=ORIENTED_EDGE('',*,*,#826,.F.);
#1070=ORIENTED_EDGE('',*,*,#761,.F.);
#1071=ORIENTED_EDGE('',*,*,#827,.T.);
#1072=ORIENTED_EDGE('',*,*,#785,.F.);
#1073=ORIENTED_EDGE('',*,*,#828,.F.);
#1074=ORIENTED_EDGE('',*,*,#829,.F.);
#1075=ORIENTED_EDGE('',*,*,#830,.T.);
#1076=ORIENTED_EDGE('',*,*,#829,.T.);
#1077=ORIENTED_EDGE('',*,*,#831,.F.);
#1078=ORIENTED_EDGE('',*,*,#832,.F.);
#1079=ORIENTED_EDGE('',*,*,#833,.T.);
#1080=ORIENTED_EDGE('',*,*,#832,.T.);
#1081=ORIENTED_EDGE('',*,*,#834,.F.);
#1082=ORIENTED_EDGE('',*,*,#773,.F.);
#1083=ORIENTED_EDGE('',*,*,#835,.F.);
#1084=ORIENTED_EDGE('',*,*,#836,.F.);
#1085=ORIENTED_EDGE('',*,*,#837,.F.);
#1086=ORIENTED_EDGE('',*,*,#838,.F.);
#1087=ORIENTED_EDGE('',*,*,#839,.T.);
#1088=ORIENTED_EDGE('',*,*,#840,.T.);
#1089=ORIENTED_EDGE('',*,*,#841,.T.);
#1090=ORIENTED_EDGE('',*,*,#842,.T.);
#1091=ORIENTED_EDGE('',*,*,#836,.T.);
#1092=ORIENTED_EDGE('',*,*,#843,.T.);
#1093=ORIENTED_EDGE('',*,*,#814,.F.);
#1094=ORIENTED_EDGE('',*,*,#844,.F.);
#1095=ORIENTED_EDGE('',*,*,#837,.T.);
#1096=ORIENTED_EDGE('',*,*,#844,.T.);
#1097=ORIENTED_EDGE('',*,*,#813,.F.);
#1098=ORIENTED_EDGE('',*,*,#817,.F.);
#1099=ORIENTED_EDGE('',*,*,#748,.F.);
#1100=ORIENTED_EDGE('',*,*,#739,.F.);
#1101=ORIENTED_EDGE('',*,*,#743,.F.);
#1102=ORIENTED_EDGE('',*,*,#746,.F.);
#1103=ORIENTED_EDGE('',*,*,#708,.F.);
#1104=ORIENTED_EDGE('',*,*,#695,.F.);
#1105=ORIENTED_EDGE('',*,*,#699,.F.);
#1106=ORIENTED_EDGE('',*,*,#702,.F.);
#1107=ORIENTED_EDGE('',*,*,#707,.F.);
#1108=ORIENTED_EDGE('',*,*,#787,.F.);
#1109=ORIENTED_EDGE('',*,*,#790,.F.);
#1110=ORIENTED_EDGE('',*,*,#793,.F.);
#1111=ORIENTED_EDGE('',*,*,#798,.F.);
#1112=ORIENTED_EDGE('',*,*,#819,.F.);
#1113=ORIENTED_EDGE('',*,*,#822,.F.);
#1114=ORIENTED_EDGE('',*,*,#825,.F.);
#1115=ORIENTED_EDGE('',*,*,#760,.F.);
#1116=ORIENTED_EDGE('',*,*,#751,.F.);
#1117=ORIENTED_EDGE('',*,*,#755,.F.);
#1118=ORIENTED_EDGE('',*,*,#758,.F.);
#1119=ORIENTED_EDGE('',*,*,#692,.F.);
#1120=ORIENTED_EDGE('',*,*,#679,.F.);
#1121=ORIENTED_EDGE('',*,*,#683,.F.);
#1122=ORIENTED_EDGE('',*,*,#686,.F.);
#1123=ORIENTED_EDGE('',*,*,#691,.F.);
#1124=ORIENTED_EDGE('',*,*,#775,.F.);
#1125=ORIENTED_EDGE('',*,*,#778,.F.);
#1126=ORIENTED_EDGE('',*,*,#781,.F.);
#1127=ORIENTED_EDGE('',*,*,#786,.F.);
#1128=ORIENTED_EDGE('',*,*,#827,.F.);
#1129=ORIENTED_EDGE('',*,*,#830,.F.);
#1130=ORIENTED_EDGE('',*,*,#833,.F.);
#1131=ORIENTED_EDGE('',*,*,#772,.F.);
#1132=ORIENTED_EDGE('',*,*,#763,.F.);
#1133=ORIENTED_EDGE('',*,*,#767,.F.);
#1134=ORIENTED_EDGE('',*,*,#770,.F.);
#1135=ORIENTED_EDGE('',*,*,#676,.F.);
#1136=ORIENTED_EDGE('',*,*,#663,.F.);
#1137=ORIENTED_EDGE('',*,*,#667,.F.);
#1138=ORIENTED_EDGE('',*,*,#670,.F.);
#1139=ORIENTED_EDGE('',*,*,#675,.F.);
#1140=ORIENTED_EDGE('',*,*,#799,.F.);
#1141=ORIENTED_EDGE('',*,*,#802,.F.);
#1142=ORIENTED_EDGE('',*,*,#805,.F.);
#1143=ORIENTED_EDGE('',*,*,#724,.F.);
#1144=ORIENTED_EDGE('',*,*,#711,.F.);
#1145=ORIENTED_EDGE('',*,*,#715,.F.);
#1146=ORIENTED_EDGE('',*,*,#718,.F.);
#1147=ORIENTED_EDGE('',*,*,#723,.F.);
#1148=ORIENTED_EDGE('',*,*,#727,.F.);
#1149=ORIENTED_EDGE('',*,*,#730,.F.);
#1150=ORIENTED_EDGE('',*,*,#733,.F.);
#1151=ORIENTED_EDGE('',*,*,#738,.F.);
#1152=ORIENTED_EDGE('',*,*,#807,.F.);
#1153=ORIENTED_EDGE('',*,*,#810,.F.);
#1154=ORIENTED_EDGE('',*,*,#845,.F.);
#1155=ORIENTED_EDGE('',*,*,#838,.T.);
#1156=ORIENTED_EDGE('',*,*,#845,.T.);
#1157=ORIENTED_EDGE('',*,*,#812,.T.);
#1158=ORIENTED_EDGE('',*,*,#846,.F.);
#1159=ORIENTED_EDGE('',*,*,#835,.T.);
#1160=ORIENTED_EDGE('',*,*,#846,.T.);
#1161=ORIENTED_EDGE('',*,*,#811,.T.);
#1162=ORIENTED_EDGE('',*,*,#808,.T.);
#1163=ORIENTED_EDGE('',*,*,#736,.F.);
#1164=ORIENTED_EDGE('',*,*,#734,.T.);
#1165=ORIENTED_EDGE('',*,*,#731,.T.);
#1166=ORIENTED_EDGE('',*,*,#728,.T.);
#1167=ORIENTED_EDGE('',*,*,#721,.F.);
#1168=ORIENTED_EDGE('',*,*,#719,.T.);
#1169=ORIENTED_EDGE('',*,*,#716,.T.);
#1170=ORIENTED_EDGE('',*,*,#713,.T.);
#1171=ORIENTED_EDGE('',*,*,#726,.F.);
#1172=ORIENTED_EDGE('',*,*,#806,.T.);
#1173=ORIENTED_EDGE('',*,*,#803,.T.);
#1174=ORIENTED_EDGE('',*,*,#800,.T.);
#1175=ORIENTED_EDGE('',*,*,#673,.F.);
#1176=ORIENTED_EDGE('',*,*,#671,.T.);
#1177=ORIENTED_EDGE('',*,*,#668,.T.);
#1178=ORIENTED_EDGE('',*,*,#665,.T.);
#1179=ORIENTED_EDGE('',*,*,#678,.F.);
#1180=ORIENTED_EDGE('',*,*,#771,.T.);
#1181=ORIENTED_EDGE('',*,*,#768,.T.);
#1182=ORIENTED_EDGE('',*,*,#765,.T.);
#1183=ORIENTED_EDGE('',*,*,#774,.F.);
#1184=ORIENTED_EDGE('',*,*,#834,.T.);
#1185=ORIENTED_EDGE('',*,*,#831,.T.);
#1186=ORIENTED_EDGE('',*,*,#828,.T.);
#1187=ORIENTED_EDGE('',*,*,#784,.F.);
#1188=ORIENTED_EDGE('',*,*,#782,.T.);
#1189=ORIENTED_EDGE('',*,*,#779,.T.);
#1190=ORIENTED_EDGE('',*,*,#776,.T.);
#1191=ORIENTED_EDGE('',*,*,#689,.F.);
#1192=ORIENTED_EDGE('',*,*,#687,.T.);
#1193=ORIENTED_EDGE('',*,*,#684,.T.);
#1194=ORIENTED_EDGE('',*,*,#681,.T.);
#1195=ORIENTED_EDGE('',*,*,#694,.F.);
#1196=ORIENTED_EDGE('',*,*,#759,.T.);
#1197=ORIENTED_EDGE('',*,*,#756,.T.);
#1198=ORIENTED_EDGE('',*,*,#753,.T.);
#1199=ORIENTED_EDGE('',*,*,#762,.F.);
#1200=ORIENTED_EDGE('',*,*,#826,.T.);
#1201=ORIENTED_EDGE('',*,*,#823,.T.);
#1202=ORIENTED_EDGE('',*,*,#820,.T.);
#1203=ORIENTED_EDGE('',*,*,#796,.F.);
#1204=ORIENTED_EDGE('',*,*,#794,.T.);
#1205=ORIENTED_EDGE('',*,*,#791,.T.);
#1206=ORIENTED_EDGE('',*,*,#788,.T.);
#1207=ORIENTED_EDGE('',*,*,#705,.F.);
#1208=ORIENTED_EDGE('',*,*,#703,.T.);
#1209=ORIENTED_EDGE('',*,*,#700,.T.);
#1210=ORIENTED_EDGE('',*,*,#697,.T.);
#1211=ORIENTED_EDGE('',*,*,#710,.F.);
#1212=ORIENTED_EDGE('',*,*,#747,.T.);
#1213=ORIENTED_EDGE('',*,*,#744,.T.);
#1214=ORIENTED_EDGE('',*,*,#741,.T.);
#1215=ORIENTED_EDGE('',*,*,#750,.F.);
#1216=ORIENTED_EDGE('',*,*,#818,.T.);
#1217=ORIENTED_EDGE('',*,*,#815,.T.);
#1218=ORIENTED_EDGE('',*,*,#843,.F.);
#1219=ORIENTED_EDGE('',*,*,#847,.F.);
#1220=ORIENTED_EDGE('',*,*,#848,.T.);
#1221=ORIENTED_EDGE('',*,*,#839,.F.);
#1222=ORIENTED_EDGE('',*,*,#849,.F.);
#1223=ORIENTED_EDGE('',*,*,#850,.F.);
#1224=ORIENTED_EDGE('',*,*,#849,.T.);
#1225=ORIENTED_EDGE('',*,*,#842,.F.);
#1226=ORIENTED_EDGE('',*,*,#851,.F.);
#1227=ORIENTED_EDGE('',*,*,#852,.F.);
#1228=ORIENTED_EDGE('',*,*,#851,.T.);
#1229=ORIENTED_EDGE('',*,*,#841,.F.);
#1230=ORIENTED_EDGE('',*,*,#853,.F.);
#1231=ORIENTED_EDGE('',*,*,#854,.F.);
#1232=ORIENTED_EDGE('',*,*,#853,.T.);
#1233=ORIENTED_EDGE('',*,*,#840,.F.);
#1234=ORIENTED_EDGE('',*,*,#848,.F.);
#1235=ORIENTED_EDGE('',*,*,#854,.T.);
#1236=ORIENTED_EDGE('',*,*,#847,.T.);
#1237=ORIENTED_EDGE('',*,*,#850,.T.);
#1238=ORIENTED_EDGE('',*,*,#852,.T.);
#1239=PLANE('',#1387);
#1240=PLANE('',#1388);
#1241=PLANE('',#1389);
#1242=PLANE('',#1390);
#1243=PLANE('',#1391);
#1244=PLANE('',#1392);
#1245=PLANE('',#1393);
#1246=PLANE('',#1394);
#1247=PLANE('',#1395);
#1248=PLANE('',#1396);
#1249=PLANE('',#1397);
#1250=PLANE('',#1398);
#1251=PLANE('',#1399);
#1252=PLANE('',#1400);
#1253=PLANE('',#1401);
#1254=PLANE('',#1402);
#1255=PLANE('',#1403);
#1256=PLANE('',#1404);
#1257=PLANE('',#1405);
#1258=PLANE('',#1406);
#1259=PLANE('',#1407);
#1260=PLANE('',#1408);
#1261=PLANE('',#1409);
#1262=PLANE('',#1410);
#1263=PLANE('',#1411);
#1264=PLANE('',#1412);
#1265=PLANE('',#1413);
#1266=PLANE('',#1414);
#1267=PLANE('',#1415);
#1268=PLANE('',#1416);
#1269=PLANE('',#1417);
#1270=PLANE('',#1418);
#1271=PLANE('',#1419);
#1272=PLANE('',#1420);
#1273=PLANE('',#1421);
#1274=PLANE('',#1422);
#1275=PLANE('',#1423);
#1276=PLANE('',#1424);
#1277=PLANE('',#1425);
#1278=PLANE('',#1426);
#1279=PLANE('',#1427);
#1280=PLANE('',#1428);
#1281=PLANE('',#1429);
#1282=PLANE('',#1430);
#1283=PLANE('',#1431);
#1284=PLANE('',#1432);
#1285=PLANE('',#1433);
#1286=PLANE('',#1434);
#1287=PLANE('',#1435);
#1288=PLANE('',#1436);
#1289=PLANE('',#1437);
#1290=PLANE('',#1438);
#1291=PLANE('',#1439);
#1292=PLANE('',#1440);
#1293=PLANE('',#1441);
#1294=PLANE('',#1442);
#1295=PLANE('',#1443);
#1296=PLANE('',#1444);
#1297=PLANE('',#1445);
#1298=PLANE('',#1446);
#1299=PLANE('',#1447);
#1300=PLANE('',#1448);
#1301=PLANE('',#1449);
#1302=PLANE('',#1450);
#1303=PLANE('',#1451);
#1304=PLANE('',#1452);
#1305=PLANE('',#1453);
#1306=ADVANCED_FACE('',(#16),#1239,.T.);
#1307=ADVANCED_FACE('',(#17),#1240,.T.);
#1308=ADVANCED_FACE('',(#18),#1241,.T.);
#1309=ADVANCED_FACE('',(#19),#1242,.T.);
#1310=ADVANCED_FACE('',(#20),#1243,.T.);
#1311=ADVANCED_FACE('',(#21),#1244,.T.);
#1312=ADVANCED_FACE('',(#22),#1245,.T.);
#1313=ADVANCED_FACE('',(#23),#1246,.T.);
#1314=ADVANCED_FACE('',(#24),#1247,.T.);
#1315=ADVANCED_FACE('',(#25),#1248,.T.);
#1316=ADVANCED_FACE('',(#26),#1249,.T.);
#1317=ADVANCED_FACE('',(#27),#1250,.T.);
#1318=ADVANCED_FACE('',(#28),#1251,.T.);
#1319=ADVANCED_FACE('',(#29),#1252,.T.);
#1320=ADVANCED_FACE('',(#30),#1253,.T.);
#1321=ADVANCED_FACE('',(#31),#1254,.T.);
#1322=ADVANCED_FACE('',(#32),#1255,.T.);
#1323=ADVANCED_FACE('',(#33),#1256,.T.);
#1324=ADVANCED_FACE('',(#34),#1257,.T.);
#1325=ADVANCED_FACE('',(#35),#1258,.T.);
#1326=ADVANCED_FACE('',(#36),#1259,.T.);
#1327=ADVANCED_FACE('',(#37),#1260,.T.);
#1328=ADVANCED_FACE('',(#38),#1261,.T.);
#1329=ADVANCED_FACE('',(#39),#1262,.T.);
#1330=ADVANCED_FACE('',(#40),#1263,.T.);
#1331=ADVANCED_FACE('',(#41),#1264,.T.);
#1332=ADVANCED_FACE('',(#42),#1265,.T.);
#1333=ADVANCED_FACE('',(#43),#1266,.T.);
#1334=ADVANCED_FACE('',(#44),#1267,.T.);
#1335=ADVANCED_FACE('',(#45),#1268,.T.);
#1336=ADVANCED_FACE('',(#46),#1269,.T.);
#1337=ADVANCED_FACE('',(#47),#1270,.T.);
#1338=ADVANCED_FACE('',(#48),#1271,.T.);
#1339=ADVANCED_FACE('',(#49),#1272,.T.);
#1340=ADVANCED_FACE('',(#50),#1273,.T.);
#1341=ADVANCED_FACE('',(#51),#1274,.T.);
#1342=ADVANCED_FACE('',(#52),#1275,.T.);
#1343=ADVANCED_FACE('',(#53),#1276,.T.);
#1344=ADVANCED_FACE('',(#54),#1277,.T.);
#1345=ADVANCED_FACE('',(#55),#1278,.T.);
#1346=ADVANCED_FACE('',(#56),#1279,.T.);
#1347=ADVANCED_FACE('',(#57),#1280,.T.);
#1348=ADVANCED_FACE('',(#58),#1281,.T.);
#1349=ADVANCED_FACE('',(#59),#1282,.T.);
#1350=ADVANCED_FACE('',(#60),#1283,.T.);
#1351=ADVANCED_FACE('',(#61),#1284,.T.);
#1352=ADVANCED_FACE('',(#62),#1285,.T.);
#1353=ADVANCED_FACE('',(#63),#1286,.T.);
#1354=ADVANCED_FACE('',(#64),#1287,.T.);
#1355=ADVANCED_FACE('',(#65),#1288,.T.);
#1356=ADVANCED_FACE('',(#66),#1289,.T.);
#1357=ADVANCED_FACE('',(#67),#1290,.T.);
#1358=ADVANCED_FACE('',(#68),#1291,.T.);
#1359=ADVANCED_FACE('',(#69),#1292,.T.);
#1360=ADVANCED_FACE('',(#70),#1293,.T.);
#1361=ADVANCED_FACE('',(#71),#1294,.T.);
#1362=ADVANCED_FACE('',(#72),#1295,.T.);
#1363=ADVANCED_FACE('',(#73,#15),#1296,.F.);
#1364=ADVANCED_FACE('',(#74),#1297,.T.);
#1365=ADVANCED_FACE('',(#75),#1298,.T.);
#1366=ADVANCED_FACE('',(#76),#1299,.T.);
#1367=ADVANCED_FACE('',(#77),#1300,.T.);
#1368=ADVANCED_FACE('',(#78),#1301,.T.);
#1369=ADVANCED_FACE('',(#79),#1302,.T.);
#1370=ADVANCED_FACE('',(#80),#1303,.T.);
#1371=ADVANCED_FACE('',(#81),#1304,.T.);
#1372=ADVANCED_FACE('',(#82),#1305,.F.);
#1373=CLOSED_SHELL('',(#1306,#1307,#1308,#1309,#1310,#1311,#1312,#1313,
#1314,#1315,#1316,#1317,#1318,#1319,#1320,#1321,#1322,#1323,#1324,#1325,
#1326,#1327,#1328,#1329,#1330,#1331,#1332,#1333,#1334,#1335,#1336,#1337,
#1338,#1339,#1340,#1341,#1342,#1343,#1344,#1345,#1346,#1347,#1348,#1349,
#1350,#1351,#1352,#1353,#1354,#1355,#1356,#1357,#1358,#1359,#1360,#1361,
#1362,#1363,#1364,#1365,#1366,#1367,#1368,#1369,#1370,#1371,#1372));
#1374=DERIVED_UNIT_ELEMENT(#1376,1.);
#1375=DERIVED_UNIT_ELEMENT(#2175,-3.);
#1376=(
MASS_UNIT()
NAMED_UNIT(*)
SI_UNIT(.KILO.,.GRAM.)
);
#1377=DERIVED_UNIT((#1374,#1375));
#1378=MEASURE_REPRESENTATION_ITEM('density measure',
POSITIVE_RATIO_MEASURE(7850.),#1377);
#1379=PROPERTY_DEFINITION_REPRESENTATION(#1384,#1381);
#1380=PROPERTY_DEFINITION_REPRESENTATION(#1385,#1382);
#1381=REPRESENTATION('material name',(#1383),#2172);
#1382=REPRESENTATION('density',(#1378),#2172);
#1383=DESCRIPTIVE_REPRESENTATION_ITEM('Steel','Steel');
#1384=PROPERTY_DEFINITION('material property','material name',#2182);
#1385=PROPERTY_DEFINITION('material property','density of part',#2182);
#1386=AXIS2_PLACEMENT_3D('',#1782,#1454,#1455);
#1387=AXIS2_PLACEMENT_3D('',#1783,#1456,#1457);
#1388=AXIS2_PLACEMENT_3D('',#1792,#1462,#1463);
#1389=AXIS2_PLACEMENT_3D('',#1798,#1467,#1468);
#1390=AXIS2_PLACEMENT_3D('',#1804,#1472,#1473);
#1391=AXIS2_PLACEMENT_3D('',#1810,#1477,#1478);
#1392=AXIS2_PLACEMENT_3D('',#1816,#1482,#1483);
#1393=AXIS2_PLACEMENT_3D('',#1825,#1488,#1489);
#1394=AXIS2_PLACEMENT_3D('',#1831,#1493,#1494);
#1395=AXIS2_PLACEMENT_3D('',#1837,#1498,#1499);
#1396=AXIS2_PLACEMENT_3D('',#1843,#1503,#1504);
#1397=AXIS2_PLACEMENT_3D('',#1849,#1508,#1509);
#1398=AXIS2_PLACEMENT_3D('',#1858,#1514,#1515);
#1399=AXIS2_PLACEMENT_3D('',#1864,#1519,#1520);
#1400=AXIS2_PLACEMENT_3D('',#1870,#1524,#1525);
#1401=AXIS2_PLACEMENT_3D('',#1876,#1529,#1530);
#1402=AXIS2_PLACEMENT_3D('',#1882,#1534,#1535);
#1403=AXIS2_PLACEMENT_3D('',#1891,#1540,#1541);
#1404=AXIS2_PLACEMENT_3D('',#1897,#1545,#1546);
#1405=AXIS2_PLACEMENT_3D('',#1903,#1550,#1551);
#1406=AXIS2_PLACEMENT_3D('',#1909,#1555,#1556);
#1407=AXIS2_PLACEMENT_3D('',#1915,#1560,#1561);
#1408=AXIS2_PLACEMENT_3D('',#1921,#1565,#1566);
#1409=AXIS2_PLACEMENT_3D('',#1927,#1570,#1571);
#1410=AXIS2_PLACEMENT_3D('',#1933,#1575,#1576);
#1411=AXIS2_PLACEMENT_3D('',#1939,#1580,#1581);
#1412=AXIS2_PLACEMENT_3D('',#1948,#1586,#1587);
#1413=AXIS2_PLACEMENT_3D('',#1954,#1591,#1592);
#1414=AXIS2_PLACEMENT_3D('',#1957,#1595,#1596);
#1415=AXIS2_PLACEMENT_3D('',#1963,#1600,#1601);
#1416=AXIS2_PLACEMENT_3D('',#1972,#1606,#1607);
#1417=AXIS2_PLACEMENT_3D('',#1978,#1611,#1612);
#1418=AXIS2_PLACEMENT_3D('',#1981,#1615,#1616);
#1419=AXIS2_PLACEMENT_3D('',#1987,#1620,#1621);
#1420=AXIS2_PLACEMENT_3D('',#1996,#1626,#1627);
#1421=AXIS2_PLACEMENT_3D('',#2002,#1631,#1632);
#1422=AXIS2_PLACEMENT_3D('',#2005,#1635,#1636);
#1423=AXIS2_PLACEMENT_3D('',#2011,#1640,#1641);
#1424=AXIS2_PLACEMENT_3D('',#2017,#1645,#1646);
#1425=AXIS2_PLACEMENT_3D('',#2023,#1650,#1651);
#1426=AXIS2_PLACEMENT_3D('',#2029,#1655,#1656);
#1427=AXIS2_PLACEMENT_3D('',#2035,#1660,#1661);
#1428=AXIS2_PLACEMENT_3D('',#2041,#1665,#1666);
#1429=AXIS2_PLACEMENT_3D('',#2047,#1670,#1671);
#1430=AXIS2_PLACEMENT_3D('',#2053,#1675,#1676);
#1431=AXIS2_PLACEMENT_3D('',#2059,#1680,#1681);
#1432=AXIS2_PLACEMENT_3D('',#2065,#1685,#1686);
#1433=AXIS2_PLACEMENT_3D('',#2071,#1690,#1691);
#1434=AXIS2_PLACEMENT_3D('',#2074,#1694,#1695);
#1435=AXIS2_PLACEMENT_3D('',#2080,#1699,#1700);
#1436=AXIS2_PLACEMENT_3D('',#2086,#1704,#1705);
#1437=AXIS2_PLACEMENT_3D('',#2095,#1710,#1711);
#1438=AXIS2_PLACEMENT_3D('',#2098,#1714,#1715);
#1439=AXIS2_PLACEMENT_3D('',#2104,#1719,#1720);
#1440=AXIS2_PLACEMENT_3D('',#2110,#1724,#1725);
#1441=AXIS2_PLACEMENT_3D('',#2113,#1728,#1729);
#1442=AXIS2_PLACEMENT_3D('',#2119,#1733,#1734);
#1443=AXIS2_PLACEMENT_3D('',#2125,#1738,#1739);
#1444=AXIS2_PLACEMENT_3D('',#2128,#1742,#1743);
#1445=AXIS2_PLACEMENT_3D('',#2145,#1752,#1753);
#1446=AXIS2_PLACEMENT_3D('',#2148,#1756,#1757);
#1447=AXIS2_PLACEMENT_3D('',#2150,#1759,#1760);
#1448=AXIS2_PLACEMENT_3D('',#2152,#1762,#1763);
#1449=AXIS2_PLACEMENT_3D('',#2153,#1764,#1765);
#1450=AXIS2_PLACEMENT_3D('',#2159,#1769,#1770);
#1451=AXIS2_PLACEMENT_3D('',#2163,#1773,#1774);
#1452=AXIS2_PLACEMENT_3D('',#2167,#1777,#1778);
#1453=AXIS2_PLACEMENT_3D('',#2169,#1780,#1781);
#1454=DIRECTION('axis',(0.,0.,1.));
#1455=DIRECTION('refdir',(1.,0.,0.));
#1456=DIRECTION('center_axis',(1.,0.,0.));
#1457=DIRECTION('ref_axis',(0.,-1.,0.));
#1458=DIRECTION('',(0.,-1.,0.));
#1459=DIRECTION('',(0.,0.,1.));
#1460=DIRECTION('',(0.,-1.,0.));
#1461=DIRECTION('',(0.,0.,-1.));
#1462=DIRECTION('center_axis',(0.,1.,0.));
#1463=DIRECTION('ref_axis',(1.,0.,0.));
#1464=DIRECTION('',(1.,0.,0.));
#1465=DIRECTION('',(1.,0.,0.));
#1466=DIRECTION('',(0.,0.,-1.));
#1467=DIRECTION('center_axis',(-1.,0.,0.));
#1468=DIRECTION('ref_axis',(0.,1.,0.));
#1469=DIRECTION('',(0.,1.,0.));
#1470=DIRECTION('',(0.,1.,0.));
#1471=DIRECTION('',(0.,0.,-1.));
#1472=DIRECTION('center_axis',(0.,1.,0.));
#1473=DIRECTION('ref_axis',(0.,0.,1.));
#1474=DIRECTION('',(-1.,0.,5.55111512312578E-17));
#1475=DIRECTION('',(0.,0.,1.));
#1476=DIRECTION('',(1.,0.,-1.11022302462516E-16));
#1477=DIRECTION('center_axis',(0.,1.,0.));
#1478=DIRECTION('ref_axis',(0.,0.,1.));
#1479=DIRECTION('',(1.,0.,-1.11022302462516E-16));
#1480=DIRECTION('',(0.,0.,-1.));
#1481=DIRECTION('',(-1.,0.,5.55111512312578E-17));
#1482=DIRECTION('center_axis',(1.,0.,0.));
#1483=DIRECTION('ref_axis',(0.,-1.,0.));
#1484=DIRECTION('',(0.,-1.,0.));
#1485=DIRECTION('',(0.,0.,1.));
#1486=DIRECTION('',(0.,-1.,0.));
#1487=DIRECTION('',(0.,0.,-1.));
#1488=DIRECTION('center_axis',(0.,1.,0.));
#1489=DIRECTION('ref_axis',(1.,0.,0.));
#1490=DIRECTION('',(1.,0.,0.));
#1491=DIRECTION('',(1.,0.,0.));
#1492=DIRECTION('',(0.,0.,-1.));
#1493=DIRECTION('center_axis',(-1.,0.,0.));
#1494=DIRECTION('ref_axis',(0.,1.,0.));
#1495=DIRECTION('',(0.,1.,0.));
#1496=DIRECTION('',(0.,1.,0.));
#1497=DIRECTION('',(0.,0.,-1.));
#1498=DIRECTION('center_axis',(0.,1.,0.));
#1499=DIRECTION('ref_axis',(0.,0.,1.));
#1500=DIRECTION('',(-1.,0.,5.55111512312578E-17));
#1501=DIRECTION('',(0.,0.,1.));
#1502=DIRECTION('',(1.,0.,-1.11022302462516E-16));
#1503=DIRECTION('center_axis',(0.,1.,0.));
#1504=DIRECTION('ref_axis',(0.,0.,1.));
#1505=DIRECTION('',(1.,0.,-1.11022302462516E-16));
#1506=DIRECTION('',(0.,0.,-1.));
#1507=DIRECTION('',(-1.,0.,5.55111512312578E-17));
#1508=DIRECTION('center_axis',(1.,0.,0.));
#1509=DIRECTION('ref_axis',(0.,-1.,0.));
#1510=DIRECTION('',(0.,-1.,0.));
#1511=DIRECTION('',(0.,0.,1.));
#1512=DIRECTION('',(0.,-1.,0.));
#1513=DIRECTION('',(0.,0.,-1.));
#1514=DIRECTION('center_axis',(0.,1.,0.));
#1515=DIRECTION('ref_axis',(1.,0.,0.));
#1516=DIRECTION('',(1.,0.,0.));
#1517=DIRECTION('',(1.,0.,0.));
#1518=DIRECTION('',(0.,0.,-1.));
#1519=DIRECTION('center_axis',(-1.,0.,0.));
#1520=DIRECTION('ref_axis',(0.,1.,0.));
#1521=DIRECTION('',(0.,1.,0.));
#1522=DIRECTION('',(0.,1.,0.));
#1523=DIRECTION('',(0.,0.,-1.));
#1524=DIRECTION('center_axis',(0.,1.,0.));
#1525=DIRECTION('ref_axis',(0.,0.,1.));
#1526=DIRECTION('',(-1.,0.,5.55111512312578E-17));
#1527=DIRECTION('',(0.,0.,1.));
#1528=DIRECTION('',(1.,0.,-1.11022302462516E-16));
#1529=DIRECTION('center_axis',(0.,1.,0.));
#1530=DIRECTION('ref_axis',(0.,0.,1.));
#1531=DIRECTION('',(1.,0.,-1.11022302462516E-16));
#1532=DIRECTION('',(0.,0.,-1.));
#1533=DIRECTION('',(-1.,0.,5.55111512312578E-17));
#1534=DIRECTION('center_axis',(1.,0.,0.));
#1535=DIRECTION('ref_axis',(0.,-1.,0.));
#1536=DIRECTION('',(0.,-1.,0.));
#1537=DIRECTION('',(0.,0.,1.));
#1538=DIRECTION('',(0.,-1.,0.));
#1539=DIRECTION('',(0.,0.,-1.));
#1540=DIRECTION('center_axis',(0.,1.,0.));
#1541=DIRECTION('ref_axis',(1.,0.,0.));
#1542=DIRECTION('',(1.,0.,0.));
#1543=DIRECTION('',(1.,0.,0.));
#1544=DIRECTION('',(0.,0.,-1.));
#1545=DIRECTION('center_axis',(-1.,0.,0.));
#1546=DIRECTION('ref_axis',(0.,1.,0.));
#1547=DIRECTION('',(0.,1.,0.));
#1548=DIRECTION('',(0.,1.,0.));
#1549=DIRECTION('',(0.,0.,-1.));
#1550=DIRECTION('center_axis',(0.,1.,0.));
#1551=DIRECTION('ref_axis',(0.,0.,1.));
#1552=DIRECTION('',(-1.,0.,5.55111512312578E-17));
#1553=DIRECTION('',(0.,0.,1.));
#1554=DIRECTION('',(1.,0.,-1.11022302462516E-16));
#1555=DIRECTION('center_axis',(0.,1.,0.));
#1556=DIRECTION('ref_axis',(0.,0.,1.));
#1557=DIRECTION('',(1.,0.,-1.11022302462516E-16));
#1558=DIRECTION('',(0.,0.,-1.));
#1559=DIRECTION('',(-1.,0.,5.55111512312578E-17));
#1560=DIRECTION('center_axis',(1.,0.,0.));
#1561=DIRECTION('ref_axis',(0.,-1.,0.));
#1562=DIRECTION('',(0.,-1.,0.));
#1563=DIRECTION('',(0.,-1.,0.));
#1564=DIRECTION('',(0.,0.,-1.));
#1565=DIRECTION('center_axis',(0.,1.,0.));
#1566=DIRECTION('ref_axis',(1.,0.,0.));
#1567=DIRECTION('',(1.,0.,0.));
#1568=DIRECTION('',(1.,0.,0.));
#1569=DIRECTION('',(0.,0.,-1.));
#1570=DIRECTION('center_axis',(-1.,0.,0.));
#1571=DIRECTION('ref_axis',(0.,1.,0.));
#1572=DIRECTION('',(0.,1.,0.));
#1573=DIRECTION('',(0.,1.,0.));
#1574=DIRECTION('',(0.,0.,-1.));
#1575=DIRECTION('center_axis',(0.,1.,0.));
#1576=DIRECTION('ref_axis',(0.,0.,1.));
#1577=DIRECTION('',(-1.,0.,5.55111512312578E-17));
#1578=DIRECTION('',(0.,0.,1.));
#1579=DIRECTION('',(1.,0.,-1.11022302462516E-16));
#1580=DIRECTION('center_axis',(1.,0.,0.));
#1581=DIRECTION('ref_axis',(0.,-1.,0.));
#1582=DIRECTION('',(0.,-1.,0.));
#1583=DIRECTION('',(0.,0.,1.));
#1584=DIRECTION('',(0.,-1.,0.));
#1585=DIRECTION('',(0.,0.,-1.));
#1586=DIRECTION('center_axis',(0.,1.,0.));
#1587=DIRECTION('ref_axis',(1.,0.,0.));
#1588=DIRECTION('',(1.,0.,0.));
#1589=DIRECTION('',(1.,0.,0.));
#1590=DIRECTION('',(0.,0.,-1.));
#1591=DIRECTION('center_axis',(-1.,0.,0.));
#1592=DIRECTION('ref_axis',(0.,1.,0.));
#1593=DIRECTION('',(0.,1.,0.));
#1594=DIRECTION('',(0.,1.,0.));
#1595=DIRECTION('center_axis',(0.,1.,0.));
#1596=DIRECTION('ref_axis',(0.,0.,1.));
#1597=DIRECTION('',(1.,0.,-1.11022302462516E-16));
#1598=DIRECTION('',(0.,0.,-1.));
#1599=DIRECTION('',(-1.,0.,5.55111512312578E-17));
#1600=DIRECTION('center_axis',(1.,0.,0.));
#1601=DIRECTION('ref_axis',(0.,-1.,0.));
#1602=DIRECTION('',(0.,-1.,0.));
#1603=DIRECTION('',(0.,0.,1.));
#1604=DIRECTION('',(0.,-1.,0.));
#1605=DIRECTION('',(0.,0.,-1.));
#1606=DIRECTION('center_axis',(0.,1.,0.));
#1607=DIRECTION('ref_axis',(1.,0.,0.));
#1608=DIRECTION('',(1.,0.,0.));
#1609=DIRECTION('',(1.,0.,0.));
#1610=DIRECTION('',(0.,0.,-1.));
#1611=DIRECTION('center_axis',(-1.,0.,0.));
#1612=DIRECTION('ref_axis',(0.,1.,0.));
#1613=DIRECTION('',(0.,1.,0.));
#1614=DIRECTION('',(0.,1.,0.));
#1615=DIRECTION('center_axis',(0.,1.,0.));
#1616=DIRECTION('ref_axis',(0.,0.,1.));
#1617=DIRECTION('',(1.,0.,-1.11022302462516E-16));
#1618=DIRECTION('',(0.,0.,-1.));
#1619=DIRECTION('',(-1.,0.,5.55111512312578E-17));
#1620=DIRECTION('center_axis',(1.,0.,0.));
#1621=DIRECTION('ref_axis',(0.,-1.,0.));
#1622=DIRECTION('',(0.,-1.,0.));
#1623=DIRECTION('',(0.,0.,1.));
#1624=DIRECTION('',(0.,-1.,0.));
#1625=DIRECTION('',(0.,0.,-1.));
#1626=DIRECTION('center_axis',(0.,1.,0.));
#1627=DIRECTION('ref_axis',(1.,0.,0.));
#1628=DIRECTION('',(1.,0.,0.));
#1629=DIRECTION('',(1.,0.,0.));
#1630=DIRECTION('',(0.,0.,-1.));
#1631=DIRECTION('center_axis',(-1.,0.,0.));
#1632=DIRECTION('ref_axis',(0.,1.,0.));
#1633=DIRECTION('',(0.,1.,0.));
#1634=DIRECTION('',(0.,1.,0.));
#1635=DIRECTION('center_axis',(0.,1.,0.));
#1636=DIRECTION('ref_axis',(0.,0.,1.));
#1637=DIRECTION('',(1.,0.,-1.11022302462516E-16));
#1638=DIRECTION('',(0.,0.,-1.));
#1639=DIRECTION('',(-1.,0.,5.55111512312578E-17));
#1640=DIRECTION('center_axis',(1.,0.,0.));
#1641=DIRECTION('ref_axis',(0.,-1.,0.));
#1642=DIRECTION('',(0.,-1.,0.));
#1643=DIRECTION('',(0.,-1.,0.));
#1644=DIRECTION('',(0.,0.,-1.));
#1645=DIRECTION('center_axis',(0.,1.,0.));
#1646=DIRECTION('ref_axis',(1.,0.,0.));
#1647=DIRECTION('',(1.,0.,0.));
#1648=DIRECTION('',(1.,0.,0.));
#1649=DIRECTION('',(0.,0.,-1.));
#1650=DIRECTION('center_axis',(-1.,0.,0.));
#1651=DIRECTION('ref_axis',(0.,1.,0.));
#1652=DIRECTION('',(0.,1.,0.));
#1653=DIRECTION('',(0.,1.,0.));
#1654=DIRECTION('',(0.,0.,-1.));
#1655=DIRECTION('center_axis',(0.,1.,0.));
#1656=DIRECTION('ref_axis',(0.,0.,1.));
#1657=DIRECTION('',(-1.,0.,5.55111512312578E-17));
#1658=DIRECTION('',(0.,0.,1.));
#1659=DIRECTION('',(1.,0.,-1.11022302462516E-16));
#1660=DIRECTION('center_axis',(1.,0.,0.));
#1661=DIRECTION('ref_axis',(0.,-1.,0.));
#1662=DIRECTION('',(0.,-1.,0.));
#1663=DIRECTION('',(0.,-1.,0.));
#1664=DIRECTION('',(0.,0.,-1.));
#1665=DIRECTION('center_axis',(0.,1.,0.));
#1666=DIRECTION('ref_axis',(1.,0.,0.));
#1667=DIRECTION('',(1.,0.,0.));
#1668=DIRECTION('',(1.,0.,0.));
#1669=DIRECTION('',(0.,0.,-1.));
#1670=DIRECTION('center_axis',(-1.,0.,0.));
#1671=DIRECTION('ref_axis',(0.,1.,0.));
#1672=DIRECTION('',(0.,1.,0.));
#1673=DIRECTION('',(0.,1.,0.));
#1674=DIRECTION('',(0.,0.,-1.));
#1675=DIRECTION('center_axis',(0.,1.,0.));
#1676=DIRECTION('ref_axis',(0.,0.,1.));
#1677=DIRECTION('',(-1.,0.,5.55111512312578E-17));
#1678=DIRECTION('',(0.,0.,1.));
#1679=DIRECTION('',(1.,0.,-1.11022302462516E-16));
#1680=DIRECTION('center_axis',(1.,0.,0.));
#1681=DIRECTION('ref_axis',(0.,-1.,0.));
#1682=DIRECTION('',(0.,-1.,0.));
#1683=DIRECTION('',(0.,-1.,0.));
#1684=DIRECTION('',(0.,0.,-1.));
#1685=DIRECTION('center_axis',(0.,1.,0.));
#1686=DIRECTION('ref_axis',(1.,0.,0.));
#1687=DIRECTION('',(1.,0.,0.));
#1688=DIRECTION('',(1.,0.,0.));
#1689=DIRECTION('',(0.,0.,-1.));
#1690=DIRECTION('center_axis',(-1.,0.,0.));
#1691=DIRECTION('ref_axis',(0.,1.,0.));
#1692=DIRECTION('',(0.,1.,0.));
#1693=DIRECTION('',(0.,1.,0.));
#1694=DIRECTION('center_axis',(1.,0.,0.));
#1695=DIRECTION('ref_axis',(0.,-1.,0.));
#1696=DIRECTION('',(0.,-1.,0.));
#1697=DIRECTION('',(0.,-1.,0.));
#1698=DIRECTION('',(0.,0.,-1.));
#1699=DIRECTION('center_axis',(0.,1.,0.));
#1700=DIRECTION('ref_axis',(1.,0.,0.));
#1701=DIRECTION('',(1.,0.,0.));
#1702=DIRECTION('',(1.,0.,0.));
#1703=DIRECTION('',(0.,0.,-1.));
#1704=DIRECTION('center_axis',(0.,1.,0.));
#1705=DIRECTION('ref_axis',(1.,0.,0.));
#1706=DIRECTION('',(1.,0.,0.));
#1707=DIRECTION('',(0.,0.,-1.));
#1708=DIRECTION('',(1.,0.,0.));
#1709=DIRECTION('',(0.,0.,-1.));
#1710=DIRECTION('center_axis',(-1.,0.,0.));
#1711=DIRECTION('ref_axis',(0.,1.,0.));
#1712=DIRECTION('',(0.,1.,0.));
#1713=DIRECTION('',(0.,1.,0.));
#1714=DIRECTION('center_axis',(1.,0.,0.));
#1715=DIRECTION('ref_axis',(0.,-1.,0.));
#1716=DIRECTION('',(0.,-1.,0.));
#1717=DIRECTION('',(0.,-1.,0.));
#1718=DIRECTION('',(0.,0.,-1.));
#1719=DIRECTION('center_axis',(0.,1.,0.));
#1720=DIRECTION('ref_axis',(1.,0.,0.));
#1721=DIRECTION('',(1.,0.,0.));
#1722=DIRECTION('',(1.,0.,0.));
#1723=DIRECTION('',(0.,0.,-1.));
#1724=DIRECTION('center_axis',(-1.,0.,0.));
#1725=DIRECTION('ref_axis',(0.,1.,0.));
#1726=DIRECTION('',(0.,1.,0.));
#1727=DIRECTION('',(0.,1.,0.));
#1728=DIRECTION('center_axis',(1.,0.,0.));
#1729=DIRECTION('ref_axis',(0.,-1.,0.));
#1730=DIRECTION('',(0.,-1.,0.));
#1731=DIRECTION('',(0.,-1.,0.));
#1732=DIRECTION('',(0.,0.,-1.));
#1733=DIRECTION('center_axis',(0.,1.,0.));
#1734=DIRECTION('ref_axis',(1.,0.,0.));
#1735=DIRECTION('',(1.,0.,0.));
#1736=DIRECTION('',(1.,0.,0.));
#1737=DIRECTION('',(0.,0.,-1.));
#1738=DIRECTION('center_axis',(-1.,0.,0.));
#1739=DIRECTION('ref_axis',(0.,1.,0.));
#1740=DIRECTION('',(0.,1.,0.));
#1741=DIRECTION('',(0.,1.,0.));
#1742=DIRECTION('center_axis',(0.,1.,0.));
#1743=DIRECTION('ref_axis',(-1.,0.,0.));
#1744=DIRECTION('',(-1.,0.,5.55111512312578E-17));
#1745=DIRECTION('',(0.,0.,-1.));
#1746=DIRECTION('',(1.,0.,-1.11022302462516E-16));
#1747=DIRECTION('',(8.32667268468867E-17,0.,1.));
#1748=DIRECTION('',(0.,0.,1.));
#1749=DIRECTION('',(1.,0.,0.));
#1750=DIRECTION('',(0.,0.,-1.));
#1751=DIRECTION('',(-1.,0.,0.));
#1752=DIRECTION('center_axis',(1.,0.,0.));
#1753=DIRECTION('ref_axis',(0.,0.,-1.));
#1754=DIRECTION('',(0.,1.,0.));
#1755=DIRECTION('',(0.,1.,0.));
#1756=DIRECTION('center_axis',(1.11022302462516E-16,0.,1.));
#1757=DIRECTION('ref_axis',(1.,0.,-1.11022302462516E-16));
#1758=DIRECTION('',(0.,1.,0.));
#1759=DIRECTION('center_axis',(-1.,0.,8.32667268468867E-17));
#1760=DIRECTION('ref_axis',(8.32667268468867E-17,0.,1.));
#1761=DIRECTION('',(0.,1.,0.));
#1762=DIRECTION('center_axis',(-5.55111512312578E-17,0.,-1.));
#1763=DIRECTION('ref_axis',(-1.,0.,5.55111512312578E-17));
#1764=DIRECTION('center_axis',(-1.,0.,0.));
#1765=DIRECTION('ref_axis',(0.,0.,1.));
#1766=DIRECTION('',(0.,0.,-1.));
#1767=DIRECTION('',(0.,1.,0.));
#1768=DIRECTION('',(0.,1.,0.));
#1769=DIRECTION('center_axis',(0.,0.,-1.));
#1770=DIRECTION('ref_axis',(-1.,0.,0.));
#1771=DIRECTION('',(1.,0.,0.));
#1772=DIRECTION('',(0.,1.,0.));
#1773=DIRECTION('center_axis',(1.,0.,0.));
#1774=DIRECTION('ref_axis',(0.,0.,-1.));
#1775=DIRECTION('',(0.,0.,1.));
#1776=DIRECTION('',(0.,1.,0.));
#1777=DIRECTION('center_axis',(0.,0.,1.));
#1778=DIRECTION('ref_axis',(1.,0.,0.));
#1779=DIRECTION('',(-1.,0.,0.));
#1780=DIRECTION('center_axis',(0.,1.,0.));
#1781=DIRECTION('ref_axis',(1.,0.,0.));
#1782=CARTESIAN_POINT('',(0.,0.,0.));
#1783=CARTESIAN_POINT('Origin',(4.99999991059303,33.9999996870756,32.5));
#1784=CARTESIAN_POINT('',(4.99999991059303,33.9999996870756,32.5));
#1785=CARTESIAN_POINT('',(4.99999991059303,13.9999996870756,32.5));
#1786=CARTESIAN_POINT('',(4.99999991059303,33.9999996870756,32.5));
#1787=CARTESIAN_POINT('',(4.99999991059303,13.9999996870756,-7.5));
#1788=CARTESIAN_POINT('',(4.99999991059303,14.,22.5));
#1789=CARTESIAN_POINT('',(4.99999991059303,33.9999996870756,-7.5));
#1790=CARTESIAN_POINT('',(4.99999991059303,33.9999996870756,-7.5));
#1791=CARTESIAN_POINT('',(4.99999991059303,33.9999996870756,32.5));
#1792=CARTESIAN_POINT('Origin',(3.50000016763806,33.9999996870756,32.5));
#1793=CARTESIAN_POINT('',(3.50000016763806,33.9999996870756,32.5));
#1794=CARTESIAN_POINT('',(3.50000016763806,33.9999996870756,32.5));
#1795=CARTESIAN_POINT('',(3.50000016763806,33.9999996870756,-7.5));
#1796=CARTESIAN_POINT('',(3.50000016763806,33.9999996870756,-7.5));
#1797=CARTESIAN_POINT('',(3.50000016763806,33.9999996870756,32.5));
#1798=CARTESIAN_POINT('Origin',(3.50000016763806,13.9999996870756,32.5));
#1799=CARTESIAN_POINT('',(3.50000016763806,13.9999996870756,32.5));
#1800=CARTESIAN_POINT('',(3.50000016763806,13.9999996870756,32.5));
#1801=CARTESIAN_POINT('',(3.50000016763806,13.9999996870756,-7.5));
#1802=CARTESIAN_POINT('',(3.50000016763806,13.9999996870756,-7.5));
#1803=CARTESIAN_POINT('',(3.50000016763806,14.,22.5));
#1804=CARTESIAN_POINT('Origin',(12.5,14.,12.5));
#1805=CARTESIAN_POINT('',(2.24999991059303,13.9999996870756,-7.5));
#1806=CARTESIAN_POINT('',(32.5,14.,-7.5));
#1807=CARTESIAN_POINT('',(2.24999991059303,13.9999996870756,32.5));
#1808=CARTESIAN_POINT('',(2.24999991059303,14.,22.5));
#1809=CARTESIAN_POINT('',(-7.5,14.,32.5));
#1810=CARTESIAN_POINT('Origin',(12.5,14.,12.5));
#1811=CARTESIAN_POINT('',(6.25000016763806,13.9999996870756,32.5));
#1812=CARTESIAN_POINT('',(-7.5,14.,32.5));
#1813=CARTESIAN_POINT('',(6.25000016763806,13.9999996870756,-7.5));
#1814=CARTESIAN_POINT('',(6.25000016763806,14.,22.5));
#1815=CARTESIAN_POINT('',(32.5,14.,-7.5));
#1816=CARTESIAN_POINT('Origin',(15.999999910593,33.9999996870756,32.5));
#1817=CARTESIAN_POINT('',(15.999999910593,33.9999996870756,32.5));
#1818=CARTESIAN_POINT('',(15.999999910593,13.9999996870756,32.5));
#1819=CARTESIAN_POINT('',(15.999999910593,33.9999996870756,32.5));
#1820=CARTESIAN_POINT('',(15.999999910593,13.9999996870756,-7.5));
#1821=CARTESIAN_POINT('',(15.999999910593,14.,22.5));
#1822=CARTESIAN_POINT('',(15.999999910593,33.9999996870756,-7.5));
#1823=CARTESIAN_POINT('',(15.999999910593,33.9999996870756,-7.5));
#1824=CARTESIAN_POINT('',(15.999999910593,33.9999996870756,32.5));
#1825=CARTESIAN_POINT('Origin',(14.5000001676381,33.9999996870756,32.5));
#1826=CARTESIAN_POINT('',(14.5000001676381,33.9999996870756,32.5));
#1827=CARTESIAN_POINT('',(14.5000001676381,33.9999996870756,32.5));
#1828=CARTESIAN_POINT('',(14.5000001676381,33.9999996870756,-7.5));
#1829=CARTESIAN_POINT('',(14.5000001676381,33.9999996870756,-7.5));
#1830=CARTESIAN_POINT('',(14.5000001676381,33.9999996870756,32.5));
#1831=CARTESIAN_POINT('Origin',(14.5000001676381,13.9999996870756,32.5));
#1832=CARTESIAN_POINT('',(14.5000001676381,13.9999996870756,32.5));
#1833=CARTESIAN_POINT('',(14.5000001676381,13.9999996870756,32.5));
#1834=CARTESIAN_POINT('',(14.5000001676381,13.9999996870756,-7.5));
#1835=CARTESIAN_POINT('',(14.5000001676381,13.9999996870756,-7.5));
#1836=CARTESIAN_POINT('',(14.5000001676381,14.,22.5));
#1837=CARTESIAN_POINT('Origin',(12.5,14.,12.5));
#1838=CARTESIAN_POINT('',(13.249999910593,13.9999996870756,-7.5));
#1839=CARTESIAN_POINT('',(32.5,14.,-7.5));
#1840=CARTESIAN_POINT('',(13.249999910593,13.9999996870756,32.5));
#1841=CARTESIAN_POINT('',(13.249999910593,14.,22.5));
#1842=CARTESIAN_POINT('',(-7.5,14.,32.5));
#1843=CARTESIAN_POINT('Origin',(12.5,14.,12.5));
#1844=CARTESIAN_POINT('',(17.2500001676381,13.9999996870756,32.5));
#1845=CARTESIAN_POINT('',(-7.5,14.,32.5));
#1846=CARTESIAN_POINT('',(17.2500001676381,13.9999996870756,-7.5));
#1847=CARTESIAN_POINT('',(17.2500001676381,14.,22.5));
#1848=CARTESIAN_POINT('',(32.5,14.,-7.5));
#1849=CARTESIAN_POINT('Origin',(26.999999910593,33.9999996870756,32.5));
#1850=CARTESIAN_POINT('',(26.999999910593,33.9999996870756,32.5));
#1851=CARTESIAN_POINT('',(26.999999910593,13.9999996870756,32.5));
#1852=CARTESIAN_POINT('',(26.999999910593,33.9999996870756,32.5));
#1853=CARTESIAN_POINT('',(26.999999910593,13.9999996870756,-7.5));
#1854=CARTESIAN_POINT('',(26.999999910593,14.,22.5));
#1855=CARTESIAN_POINT('',(26.999999910593,33.9999996870756,-7.5));
#1856=CARTESIAN_POINT('',(26.999999910593,33.9999996870756,-7.5));
#1857=CARTESIAN_POINT('',(26.999999910593,33.9999996870756,32.5));
#1858=CARTESIAN_POINT('Origin',(25.5000001676381,33.9999996870756,32.5));
#1859=CARTESIAN_POINT('',(25.5000001676381,33.9999996870756,32.5));
#1860=CARTESIAN_POINT('',(25.5000001676381,33.9999996870756,32.5));
#1861=CARTESIAN_POINT('',(25.5000001676381,33.9999996870756,-7.5));
#1862=CARTESIAN_POINT('',(25.5000001676381,33.9999996870756,-7.5));
#1863=CARTESIAN_POINT('',(25.5000001676381,33.9999996870756,32.5));
#1864=CARTESIAN_POINT('Origin',(25.5000001676381,13.9999996870756,32.5));
#1865=CARTESIAN_POINT('',(25.5000001676381,13.9999996870756,32.5));
#1866=CARTESIAN_POINT('',(25.5000001676381,13.9999996870756,32.5));
#1867=CARTESIAN_POINT('',(25.5000001676381,13.9999996870756,-7.5));
#1868=CARTESIAN_POINT('',(25.5000001676381,13.9999996870756,-7.5));
#1869=CARTESIAN_POINT('',(25.5000001676381,14.,22.5));
#1870=CARTESIAN_POINT('Origin',(12.5,14.,12.5));
#1871=CARTESIAN_POINT('',(24.249999910593,13.9999996870756,-7.5));
#1872=CARTESIAN_POINT('',(32.5,14.,-7.5));
#1873=CARTESIAN_POINT('',(24.249999910593,13.9999996870756,32.5));
#1874=CARTESIAN_POINT('',(24.249999910593,14.,22.5));
#1875=CARTESIAN_POINT('',(-7.5,14.,32.5));
#1876=CARTESIAN_POINT('Origin',(12.5,14.,12.5));
#1877=CARTESIAN_POINT('',(28.2500001676381,13.9999996870756,32.5));
#1878=CARTESIAN_POINT('',(-7.5,14.,32.5));
#1879=CARTESIAN_POINT('',(28.2500001676381,13.9999996870756,-7.5));
#1880=CARTESIAN_POINT('',(28.2500001676381,14.,22.5));
#1881=CARTESIAN_POINT('',(32.5,14.,-7.5));
#1882=CARTESIAN_POINT('Origin',(-0.500000089406967,33.9999996870756,32.5));
#1883=CARTESIAN_POINT('',(-0.500000089406967,33.9999996870756,32.5));
#1884=CARTESIAN_POINT('',(-0.500000089406967,13.9999996870756,32.5));
#1885=CARTESIAN_POINT('',(-0.500000089406967,33.9999996870756,32.5));
#1886=CARTESIAN_POINT('',(-0.500000089406967,13.9999996870756,-7.5));
#1887=CARTESIAN_POINT('',(-0.500000089406967,14.,22.5));
#1888=CARTESIAN_POINT('',(-0.500000089406967,33.9999996870756,-7.5));
#1889=CARTESIAN_POINT('',(-0.500000089406967,33.9999996870756,-7.5));
#1890=CARTESIAN_POINT('',(-0.500000089406967,33.9999996870756,32.5));
#1891=CARTESIAN_POINT('Origin',(-1.99999983236194,33.9999996870756,32.5));
#1892=CARTESIAN_POINT('',(-1.99999983236194,33.9999996870756,32.5));
#1893=CARTESIAN_POINT('',(-1.99999983236194,33.9999996870756,32.5));
#1894=CARTESIAN_POINT('',(-1.99999983236194,33.9999996870756,-7.5));
#1895=CARTESIAN_POINT('',(-1.99999983236194,33.9999996870756,-7.5));
#1896=CARTESIAN_POINT('',(-1.99999983236194,33.9999996870756,32.5));
#1897=CARTESIAN_POINT('Origin',(-1.99999983236194,13.9999996870756,32.5));
#1898=CARTESIAN_POINT('',(-1.99999983236194,13.9999996870756,32.5));
#1899=CARTESIAN_POINT('',(-1.99999983236194,13.9999996870756,32.5));
#1900=CARTESIAN_POINT('',(-1.99999983236194,13.9999996870756,-7.5));
#1901=CARTESIAN_POINT('',(-1.99999983236194,13.9999996870756,-7.5));
#1902=CARTESIAN_POINT('',(-1.99999983236194,14.,22.5));
#1903=CARTESIAN_POINT('Origin',(12.5,14.,12.5));
#1904=CARTESIAN_POINT('',(-3.25000008940697,13.9999996870756,-7.5));
#1905=CARTESIAN_POINT('',(32.5,14.,-7.5));
#1906=CARTESIAN_POINT('',(-3.25000008940697,13.9999996870756,32.5));
#1907=CARTESIAN_POINT('',(-3.25000008940697,14.,22.5));
#1908=CARTESIAN_POINT('',(-7.5,14.,32.5));
#1909=CARTESIAN_POINT('Origin',(12.5,14.,12.5));
#1910=CARTESIAN_POINT('',(0.750000167638064,13.9999996870756,32.5));
#1911=CARTESIAN_POINT('',(-7.5,14.,32.5));
#1912=CARTESIAN_POINT('',(0.750000167638064,13.9999996870756,-7.5));
#1913=CARTESIAN_POINT('',(0.750000167638065,14.,22.5));
#1914=CARTESIAN_POINT('',(32.5,14.,-7.5));
#1915=CARTESIAN_POINT('Origin',(-3.25000008940697,33.9999996870756,32.5));
#1916=CARTESIAN_POINT('',(-3.25000008940697,33.9999996870756,32.5));
#1917=CARTESIAN_POINT('',(-3.25000008940697,33.9999996870756,32.5));
#1918=CARTESIAN_POINT('',(-3.25000008940697,33.9999996870756,-7.5));
#1919=CARTESIAN_POINT('',(-3.25000008940697,33.9999996870756,-7.5));
#1920=CARTESIAN_POINT('',(-3.25000008940697,33.9999996870756,32.5));
#1921=CARTESIAN_POINT('Origin',(-4.74999983236194,33.9999996870756,32.5));
#1922=CARTESIAN_POINT('',(-4.74999983236194,33.9999996870756,32.5));
#1923=CARTESIAN_POINT('',(-4.74999983236194,33.9999996870756,32.5));
#1924=CARTESIAN_POINT('',(-4.74999983236194,33.9999996870756,-7.5));
#1925=CARTESIAN_POINT('',(-4.74999983236194,33.9999996870756,-7.5));
#1926=CARTESIAN_POINT('',(-4.74999983236194,33.9999996870756,32.5));
#1927=CARTESIAN_POINT('Origin',(-4.74999983236194,13.9999996870756,32.5));
#1928=CARTESIAN_POINT('',(-4.74999983236194,13.9999996870756,32.5));
#1929=CARTESIAN_POINT('',(-4.74999983236194,13.9999996870756,32.5));
#1930=CARTESIAN_POINT('',(-4.74999983236194,13.9999996870756,-7.5));
#1931=CARTESIAN_POINT('',(-4.74999983236194,13.9999996870756,-7.5));
#1932=CARTESIAN_POINT('',(-4.74999983236194,14.,22.5));
#1933=CARTESIAN_POINT('Origin',(12.5,14.,12.5));
#1934=CARTESIAN_POINT('',(-6.00000008940697,13.9999996870756,-7.5));
#1935=CARTESIAN_POINT('',(32.5,14.,-7.5));
#1936=CARTESIAN_POINT('',(-6.00000008940697,13.9999996870756,32.5));
#1937=CARTESIAN_POINT('',(-6.00000008940697,14.,22.5));
#1938=CARTESIAN_POINT('',(-7.5,14.,32.5));
#1939=CARTESIAN_POINT('Origin',(29.749999910593,33.9999996870756,32.5));
#1940=CARTESIAN_POINT('',(29.749999910593,33.9999996870756,32.5));
#1941=CARTESIAN_POINT('',(29.749999910593,13.9999996870756,32.5));
#1942=CARTESIAN_POINT('',(29.749999910593,33.9999996870756,32.5));
#1943=CARTESIAN_POINT('',(29.749999910593,13.9999996870756,-7.5));
#1944=CARTESIAN_POINT('',(29.749999910593,14.,22.5));
#1945=CARTESIAN_POINT('',(29.749999910593,33.9999996870756,-7.5));
#1946=CARTESIAN_POINT('',(29.749999910593,33.9999996870756,-7.5));
#1947=CARTESIAN_POINT('',(29.749999910593,33.9999996870756,32.5));
#1948=CARTESIAN_POINT('Origin',(28.2500001676381,33.9999996870756,32.5));
#1949=CARTESIAN_POINT('',(28.2500001676381,33.9999996870756,32.5));
#1950=CARTESIAN_POINT('',(28.2500001676381,33.9999996870756,32.5));
#1951=CARTESIAN_POINT('',(28.2500001676381,33.9999996870756,-7.5));
#1952=CARTESIAN_POINT('',(28.2500001676381,33.9999996870756,-7.5));
#1953=CARTESIAN_POINT('',(28.2500001676381,33.9999996870756,32.5));
#1954=CARTESIAN_POINT('Origin',(28.2500001676381,13.9999996870756,32.5));
#1955=CARTESIAN_POINT('',(28.2500001676381,13.9999996870756,32.5));
#1956=CARTESIAN_POINT('',(28.2500001676381,13.9999996870756,-7.5));
#1957=CARTESIAN_POINT('Origin',(12.5,14.,12.5));
#1958=CARTESIAN_POINT('',(31.0000001676381,13.9999996870756,32.5));
#1959=CARTESIAN_POINT('',(-7.5,14.,32.5));
#1960=CARTESIAN_POINT('',(31.0000001676381,13.9999996870756,-7.5));
#1961=CARTESIAN_POINT('',(31.0000001676381,14.,22.5));
#1962=CARTESIAN_POINT('',(32.5,14.,-7.5));
#1963=CARTESIAN_POINT('Origin',(18.749999910593,33.9999996870756,32.5));
#1964=CARTESIAN_POINT('',(18.749999910593,33.9999996870756,32.5));
#1965=CARTESIAN_POINT('',(18.749999910593,13.9999996870756,32.5));
#1966=CARTESIAN_POINT('',(18.749999910593,33.9999996870756,32.5));
#1967=CARTESIAN_POINT('',(18.749999910593,13.9999996870756,-7.5));
#1968=CARTESIAN_POINT('',(18.749999910593,14.,22.5));
#1969=CARTESIAN_POINT('',(18.749999910593,33.9999996870756,-7.5));
#1970=CARTESIAN_POINT('',(18.749999910593,33.9999996870756,-7.5));
#1971=CARTESIAN_POINT('',(18.749999910593,33.9999996870756,32.5));
#1972=CARTESIAN_POINT('Origin',(17.2500001676381,33.9999996870756,32.5));
#1973=CARTESIAN_POINT('',(17.2500001676381,33.9999996870756,32.5));
#1974=CARTESIAN_POINT('',(17.2500001676381,33.9999996870756,32.5));
#1975=CARTESIAN_POINT('',(17.2500001676381,33.9999996870756,-7.5));
#1976=CARTESIAN_POINT('',(17.2500001676381,33.9999996870756,-7.5));
#1977=CARTESIAN_POINT('',(17.2500001676381,33.9999996870756,32.5));
#1978=CARTESIAN_POINT('Origin',(17.2500001676381,13.9999996870756,32.5));
#1979=CARTESIAN_POINT('',(17.2500001676381,13.9999996870756,32.5));
#1980=CARTESIAN_POINT('',(17.2500001676381,13.9999996870756,-7.5));
#1981=CARTESIAN_POINT('Origin',(12.5,14.,12.5));
#1982=CARTESIAN_POINT('',(20.0000001676381,13.9999996870756,32.5));
#1983=CARTESIAN_POINT('',(-7.5,14.,32.5));
#1984=CARTESIAN_POINT('',(20.0000001676381,13.9999996870756,-7.5));
#1985=CARTESIAN_POINT('',(20.0000001676381,14.,22.5));
#1986=CARTESIAN_POINT('',(32.5,14.,-7.5));
#1987=CARTESIAN_POINT('Origin',(7.74999991059303,33.9999996870756,32.5));
#1988=CARTESIAN_POINT('',(7.74999991059303,33.9999996870756,32.5));
#1989=CARTESIAN_POINT('',(7.74999991059303,13.9999996870756,32.5));
#1990=CARTESIAN_POINT('',(7.74999991059303,33.9999996870756,32.5));
#1991=CARTESIAN_POINT('',(7.74999991059303,13.9999996870756,-7.5));
#1992=CARTESIAN_POINT('',(7.74999991059303,14.,22.5));
#1993=CARTESIAN_POINT('',(7.74999991059303,33.9999996870756,-7.5));
#1994=CARTESIAN_POINT('',(7.74999991059303,33.9999996870756,-7.5));
#1995=CARTESIAN_POINT('',(7.74999991059303,33.9999996870756,32.5));
#1996=CARTESIAN_POINT('Origin',(6.25000016763806,33.9999996870756,32.5));
#1997=CARTESIAN_POINT('',(6.25000016763806,33.9999996870756,32.5));
#1998=CARTESIAN_POINT('',(6.25000016763806,33.9999996870756,32.5));
#1999=CARTESIAN_POINT('',(6.25000016763806,33.9999996870756,-7.5));
#2000=CARTESIAN_POINT('',(6.25000016763806,33.9999996870756,-7.5));
#2001=CARTESIAN_POINT('',(6.25000016763806,33.9999996870756,32.5));
#2002=CARTESIAN_POINT('Origin',(6.25000016763806,13.9999996870756,32.5));
#2003=CARTESIAN_POINT('',(6.25000016763806,13.9999996870756,32.5));
#2004=CARTESIAN_POINT('',(6.25000016763806,13.9999996870756,-7.5));
#2005=CARTESIAN_POINT('Origin',(12.5,14.,12.5));
#2006=CARTESIAN_POINT('',(9.00000016763807,13.9999996870756,32.5));
#2007=CARTESIAN_POINT('',(-7.5,14.,32.5));
#2008=CARTESIAN_POINT('',(9.00000016763807,13.9999996870756,-7.5));
#2009=CARTESIAN_POINT('',(9.00000016763807,14.,22.5));
#2010=CARTESIAN_POINT('',(32.5,14.,-7.5));
#2011=CARTESIAN_POINT('Origin',(13.249999910593,33.9999996870756,32.5));
#2012=CARTESIAN_POINT('',(13.249999910593,33.9999996870756,32.5));
#2013=CARTESIAN_POINT('',(13.249999910593,33.9999996870756,32.5));
#2014=CARTESIAN_POINT('',(13.249999910593,33.9999996870756,-7.5));
#2015=CARTESIAN_POINT('',(13.249999910593,33.9999996870756,-7.5));
#2016=CARTESIAN_POINT('',(13.249999910593,33.9999996870756,32.5));
#2017=CARTESIAN_POINT('Origin',(11.7500001676381,33.9999996870756,32.5));
#2018=CARTESIAN_POINT('',(11.7500001676381,33.9999996870756,32.5));
#2019=CARTESIAN_POINT('',(11.7500001676381,33.9999996870756,32.5));
#2020=CARTESIAN_POINT('',(11.7500001676381,33.9999996870756,-7.5));
#2021=CARTESIAN_POINT('',(11.7500001676381,33.9999996870756,-7.5));
#2022=CARTESIAN_POINT('',(11.7500001676381,33.9999996870756,32.5));
#2023=CARTESIAN_POINT('Origin',(11.7500001676381,13.9999996870756,32.5));
#2024=CARTESIAN_POINT('',(11.7500001676381,13.9999996870756,32.5));
#2025=CARTESIAN_POINT('',(11.7500001676381,13.9999996870756,32.5));
#2026=CARTESIAN_POINT('',(11.7500001676381,13.9999996870756,-7.5));
#2027=CARTESIAN_POINT('',(11.7500001676381,13.9999996870756,-7.5));
#2028=CARTESIAN_POINT('',(11.7500001676381,14.,22.5));
#2029=CARTESIAN_POINT('Origin',(12.5,14.,12.5));
#2030=CARTESIAN_POINT('',(10.499999910593,13.9999996870756,-7.5));
#2031=CARTESIAN_POINT('',(32.5,14.,-7.5));
#2032=CARTESIAN_POINT('',(10.499999910593,13.9999996870756,32.5));
#2033=CARTESIAN_POINT('',(10.499999910593,14.,22.5));
#2034=CARTESIAN_POINT('',(-7.5,14.,32.5));
#2035=CARTESIAN_POINT('Origin',(24.249999910593,33.9999996870756,32.5));
#2036=CARTESIAN_POINT('',(24.249999910593,33.9999996870756,32.5));
#2037=CARTESIAN_POINT('',(24.249999910593,33.9999996870756,32.5));
#2038=CARTESIAN_POINT('',(24.249999910593,33.9999996870756,-7.5));
#2039=CARTESIAN_POINT('',(24.249999910593,33.9999996870756,-7.5));
#2040=CARTESIAN_POINT('',(24.249999910593,33.9999996870756,32.5));
#2041=CARTESIAN_POINT('Origin',(22.7500001676381,33.9999996870756,32.5));
#2042=CARTESIAN_POINT('',(22.7500001676381,33.9999996870756,32.5));
#2043=CARTESIAN_POINT('',(22.7500001676381,33.9999996870756,32.5));
#2044=CARTESIAN_POINT('',(22.7500001676381,33.9999996870756,-7.5));
#2045=CARTESIAN_POINT('',(22.7500001676381,33.9999996870756,-7.5));
#2046=CARTESIAN_POINT('',(22.7500001676381,33.9999996870756,32.5));
#2047=CARTESIAN_POINT('Origin',(22.7500001676381,13.9999996870756,32.5));
#2048=CARTESIAN_POINT('',(22.7500001676381,13.9999996870756,32.5));
#2049=CARTESIAN_POINT('',(22.7500001676381,13.9999996870756,32.5));
#2050=CARTESIAN_POINT('',(22.7500001676381,13.9999996870756,-7.5));
#2051=CARTESIAN_POINT('',(22.7500001676381,13.9999996870756,-7.5));
#2052=CARTESIAN_POINT('',(22.7500001676381,14.,22.5));
#2053=CARTESIAN_POINT('Origin',(12.5,14.,12.5));
#2054=CARTESIAN_POINT('',(21.499999910593,13.9999996870756,-7.5));
#2055=CARTESIAN_POINT('',(32.5,14.,-7.5));
#2056=CARTESIAN_POINT('',(21.499999910593,13.9999996870756,32.5));
#2057=CARTESIAN_POINT('',(21.499999910593,14.,22.5));
#2058=CARTESIAN_POINT('',(-7.5,14.,32.5));
#2059=CARTESIAN_POINT('Origin',(2.24999991059303,33.9999996870756,32.5));
#2060=CARTESIAN_POINT('',(2.24999991059303,33.9999996870756,32.5));
#2061=CARTESIAN_POINT('',(2.24999991059303,33.9999996870756,32.5));
#2062=CARTESIAN_POINT('',(2.24999991059303,33.9999996870756,-7.5));
#2063=CARTESIAN_POINT('',(2.24999991059303,33.9999996870756,-7.5));
#2064=CARTESIAN_POINT('',(2.24999991059303,33.9999996870756,32.5));
#2065=CARTESIAN_POINT('Origin',(0.750000167638064,33.9999996870756,32.5));
#2066=CARTESIAN_POINT('',(0.750000167638064,33.9999996870756,32.5));
#2067=CARTESIAN_POINT('',(0.750000167638064,33.9999996870756,32.5));
#2068=CARTESIAN_POINT('',(0.750000167638064,33.9999996870756,-7.5));
#2069=CARTESIAN_POINT('',(0.750000167638064,33.9999996870756,-7.5));
#2070=CARTESIAN_POINT('',(0.750000167638064,33.9999996870756,32.5));
#2071=CARTESIAN_POINT('Origin',(0.750000167638064,13.9999996870756,32.5));
#2072=CARTESIAN_POINT('',(0.750000167638064,13.9999996870756,32.5));
#2073=CARTESIAN_POINT('',(0.750000167638064,13.9999996870756,-7.5));
#2074=CARTESIAN_POINT('Origin',(-6.00000008940697,33.9999996870756,32.5));
#2075=CARTESIAN_POINT('',(-6.00000008940697,33.9999996870756,32.5));
#2076=CARTESIAN_POINT('',(-6.00000008940697,33.9999996870756,32.5));
#2077=CARTESIAN_POINT('',(-6.00000008940697,33.9999996870756,-7.5));
#2078=CARTESIAN_POINT('',(-6.00000008940697,33.9999996870756,-7.5));
#2079=CARTESIAN_POINT('',(-6.00000008940697,33.9999996870756,32.5));
#2080=CARTESIAN_POINT('Origin',(-7.49999983236194,33.9999996870756,32.5));
#2081=CARTESIAN_POINT('',(-7.49999983236194,33.9999996870756,32.5));
#2082=CARTESIAN_POINT('',(-7.49999983236194,33.9999996870756,32.5));
#2083=CARTESIAN_POINT('',(-7.49999983236194,33.9999996870756,-7.5));
#2084=CARTESIAN_POINT('',(-7.49999983236194,33.9999996870756,-7.5));
#2085=CARTESIAN_POINT('',(-7.49999983236194,33.9999996870756,32.5));
#2086=CARTESIAN_POINT('Origin',(31.0000001676381,33.9999996870756,32.5));
#2087=CARTESIAN_POINT('',(31.0000001676381,33.9999996870756,32.5));
#2088=CARTESIAN_POINT('',(32.499999910593,33.9999996870756,32.5));
#2089=CARTESIAN_POINT('',(31.0000001676381,33.9999996870756,32.5));
#2090=CARTESIAN_POINT('',(32.499999910593,33.9999996870756,-7.5));
#2091=CARTESIAN_POINT('',(32.499999910593,33.9999996870756,32.5));
#2092=CARTESIAN_POINT('',(31.0000001676381,33.9999996870756,-7.5));
#2093=CARTESIAN_POINT('',(31.0000001676381,33.9999996870756,-7.5));
#2094=CARTESIAN_POINT('',(31.0000001676381,33.9999996870756,32.5));
#2095=CARTESIAN_POINT('Origin',(31.0000001676381,13.9999996870756,32.5));
#2096=CARTESIAN_POINT('',(31.0000001676381,13.9999996870756,32.5));
#2097=CARTESIAN_POINT('',(31.0000001676381,13.9999996870756,-7.5));
#2098=CARTESIAN_POINT('Origin',(21.499999910593,33.9999996870756,32.5));
#2099=CARTESIAN_POINT('',(21.499999910593,33.9999996870756,32.5));
#2100=CARTESIAN_POINT('',(21.499999910593,33.9999996870756,32.5));
#2101=CARTESIAN_POINT('',(21.499999910593,33.9999996870756,-7.5));
#2102=CARTESIAN_POINT('',(21.499999910593,33.9999996870756,-7.5));
#2103=CARTESIAN_POINT('',(21.499999910593,33.9999996870756,32.5));
#2104=CARTESIAN_POINT('Origin',(20.0000001676381,33.9999996870756,32.5));
#2105=CARTESIAN_POINT('',(20.0000001676381,33.9999996870756,32.5));
#2106=CARTESIAN_POINT('',(20.0000001676381,33.9999996870756,32.5));
#2107=CARTESIAN_POINT('',(20.0000001676381,33.9999996870756,-7.5));
#2108=CARTESIAN_POINT('',(20.0000001676381,33.9999996870756,-7.5));
#2109=CARTESIAN_POINT('',(20.0000001676381,33.9999996870756,32.5));
#2110=CARTESIAN_POINT('Origin',(20.0000001676381,13.9999996870756,32.5));
#2111=CARTESIAN_POINT('',(20.0000001676381,13.9999996870756,32.5));
#2112=CARTESIAN_POINT('',(20.0000001676381,13.9999996870756,-7.5));
#2113=CARTESIAN_POINT('Origin',(10.499999910593,33.9999996870756,32.5));
#2114=CARTESIAN_POINT('',(10.499999910593,33.9999996870756,32.5));
#2115=CARTESIAN_POINT('',(10.499999910593,33.9999996870756,32.5));
#2116=CARTESIAN_POINT('',(10.499999910593,33.9999996870756,-7.5));
#2117=CARTESIAN_POINT('',(10.499999910593,33.9999996870756,-7.5));
#2118=CARTESIAN_POINT('',(10.499999910593,33.9999996870756,32.5));
#2119=CARTESIAN_POINT('Origin',(9.00000016763807,33.9999996870756,32.5));
#2120=CARTESIAN_POINT('',(9.00000016763807,33.9999996870756,32.5));
#2121=CARTESIAN_POINT('',(9.00000016763807,33.9999996870756,32.5));
#2122=CARTESIAN_POINT('',(9.00000016763807,33.9999996870756,-7.5));
#2123=CARTESIAN_POINT('',(9.00000016763807,33.9999996870756,-7.5));
#2124=CARTESIAN_POINT('',(9.00000016763807,33.9999996870756,32.5));
#2125=CARTESIAN_POINT('Origin',(9.00000016763807,13.9999996870756,32.5));
#2126=CARTESIAN_POINT('',(9.00000016763807,13.9999996870756,32.5));
#2127=CARTESIAN_POINT('',(9.00000016763807,13.9999996870756,-7.5));
#2128=CARTESIAN_POINT('Origin',(12.5,4.,12.5));
#2129=CARTESIAN_POINT('',(32.5,4.,-7.5));
#2130=CARTESIAN_POINT('',(-7.5,4.,-7.5));
#2131=CARTESIAN_POINT('',(32.5,4.,-7.5));
#2132=CARTESIAN_POINT('',(32.5,4.,32.5));
#2133=CARTESIAN_POINT('',(32.5,4.,32.5));
#2134=CARTESIAN_POINT('',(-7.5,4.,32.5));
#2135=CARTESIAN_POINT('',(-7.5,4.,32.5));
#2136=CARTESIAN_POINT('',(-7.5,4.,-7.5));
#2137=CARTESIAN_POINT('',(0.,4.,0.));
#2138=CARTESIAN_POINT('',(0.,4.,25.));
#2139=CARTESIAN_POINT('',(0.,4.,25.));
#2140=CARTESIAN_POINT('',(25.,4.,25.));
#2141=CARTESIAN_POINT('',(25.,4.,25.));
#2142=CARTESIAN_POINT('',(25.,4.,0.));
#2143=CARTESIAN_POINT('',(25.,4.,0.));
#2144=CARTESIAN_POINT('',(0.,4.,0.));
#2145=CARTESIAN_POINT('Origin',(32.5,4.,32.5));
#2146=CARTESIAN_POINT('',(32.5,4.,-7.5));
#2147=CARTESIAN_POINT('',(32.5,4.,32.5));
#2148=CARTESIAN_POINT('Origin',(-7.5,4.,32.5));
#2149=CARTESIAN_POINT('',(-7.5,4.,32.5));
#2150=CARTESIAN_POINT('Origin',(-7.5,4.,-7.5));
#2151=CARTESIAN_POINT('',(-7.5,4.,-7.5));
#2152=CARTESIAN_POINT('Origin',(32.5,4.,-7.5));
#2153=CARTESIAN_POINT('Origin',(0.,0.,0.));
#2154=CARTESIAN_POINT('',(0.,0.,25.));
#2155=CARTESIAN_POINT('',(0.,0.,0.));
#2156=CARTESIAN_POINT('',(0.,0.,25.));
#2157=CARTESIAN_POINT('',(0.,0.,25.));
#2158=CARTESIAN_POINT('',(0.,0.,0.));
#2159=CARTESIAN_POINT('Origin',(25.,0.,0.));
#2160=CARTESIAN_POINT('',(25.,0.,0.));
#2161=CARTESIAN_POINT('',(0.,0.,0.));
#2162=CARTESIAN_POINT('',(25.,0.,0.));
#2163=CARTESIAN_POINT('Origin',(25.,0.,25.));
#2164=CARTESIAN_POINT('',(25.,0.,25.));
#2165=CARTESIAN_POINT('',(25.,0.,0.));
#2166=CARTESIAN_POINT('',(25.,0.,25.));
#2167=CARTESIAN_POINT('Origin',(0.,0.,25.));
#2168=CARTESIAN_POINT('',(25.,0.,25.));
#2169=CARTESIAN_POINT('Origin',(12.5,0.,12.5));
#2170=UNCERTAINTY_MEASURE_WITH_UNIT(LENGTH_MEASURE(0.01),#2174,
'DISTANCE_ACCURACY_VALUE',
'Maximum model space distance between geometric entities at asserted c
onnectivities');
#2171=UNCERTAINTY_MEASURE_WITH_UNIT(LENGTH_MEASURE(0.01),#2174,
'DISTANCE_ACCURACY_VALUE',
'Maximum model space distance between geometric entities at asserted c
onnectivities');
#2172=(
GEOMETRIC_REPRESENTATION_CONTEXT(3)
GLOBAL_UNCERTAINTY_ASSIGNED_CONTEXT((#2170))
GLOBAL_UNIT_ASSIGNED_CONTEXT((#2174,#2176,#2177))
REPRESENTATION_CONTEXT('','3D')
);
#2173=(
GEOMETRIC_REPRESENTATION_CONTEXT(3)
GLOBAL_UNCERTAINTY_ASSIGNED_CONTEXT((#2171))
GLOBAL_UNIT_ASSIGNED_CONTEXT((#2174,#2176,#2177))
REPRESENTATION_CONTEXT('','3D')
);
#2174=(
LENGTH_UNIT()
NAMED_UNIT(*)
SI_UNIT(.MILLI.,.METRE.)
);
#2175=(
LENGTH_UNIT()
NAMED_UNIT(*)
SI_UNIT($,.METRE.)
);
#2176=(
NAMED_UNIT(*)
PLANE_ANGLE_UNIT()
SI_UNIT($,.RADIAN.)
);
#2177=(
NAMED_UNIT(*)
SI_UNIT($,.STERADIAN.)
SOLID_ANGLE_UNIT()
);
#2178=SHAPE_DEFINITION_REPRESENTATION(#2179,#2180);
#2179=PRODUCT_DEFINITION_SHAPE('',$,#2182);
#2180=SHAPE_REPRESENTATION('',(#1386),#2172);
#2181=PRODUCT_DEFINITION_CONTEXT('part definition',#2186,'design');
#2182=PRODUCT_DEFINITION('15 fins heat sink','15 fins heat sink v1',#2183,
#2181);
#2183=PRODUCT_DEFINITION_FORMATION('',$,#2188);
#2184=PRODUCT_RELATED_PRODUCT_CATEGORY('15 fins heat sink v1',
'15 fins heat sink v1',(#2188));
#2185=APPLICATION_PROTOCOL_DEFINITION('international standard',
'automotive_design',2009,#2186);
#2186=APPLICATION_CONTEXT(
'Core Data for Automotive Mechanical Design Process');
#2187=PRODUCT_CONTEXT('part definition',#2186,'mechanical');
#2188=PRODUCT('15 fins heat sink','15 fins heat sink v1',$,(#2187));
#2189=PRESENTATION_STYLE_ASSIGNMENT((#2190));
#2190=SURFACE_STYLE_USAGE(.BOTH.,#2191);
#2191=SURFACE_SIDE_STYLE('',(#2192));
#2192=SURFACE_STYLE_FILL_AREA(#2193);
#2193=FILL_AREA_STYLE('Steel - Satin',(#2194));
#2194=FILL_AREA_STYLE_COLOUR('Steel - Satin',#2195);
#2195=COLOUR_RGB('Steel - Satin',0.627450980392157,0.627450980392157,0.627450980392157);
ENDSEC;
END-ISO-10303-21;
